<svg xmlns="http://www.w3.org/2000/svg" xmlns:xlink="http://www.w3.org/1999/xlink" width="453" zoomAndPan="magnify" viewBox="0 0 339.75 524.249967" height="699" preserveAspectRatio="xMidYMid meet" version="1.0"><defs><g></g><clipPath id="a8a76c0cf2"><path d="M 0.117188 0 L 339.382812 0 L 339.382812 523.5 L 0.117188 523.5 Z M 0.117188 0" clip-rule="nonzero"></path></clipPath><clipPath id="def54a2a96"><path d="M 0.117188 0 L 339.292969 0 L 339.292969 523.363281 L 0.117188 523.363281 Z M 0.117188 0" clip-rule="nonzero"></path></clipPath><clipPath id="0589c4b5f6"><path d="M 165 341 L 168 341 L 168 383.160156 L 165 383.160156 Z M 165 341" clip-rule="nonzero"></path></clipPath><clipPath id="607b581b2f"><path d="M 165 139.820312 L 168 139.820312 L 168 182 L 165 182 Z M 165 139.820312" clip-rule="nonzero"></path></clipPath><clipPath id="149bc24c47"><path d="M 246 260 L 288.410156 260 L 288.410156 263 L 246 263 Z M 246 260" clip-rule="nonzero"></path></clipPath><clipPath id="99d6d63907"><path d="M 80.261719 318 L 111 318 L 111 348 L 80.261719 348 Z M 80.261719 318" clip-rule="nonzero"></path></clipPath><clipPath id="d19a7ae5c6"><path d="M 80.261719 175 L 111 175 L 111 206 L 80.261719 206 Z M 80.261719 175" clip-rule="nonzero"></path></clipPath><clipPath id="f60a8b3538"><rect x="0" width="202" y="0" height="33"></rect></clipPath><clipPath id="0f34ae2a4c"><rect x="0" width="116" y="0" height="31"></rect></clipPath><clipPath id="9618a71ef0"><rect x="0" width="340" y="0" height="524"></rect></clipPath></defs><g clip-path="url(#a8a76c0cf2)"><path fill="#ffffff" d="M 0.117188 0 L 339.382812 0 L 339.382812 523.5 L 0.117188 523.5 Z M 0.117188 0" fill-opacity="1" fill-rule="nonzero"></path><g transform="matrix(1, 0, 0, 1, 0.000000000000000014, -0.000000000000094125)"><g clip-path="url(#9618a71ef0)"><g clip-path="url(#def54a2a96)"><path fill="#ffffff" d="M 0.117188 0 L 339.292969 0 L 339.292969 523.363281 L 0.117188 523.363281 Z M 0.117188 0" fill-opacity="1" fill-rule="nonzero"></path></g><g clip-path="url(#0589c4b5f6)"><path fill="#a65519" d="M 166.609375 341.902344 C 166.390625 341.902344 166.207031 341.980469 166.054688 342.132812 C 165.898438 342.285156 165.824219 342.472656 165.824219 342.691406 L 165.824219 382.546875 C 165.824219 382.765625 165.902344 382.949219 166.054688 383.105469 C 166.207031 383.257812 166.394531 383.335938 166.609375 383.335938 C 166.828125 383.335938 167.011719 383.257812 167.164062 383.105469 C 167.320312 382.949219 167.394531 382.765625 167.398438 382.546875 L 167.398438 342.691406 C 167.398438 342.472656 167.320312 342.285156 167.167969 342.132812 C 167.011719 341.980469 166.828125 341.902344 166.609375 341.902344 Z M 166.609375 341.902344" fill-opacity="1" fill-rule="nonzero"></path></g><g clip-path="url(#607b581b2f)"><path fill="#a65519" d="M 166.554688 181.554688 C 166.773438 181.550781 166.957031 181.472656 167.113281 181.320312 C 167.265625 181.167969 167.34375 180.984375 167.34375 180.765625 L 167.34375 140.824219 C 167.363281 140.59375 167.292969 140.398438 167.136719 140.226562 C 166.980469 140.058594 166.789062 139.976562 166.558594 139.976562 C 166.328125 139.976562 166.136719 140.058594 165.980469 140.226562 C 165.824219 140.398438 165.753906 140.59375 165.773438 140.824219 L 165.773438 180.765625 C 165.773438 180.980469 165.851562 181.167969 166.003906 181.320312 C 166.15625 181.472656 166.339844 181.550781 166.554688 181.554688 Z M 166.554688 181.554688" fill-opacity="1" fill-rule="nonzero"></path></g><g clip-path="url(#149bc24c47)"><path fill="#a65519" d="M 287.433594 260.851562 L 247.542969 260.851562 C 247.3125 260.835938 247.113281 260.902344 246.945312 261.058594 C 246.777344 261.214844 246.695312 261.410156 246.691406 261.636719 C 246.695312 261.867188 246.777344 262.058594 246.945312 262.214844 C 247.113281 262.371094 247.3125 262.441406 247.542969 262.421875 L 287.441406 262.421875 C 287.65625 262.421875 287.84375 262.347656 287.996094 262.191406 C 288.152344 262.039062 288.226562 261.851562 288.226562 261.636719 C 288.226562 261.417969 288.152344 261.230469 287.996094 261.078125 C 287.84375 260.925781 287.65625 260.847656 287.441406 260.847656 Z M 287.433594 260.851562" fill-opacity="1" fill-rule="nonzero"></path></g><g clip-path="url(#99d6d63907)"><path fill="#a65519" d="M 110.230469 318.851562 C 110.226562 318.503906 110.0625 318.261719 109.742188 318.128906 C 109.421875 317.996094 109.136719 318.054688 108.886719 318.296875 L 80.597656 346.621094 C 80.351562 346.871094 80.296875 347.15625 80.429688 347.476562 C 80.5625 347.800781 80.804688 347.960938 81.152344 347.964844 C 81.367188 347.964844 81.550781 347.886719 81.707031 347.734375 L 110 319.402344 C 110.152344 319.25 110.230469 319.066406 110.230469 318.851562 Z M 110.230469 318.851562" fill-opacity="1" fill-rule="nonzero"></path></g><path fill="#a65519" d="M 223.132812 205.09375 C 223.285156 205.246094 223.46875 205.320312 223.6875 205.320312 C 223.902344 205.320312 224.085938 205.246094 224.238281 205.09375 L 252.570312 176.75 C 252.730469 176.597656 252.8125 176.410156 252.816406 176.1875 C 252.820312 175.96875 252.742188 175.777344 252.585938 175.621094 C 252.429688 175.464844 252.238281 175.386719 252.015625 175.390625 C 251.796875 175.394531 251.609375 175.476562 251.457031 175.636719 L 223.132812 203.980469 C 222.976562 204.136719 222.902344 204.320312 222.902344 204.539062 C 222.902344 204.753906 222.976562 204.941406 223.132812 205.09375 Z M 223.132812 205.09375" fill-opacity="1" fill-rule="nonzero"></path><g clip-path="url(#d19a7ae5c6)"><path fill="#a65519" d="M 108.902344 205.171875 C 109.050781 205.34375 109.242188 205.433594 109.46875 205.441406 C 109.699219 205.449219 109.894531 205.375 110.054688 205.210938 C 110.214844 205.050781 110.292969 204.855469 110.285156 204.625 C 110.273438 204.398438 110.183594 204.207031 110.011719 204.058594 L 81.652344 175.691406 C 81.496094 175.546875 81.3125 175.472656 81.101562 175.476562 C 80.886719 175.480469 80.707031 175.558594 80.554688 175.707031 C 80.40625 175.859375 80.328125 176.039062 80.324219 176.253906 C 80.320312 176.464844 80.394531 176.648438 80.539062 176.804688 Z M 108.902344 205.171875" fill-opacity="1" fill-rule="nonzero"></path></g><path fill="#a65519" d="M 224.410156 318.355469 C 224.160156 318.109375 223.875 318.054688 223.554688 318.1875 C 223.230469 318.324219 223.070312 318.566406 223.066406 318.914062 C 223.070312 319.132812 223.144531 319.316406 223.296875 319.46875 L 251.488281 347.664062 C 251.640625 347.835938 251.828125 347.925781 252.058594 347.933594 C 252.285156 347.941406 252.480469 347.863281 252.640625 347.703125 C 252.804688 347.539062 252.878906 347.34375 252.871094 347.117188 C 252.863281 346.886719 252.769531 346.699219 252.597656 346.550781 Z M 224.410156 318.355469" fill-opacity="1" fill-rule="nonzero"></path><path fill="#a65519" d="M 240.90625 231.226562 C 240.855469 231.347656 240.835938 231.472656 240.847656 231.605469 C 240.863281 231.738281 240.902344 231.859375 240.976562 231.96875 C 241.050781 232.078125 241.144531 232.164062 241.261719 232.226562 C 241.375 232.292969 241.5 232.324219 241.632812 232.324219 C 241.734375 232.324219 241.832031 232.304688 241.921875 232.265625 L 279.019531 217.367188 C 279.207031 217.277344 279.335938 217.136719 279.410156 216.945312 C 279.484375 216.75 279.484375 216.558594 279.40625 216.367188 C 279.332031 216.175781 279.199219 216.035156 279.011719 215.949219 C 278.824219 215.859375 278.632812 215.847656 278.4375 215.910156 L 241.339844 230.8125 C 241.140625 230.890625 240.996094 231.03125 240.90625 231.226562 Z M 240.90625 231.226562" fill-opacity="1" fill-rule="nonzero"></path><path fill="#a65519" d="M 122.269531 149.238281 C 122.1875 149.035156 122.050781 148.894531 121.851562 148.808594 C 121.648438 148.722656 121.449219 148.71875 121.25 148.800781 C 121.046875 148.878906 120.902344 149.019531 120.816406 149.21875 C 120.730469 149.417969 120.726562 149.621094 120.8125 149.820312 L 135.722656 186.949219 C 135.859375 187.273438 136.101562 187.4375 136.453125 187.433594 C 136.554688 187.433594 136.652344 187.417969 136.75 187.382812 C 136.953125 187.300781 137.09375 187.160156 137.175781 186.957031 C 137.261719 186.757812 137.261719 186.558594 137.175781 186.355469 Z M 122.269531 149.238281" fill-opacity="1" fill-rule="nonzero"></path><path fill="#a65519" d="M 197.5 336.546875 C 197.410156 336.355469 197.269531 336.222656 197.074219 336.148438 C 196.882812 336.070312 196.6875 336.074219 196.492188 336.152344 C 196.300781 336.230469 196.160156 336.363281 196.070312 336.550781 C 195.984375 336.742188 195.976562 336.9375 196.042969 337.132812 L 210.902344 374.121094 C 210.992188 374.304688 211.132812 374.433594 211.324219 374.507812 C 211.519531 374.582031 211.710938 374.582031 211.902344 374.503906 C 212.09375 374.429688 212.234375 374.296875 212.320312 374.109375 C 212.410156 373.925781 212.421875 373.734375 212.359375 373.535156 Z M 197.5 336.546875" fill-opacity="1" fill-rule="nonzero"></path><path fill="#a65519" d="M 278.039062 308.40625 L 241.378906 292.753906 C 241.179688 292.671875 240.980469 292.667969 240.777344 292.75 C 240.578125 292.832031 240.433594 292.972656 240.347656 293.171875 C 240.261719 293.371094 240.261719 293.570312 240.347656 293.769531 C 240.425781 293.972656 240.566406 294.117188 240.765625 294.203125 L 277.425781 309.855469 C 277.527344 309.894531 277.628906 309.917969 277.738281 309.917969 C 278.085938 309.917969 278.328125 309.753906 278.460938 309.433594 C 278.546875 309.234375 278.546875 309.035156 278.460938 308.835938 C 278.378906 308.632812 278.238281 308.492188 278.039062 308.40625 Z M 278.039062 308.40625" fill-opacity="1" fill-rule="nonzero"></path><path fill="#a65519" d="M 198.070312 187.921875 C 198.167969 187.960938 198.273438 187.984375 198.378906 187.984375 C 198.730469 187.984375 198.972656 187.820312 199.105469 187.5 L 214.757812 150.832031 C 214.839844 150.632812 214.84375 150.433594 214.761719 150.230469 C 214.683594 150.03125 214.542969 149.886719 214.34375 149.800781 C 214.140625 149.714844 213.941406 149.714844 213.742188 149.800781 C 213.539062 149.882812 213.394531 150.023438 213.3125 150.226562 L 197.65625 186.886719 C 197.570312 187.085938 197.570312 187.285156 197.648438 187.488281 C 197.730469 187.691406 197.871094 187.835938 198.070312 187.921875 Z M 198.070312 187.921875" fill-opacity="1" fill-rule="nonzero"></path><path fill="#a65519" d="M 135.113281 335.398438 C 134.910156 335.316406 134.710938 335.3125 134.507812 335.394531 C 134.308594 335.472656 134.164062 335.613281 134.078125 335.8125 L 118.410156 372.519531 C 118.328125 372.722656 118.328125 372.921875 118.410156 373.125 C 118.492188 373.324219 118.632812 373.46875 118.832031 373.550781 C 118.929688 373.59375 119.03125 373.617188 119.140625 373.613281 C 119.488281 373.613281 119.730469 373.449219 119.863281 373.128906 L 135.523438 336.414062 C 135.605469 336.21875 135.605469 336.019531 135.523438 335.824219 C 135.445312 335.625 135.304688 335.484375 135.113281 335.398438 Z M 135.113281 335.398438" fill-opacity="1" fill-rule="nonzero"></path><path fill="#a65519" d="M 150.976562 340.304688 C 150.765625 340.261719 150.574219 340.300781 150.394531 340.417969 C 150.210938 340.535156 150.097656 340.695312 150.054688 340.90625 L 146.113281 360.777344 C 146.066406 360.992188 146.105469 361.1875 146.226562 361.371094 C 146.382812 361.601562 146.601562 361.714844 146.878906 361.714844 C 147.066406 361.714844 147.234375 361.65625 147.378906 361.539062 C 147.523438 361.417969 147.617188 361.265625 147.652344 361.082031 L 151.59375 341.210938 C 151.640625 341 151.601562 340.804688 151.476562 340.625 C 151.355469 340.449219 151.1875 340.34375 150.976562 340.304688 Z M 150.976562 340.304688" fill-opacity="1" fill-rule="nonzero"></path><path fill="#a65519" d="M 186.5 161.328125 C 186.289062 161.285156 186.089844 161.324219 185.910156 161.445312 C 185.730469 161.566406 185.621094 161.730469 185.578125 161.945312 L 181.566406 182.144531 C 181.523438 182.359375 181.5625 182.554688 181.683594 182.734375 C 181.800781 182.914062 181.960938 183.023438 182.167969 183.070312 C 182.222656 183.074219 182.273438 183.074219 182.324219 183.070312 C 182.511719 183.070312 182.675781 183.007812 182.820312 182.890625 C 182.964844 182.773438 183.054688 182.621094 183.09375 182.4375 L 187.101562 162.238281 C 187.140625 162.027344 187.101562 161.835938 186.984375 161.660156 C 186.867188 161.484375 186.707031 161.375 186.5 161.328125 Z M 186.5 161.328125" fill-opacity="1" fill-rule="nonzero"></path><path fill="#a65519" d="M 245.613281 276.792969 C 245.433594 276.910156 245.320312 277.070312 245.273438 277.277344 C 245.230469 277.488281 245.269531 277.6875 245.390625 277.867188 C 245.503906 278.042969 245.667969 278.15625 245.875 278.199219 L 265.746094 282.144531 C 265.796875 282.152344 265.851562 282.152344 265.902344 282.144531 C 266.089844 282.140625 266.253906 282.082031 266.398438 281.960938 C 266.542969 281.84375 266.632812 281.691406 266.671875 281.507812 C 266.714844 281.292969 266.675781 281.097656 266.554688 280.917969 C 266.4375 280.742188 266.273438 280.628906 266.066406 280.582031 L 246.199219 276.640625 C 245.984375 276.605469 245.789062 276.65625 245.613281 276.792969 Z M 245.613281 276.792969" fill-opacity="1" fill-rule="nonzero"></path><path fill="#a65519" d="M 251.585938 204.828125 C 251.464844 204.648438 251.300781 204.535156 251.085938 204.492188 C 250.875 204.453125 250.675781 204.492188 250.496094 204.613281 L 233.328125 216.089844 C 233.148438 216.210938 233.039062 216.378906 232.996094 216.59375 C 232.957031 216.804688 232.996094 217.003906 233.117188 217.183594 C 233.234375 217.363281 233.402344 217.476562 233.613281 217.519531 C 233.828125 217.558594 234.023438 217.519531 234.203125 217.398438 L 251.371094 205.914062 C 251.554688 205.796875 251.664062 205.628906 251.707031 205.414062 C 251.746094 205.203125 251.707031 205.007812 251.585938 204.828125 Z M 251.585938 204.828125" fill-opacity="1" fill-rule="nonzero"></path><path fill="#a65519" d="M 120.996094 194.929688 C 121.191406 195.21875 121.460938 195.332031 121.800781 195.261719 C 122.144531 195.195312 122.351562 194.988281 122.421875 194.648438 C 122.460938 194.433594 122.421875 194.238281 122.304688 194.054688 L 110.714844 176.726562 C 110.589844 176.558594 110.425781 176.453125 110.214844 176.417969 C 110.007812 176.382812 109.816406 176.421875 109.644531 176.539062 C 109.46875 176.65625 109.359375 176.816406 109.3125 177.023438 C 109.265625 177.230469 109.296875 177.421875 109.40625 177.601562 Z M 120.996094 194.929688" fill-opacity="1" fill-rule="nonzero"></path><path fill="#a65519" d="M 212.277344 328.59375 C 212.15625 328.414062 211.992188 328.300781 211.777344 328.257812 C 211.566406 328.214844 211.367188 328.253906 211.1875 328.375 C 211.011719 328.492188 210.898438 328.652344 210.851562 328.859375 C 210.8125 329.074219 210.851562 329.269531 210.96875 329.449219 L 222.296875 346.382812 C 222.488281 346.660156 222.75 346.769531 223.078125 346.710938 C 223.410156 346.652344 223.621094 346.460938 223.707031 346.136719 C 223.746094 345.925781 223.707031 345.726562 223.589844 345.546875 Z M 212.277344 328.59375" fill-opacity="1" fill-rule="nonzero"></path><path fill="#a65519" d="M 267 242.820312 C 266.957031 242.605469 266.847656 242.4375 266.667969 242.316406 C 266.492188 242.195312 266.292969 242.152344 266.082031 242.191406 L 245.960938 245.96875 C 245.765625 246.007812 245.605469 246.109375 245.484375 246.269531 C 245.363281 246.429688 245.3125 246.613281 245.328125 246.8125 C 245.347656 247.015625 245.429688 247.183594 245.578125 247.320312 C 245.726562 247.457031 245.902344 247.527344 246.105469 247.53125 L 246.25 247.53125 L 266.375 243.753906 C 266.589844 243.710938 266.757812 243.597656 266.878906 243.414062 C 267 243.234375 267.042969 243.035156 267 242.820312 Z M 267 242.820312" fill-opacity="1" fill-rule="nonzero"></path><path fill="#a65519" d="M 148.652344 161.96875 C 148.605469 161.765625 148.492188 161.609375 148.316406 161.496094 C 148.140625 161.382812 147.949219 161.347656 147.746094 161.382812 C 147.542969 161.421875 147.378906 161.523438 147.253906 161.695312 C 147.132812 161.863281 147.082031 162.050781 147.109375 162.253906 L 150.886719 182.375 C 150.921875 182.558594 151.011719 182.714844 151.15625 182.832031 C 151.300781 182.953125 151.46875 183.015625 151.65625 183.015625 C 151.707031 183.019531 151.753906 183.019531 151.804688 183.015625 C 152.015625 182.976562 152.1875 182.871094 152.308594 182.691406 C 152.429688 182.511719 152.472656 182.316406 152.429688 182.101562 Z M 148.652344 161.96875" fill-opacity="1" fill-rule="nonzero"></path><path fill="#a65519" d="M 182.289062 341.050781 C 182.261719 340.828125 182.152344 340.652344 181.96875 340.519531 C 181.789062 340.390625 181.585938 340.34375 181.363281 340.386719 C 181.144531 340.425781 180.972656 340.542969 180.851562 340.730469 C 180.726562 340.921875 180.691406 341.125 180.746094 341.34375 L 184.511719 361.410156 C 184.546875 361.59375 184.640625 361.746094 184.785156 361.867188 C 184.929688 361.988281 185.097656 362.050781 185.285156 362.050781 C 185.332031 362.054688 185.382812 362.054688 185.429688 362.050781 C 185.644531 362.011719 185.8125 361.902344 185.9375 361.726562 C 186.058594 361.546875 186.097656 361.351562 186.058594 361.136719 Z M 182.289062 341.050781" fill-opacity="1" fill-rule="nonzero"></path><path fill="#a65519" d="M 232.800781 306.957031 C 232.675781 307.136719 232.636719 307.332031 232.679688 307.546875 C 232.722656 307.753906 232.832031 307.914062 233.007812 308.03125 L 249.730469 319.46875 C 249.910156 319.589844 250.105469 319.632812 250.316406 319.589844 C 250.53125 319.550781 250.699219 319.441406 250.820312 319.261719 C 250.945312 319.082031 250.988281 318.886719 250.945312 318.671875 C 250.902344 318.464844 250.792969 318.304688 250.613281 318.1875 L 233.914062 306.761719 C 233.734375 306.632812 233.535156 306.585938 233.316406 306.625 C 233.09375 306.660156 232.921875 306.773438 232.800781 306.957031 Z M 232.800781 306.957031" fill-opacity="1" fill-rule="nonzero"></path><path fill="#a65519" d="M 211.804688 195.539062 C 211.984375 195.660156 212.179688 195.699219 212.394531 195.660156 C 212.609375 195.621094 212.777344 195.511719 212.898438 195.332031 L 224.507812 178.355469 C 224.601562 178.179688 224.625 177.992188 224.578125 177.796875 C 224.53125 177.601562 224.425781 177.445312 224.261719 177.332031 C 224.097656 177.21875 223.914062 177.175781 223.714844 177.199219 C 223.515625 177.226562 223.351562 177.3125 223.21875 177.464844 L 211.601562 194.445312 C 211.476562 194.625 211.4375 194.820312 211.476562 195.035156 C 211.515625 195.246094 211.625 195.414062 211.804688 195.539062 Z M 211.804688 195.539062" fill-opacity="1" fill-rule="nonzero"></path><path fill="#a65519" d="M 121.675781 328.335938 C 121.632812 328.128906 121.523438 327.96875 121.351562 327.851562 C 121.171875 327.726562 120.976562 327.6875 120.761719 327.726562 C 120.550781 327.765625 120.378906 327.875 120.257812 328.054688 L 108.660156 345.019531 C 108.535156 345.195312 108.496094 345.394531 108.539062 345.605469 C 108.578125 345.820312 108.6875 345.984375 108.867188 346.105469 C 109 346.203125 109.148438 346.25 109.308594 346.246094 C 109.585938 346.246094 109.800781 346.132812 109.957031 345.902344 L 121.554688 328.941406 C 121.683594 328.757812 121.722656 328.554688 121.675781 328.335938 Z M 121.675781 328.335938" fill-opacity="1" fill-rule="nonzero"></path><g transform="matrix(1, 0, 0, 1, 44, 240)"><g clip-path="url(#f60a8b3538)"><g fill="#a65519" fill-opacity="1"><g transform="translate(1.139476, 23.335612)"><g><path d="M 1.609375 0 L 1.609375 -0.328125 C 1.878906 -0.398438 2.097656 -0.523438 2.265625 -0.703125 C 2.441406 -0.890625 2.566406 -1.210938 2.640625 -1.671875 C 2.722656 -2.128906 2.765625 -2.804688 2.765625 -3.703125 L 2.765625 -16.703125 C 2.765625 -17.597656 2.722656 -18.273438 2.640625 -18.734375 C 2.566406 -19.191406 2.441406 -19.515625 2.265625 -19.703125 C 2.097656 -19.898438 1.878906 -20.03125 1.609375 -20.09375 L 1.609375 -20.40625 L 5.5625 -20.40625 L 5.5625 -20.09375 C 5.289062 -20.03125 5.066406 -19.898438 4.890625 -19.703125 C 4.722656 -19.515625 4.597656 -19.191406 4.515625 -18.734375 C 4.441406 -18.273438 4.40625 -17.597656 4.40625 -16.703125 L 4.40625 -1.546875 C 4.40625 -0.765625 4.789062 -0.375 5.5625 -0.375 L 10.234375 -0.375 C 11.109375 -0.375 11.820312 -0.457031 12.375 -0.625 C 12.925781 -0.789062 13.378906 -1.0625 13.734375 -1.4375 C 14.097656 -1.820312 14.425781 -2.320312 14.71875 -2.9375 L 14.984375 -2.890625 L 14.8125 0 Z M 1.609375 0"></path></g></g></g><g fill="#a65519" fill-opacity="1"><g transform="translate(21.749767, 23.335612)"><g><path d="M 1.609375 0 L 1.609375 -0.328125 C 1.878906 -0.398438 2.097656 -0.523438 2.265625 -0.703125 C 2.441406 -0.890625 2.566406 -1.210938 2.640625 -1.671875 C 2.722656 -2.128906 2.765625 -2.804688 2.765625 -3.703125 L 2.765625 -16.703125 C 2.765625 -17.597656 2.722656 -18.273438 2.640625 -18.734375 C 2.566406 -19.191406 2.441406 -19.515625 2.265625 -19.703125 C 2.097656 -19.898438 1.878906 -20.03125 1.609375 -20.09375 L 1.609375 -20.40625 L 5.5625 -20.40625 L 5.5625 -20.09375 C 5.289062 -20.03125 5.066406 -19.898438 4.890625 -19.703125 C 4.722656 -19.515625 4.597656 -19.191406 4.515625 -18.734375 C 4.441406 -18.273438 4.40625 -17.597656 4.40625 -16.703125 L 4.40625 -3.703125 C 4.40625 -2.804688 4.441406 -2.128906 4.515625 -1.671875 C 4.597656 -1.210938 4.722656 -0.890625 4.890625 -0.703125 C 5.066406 -0.523438 5.289062 -0.398438 5.5625 -0.328125 L 5.5625 0 Z M 1.609375 0"></path></g></g></g><g fill="#a65519" fill-opacity="1"><g transform="translate(33.877172, 23.335612)"><g><path d="M 6.15625 0 L 6.15625 -0.328125 C 6.425781 -0.398438 6.644531 -0.523438 6.8125 -0.703125 C 6.988281 -0.890625 7.113281 -1.210938 7.1875 -1.671875 C 7.269531 -2.128906 7.3125 -2.804688 7.3125 -3.703125 L 7.3125 -20.03125 L 5.3125 -20.03125 C 4.4375 -20.03125 3.71875 -19.945312 3.15625 -19.78125 C 2.601562 -19.613281 2.144531 -19.335938 1.78125 -18.953125 C 1.425781 -18.578125 1.101562 -18.082031 0.8125 -17.46875 L 0.546875 -17.515625 L 0.734375 -20.40625 L 15.515625 -20.40625 L 15.6875 -17.515625 L 15.421875 -17.46875 C 15.128906 -18.082031 14.800781 -18.578125 14.4375 -18.953125 C 14.082031 -19.335938 13.628906 -19.613281 13.078125 -19.78125 C 12.523438 -19.945312 11.8125 -20.03125 10.9375 -20.03125 L 8.984375 -20.03125 L 8.984375 -3.703125 C 8.984375 -2.804688 9.019531 -2.128906 9.09375 -1.671875 C 9.175781 -1.210938 9.300781 -0.890625 9.46875 -0.703125 C 9.644531 -0.523438 9.867188 -0.398438 10.140625 -0.328125 L 10.140625 0 Z M 6.15625 0"></path></g></g></g><g fill="#a65519" fill-opacity="1"><g transform="translate(55.128774, 23.335612)"><g><path d="M 6.15625 0 L 6.15625 -0.328125 C 6.425781 -0.398438 6.644531 -0.523438 6.8125 -0.703125 C 6.988281 -0.890625 7.113281 -1.210938 7.1875 -1.671875 C 7.269531 -2.128906 7.3125 -2.804688 7.3125 -3.703125 L 7.3125 -20.03125 L 5.3125 -20.03125 C 4.4375 -20.03125 3.71875 -19.945312 3.15625 -19.78125 C 2.601562 -19.613281 2.144531 -19.335938 1.78125 -18.953125 C 1.425781 -18.578125 1.101562 -18.082031 0.8125 -17.46875 L 0.546875 -17.515625 L 0.734375 -20.40625 L 15.515625 -20.40625 L 15.6875 -17.515625 L 15.421875 -17.46875 C 15.128906 -18.082031 14.800781 -18.578125 14.4375 -18.953125 C 14.082031 -19.335938 13.628906 -19.613281 13.078125 -19.78125 C 12.523438 -19.945312 11.8125 -20.03125 10.9375 -20.03125 L 8.984375 -20.03125 L 8.984375 -3.703125 C 8.984375 -2.804688 9.019531 -2.128906 9.09375 -1.671875 C 9.175781 -1.210938 9.300781 -0.890625 9.46875 -0.703125 C 9.644531 -0.523438 9.867188 -0.398438 10.140625 -0.328125 L 10.140625 0 Z M 6.15625 0"></path></g></g></g><g fill="#a65519" fill-opacity="1"><g transform="translate(76.380375, 23.335612)"><g><path d="M 1.609375 0 L 1.609375 -0.328125 C 1.878906 -0.398438 2.097656 -0.523438 2.265625 -0.703125 C 2.441406 -0.890625 2.566406 -1.210938 2.640625 -1.671875 C 2.722656 -2.128906 2.765625 -2.804688 2.765625 -3.703125 L 2.765625 -16.703125 C 2.765625 -17.597656 2.722656 -18.273438 2.640625 -18.734375 C 2.566406 -19.191406 2.441406 -19.515625 2.265625 -19.703125 C 2.097656 -19.898438 1.878906 -20.03125 1.609375 -20.09375 L 1.609375 -20.40625 L 5.5625 -20.40625 L 5.5625 -20.09375 C 5.289062 -20.03125 5.066406 -19.898438 4.890625 -19.703125 C 4.722656 -19.515625 4.597656 -19.191406 4.515625 -18.734375 C 4.441406 -18.273438 4.40625 -17.597656 4.40625 -16.703125 L 4.40625 -1.546875 C 4.40625 -0.765625 4.789062 -0.375 5.5625 -0.375 L 10.234375 -0.375 C 11.109375 -0.375 11.820312 -0.457031 12.375 -0.625 C 12.925781 -0.789062 13.378906 -1.0625 13.734375 -1.4375 C 14.097656 -1.820312 14.425781 -2.320312 14.71875 -2.9375 L 14.984375 -2.890625 L 14.8125 0 Z M 1.609375 0"></path></g></g></g><g fill="#a65519" fill-opacity="1"><g transform="translate(96.990666, 23.335612)"><g><path d="M 1.609375 0 L 1.609375 -0.328125 C 1.878906 -0.398438 2.097656 -0.523438 2.265625 -0.703125 C 2.441406 -0.890625 2.566406 -1.210938 2.640625 -1.671875 C 2.722656 -2.128906 2.765625 -2.804688 2.765625 -3.703125 L 2.765625 -16.703125 C 2.765625 -17.597656 2.722656 -18.273438 2.640625 -18.734375 C 2.566406 -19.191406 2.441406 -19.515625 2.265625 -19.703125 C 2.097656 -19.898438 1.878906 -20.03125 1.609375 -20.09375 L 1.609375 -20.40625 L 14.6875 -20.40625 L 15.046875 -16.9375 L 14.78125 -16.875 C 14.332031 -18.03125 13.695312 -18.84375 12.875 -19.3125 C 12.050781 -19.789062 10.976562 -20.03125 9.65625 -20.03125 L 4.40625 -20.03125 L 4.40625 -11.046875 L 9.1875 -11.046875 C 10.195312 -11.046875 10.96875 -11.117188 11.5 -11.265625 C 12.03125 -11.410156 12.40625 -11.613281 12.625 -11.875 C 12.851562 -12.144531 13.007812 -12.453125 13.09375 -12.796875 L 13.40625 -12.796875 L 13.40625 -8.921875 L 13.09375 -8.921875 C 13.007812 -9.285156 12.851562 -9.59375 12.625 -9.84375 C 12.40625 -10.101562 12.03125 -10.304688 11.5 -10.453125 C 10.96875 -10.597656 10.195312 -10.671875 9.1875 -10.671875 L 4.40625 -10.671875 L 4.40625 -1.546875 C 4.40625 -0.765625 4.789062 -0.375 5.5625 -0.375 L 10.4375 -0.375 C 11.757812 -0.375 12.820312 -0.59375 13.625 -1.03125 C 14.4375 -1.46875 15.082031 -2.300781 15.5625 -3.53125 L 15.828125 -3.46875 L 15.5625 0 Z M 1.609375 0"></path></g></g></g><g fill="#a65519" fill-opacity="1"><g transform="translate(118.941884, 23.335612)"><g></g></g></g><g fill="#a65519" fill-opacity="1"><g transform="translate(130.311367, 23.335612)"><g><path d="M 16.46875 0.203125 C 15.769531 0.203125 15.226562 0.0234375 14.84375 -0.328125 C 14.46875 -0.691406 14.148438 -1.195312 13.890625 -1.84375 C 13.628906 -2.5 13.304688 -3.265625 12.921875 -4.140625 C 12.503906 -5.078125 12.140625 -5.941406 11.828125 -6.734375 C 11.523438 -7.535156 11.164062 -8.222656 10.75 -8.796875 C 10.34375 -9.367188 9.800781 -9.8125 9.125 -10.125 C 8.445312 -10.445312 7.546875 -10.609375 6.421875 -10.609375 L 4.40625 -10.609375 L 4.40625 -3.703125 C 4.40625 -2.804688 4.441406 -2.128906 4.515625 -1.671875 C 4.597656 -1.210938 4.722656 -0.890625 4.890625 -0.703125 C 5.066406 -0.523438 5.289062 -0.398438 5.5625 -0.328125 L 5.5625 0 L 1.609375 0 L 1.609375 -0.328125 C 1.878906 -0.398438 2.097656 -0.523438 2.265625 -0.703125 C 2.441406 -0.890625 2.566406 -1.210938 2.640625 -1.671875 C 2.722656 -2.128906 2.765625 -2.804688 2.765625 -3.703125 L 2.765625 -16.703125 C 2.765625 -17.597656 2.722656 -18.273438 2.640625 -18.734375 C 2.566406 -19.191406 2.441406 -19.515625 2.265625 -19.703125 C 2.097656 -19.898438 1.878906 -20.03125 1.609375 -20.09375 L 1.609375 -20.40625 L 6.96875 -20.40625 C 9.6875 -20.40625 11.640625 -20.019531 12.828125 -19.25 C 14.015625 -18.488281 14.609375 -17.398438 14.609375 -15.984375 C 14.609375 -14.578125 14.097656 -13.390625 13.078125 -12.421875 C 12.054688 -11.453125 10.613281 -10.867188 8.75 -10.671875 C 9.71875 -10.535156 10.503906 -10.296875 11.109375 -9.953125 C 11.710938 -9.617188 12.195312 -9.1875 12.5625 -8.65625 C 12.9375 -8.132812 13.257812 -7.53125 13.53125 -6.84375 C 13.800781 -6.164062 14.09375 -5.421875 14.40625 -4.609375 C 15.03125 -3.066406 15.566406 -1.953125 16.015625 -1.265625 C 16.472656 -0.578125 16.9375 -0.234375 17.40625 -0.234375 C 17.5 -0.234375 17.582031 -0.238281 17.65625 -0.25 C 17.738281 -0.257812 17.820312 -0.273438 17.90625 -0.296875 L 17.90625 0 C 17.800781 0.0390625 17.617188 0.0820312 17.359375 0.125 C 17.097656 0.175781 16.800781 0.203125 16.46875 0.203125 Z M 4.40625 -11.015625 L 7.5 -11.015625 C 9.1875 -11.015625 10.488281 -11.394531 11.40625 -12.15625 C 12.332031 -12.914062 12.796875 -13.976562 12.796875 -15.34375 C 12.796875 -16.78125 12.273438 -17.921875 11.234375 -18.765625 C 10.203125 -19.609375 8.410156 -20.03125 5.859375 -20.03125 C 5.628906 -20.03125 5.394531 -20.023438 5.15625 -20.015625 C 4.925781 -20.003906 4.675781 -19.988281 4.40625 -19.96875 Z M 4.40625 -11.015625"></path></g></g></g><g fill="#a65519" fill-opacity="1"><g transform="translate(152.903909, 23.335612)"><g><path d="M 1.609375 0 L 1.609375 -0.328125 C 1.878906 -0.398438 2.097656 -0.523438 2.265625 -0.703125 C 2.441406 -0.890625 2.566406 -1.210938 2.640625 -1.671875 C 2.722656 -2.128906 2.765625 -2.804688 2.765625 -3.703125 L 2.765625 -16.703125 C 2.765625 -17.597656 2.722656 -18.273438 2.640625 -18.734375 C 2.566406 -19.191406 2.441406 -19.515625 2.265625 -19.703125 C 2.097656 -19.898438 1.878906 -20.03125 1.609375 -20.09375 L 1.609375 -20.40625 L 14.6875 -20.40625 L 15.046875 -16.9375 L 14.78125 -16.875 C 14.332031 -18.03125 13.695312 -18.84375 12.875 -19.3125 C 12.050781 -19.789062 10.976562 -20.03125 9.65625 -20.03125 L 4.40625 -20.03125 L 4.40625 -11.046875 L 9.1875 -11.046875 C 10.195312 -11.046875 10.96875 -11.117188 11.5 -11.265625 C 12.03125 -11.410156 12.40625 -11.613281 12.625 -11.875 C 12.851562 -12.144531 13.007812 -12.453125 13.09375 -12.796875 L 13.40625 -12.796875 L 13.40625 -8.921875 L 13.09375 -8.921875 C 13.007812 -9.285156 12.851562 -9.59375 12.625 -9.84375 C 12.40625 -10.101562 12.03125 -10.304688 11.5 -10.453125 C 10.96875 -10.597656 10.195312 -10.671875 9.1875 -10.671875 L 4.40625 -10.671875 L 4.40625 -1.546875 C 4.40625 -0.765625 4.789062 -0.375 5.5625 -0.375 L 10.4375 -0.375 C 11.757812 -0.375 12.820312 -0.59375 13.625 -1.03125 C 14.4375 -1.46875 15.082031 -2.300781 15.5625 -3.53125 L 15.828125 -3.46875 L 15.5625 0 Z M 1.609375 0"></path></g></g></g><g fill="#a65519" fill-opacity="1"><g transform="translate(174.855127, 23.335612)"><g><path d="M 1.609375 0 L 1.609375 -0.328125 C 1.878906 -0.398438 2.097656 -0.523438 2.265625 -0.703125 C 2.441406 -0.890625 2.566406 -1.210938 2.640625 -1.671875 C 2.722656 -2.128906 2.765625 -2.804688 2.765625 -3.703125 L 2.765625 -16.703125 C 2.765625 -17.597656 2.722656 -18.273438 2.640625 -18.734375 C 2.566406 -19.191406 2.441406 -19.515625 2.265625 -19.703125 C 2.097656 -19.898438 1.878906 -20.03125 1.609375 -20.09375 L 1.609375 -20.40625 L 8.25 -20.40625 C 10.15625 -20.40625 11.804688 -20.140625 13.203125 -19.609375 C 14.609375 -19.078125 15.769531 -18.351562 16.6875 -17.4375 C 17.613281 -16.519531 18.304688 -15.46875 18.765625 -14.28125 C 19.234375 -13.101562 19.46875 -11.859375 19.46875 -10.546875 C 19.46875 -9.078125 19.222656 -7.695312 18.734375 -6.40625 C 18.253906 -5.125 17.550781 -4.003906 16.625 -3.046875 C 15.707031 -2.085938 14.601562 -1.335938 13.3125 -0.796875 C 12.019531 -0.265625 10.566406 0 8.953125 0 Z M 4.40625 -2.53125 C 4.40625 -1.851562 4.519531 -1.328125 4.75 -0.953125 C 4.988281 -0.585938 5.503906 -0.40625 6.296875 -0.40625 L 9.03125 -0.40625 C 11.8125 -0.40625 13.941406 -1.210938 15.421875 -2.828125 C 16.898438 -4.441406 17.640625 -6.726562 17.640625 -9.6875 C 17.640625 -11.101562 17.40625 -12.429688 16.9375 -13.671875 C 16.46875 -14.921875 15.785156 -16.019531 14.890625 -16.96875 C 14.003906 -17.914062 12.914062 -18.660156 11.625 -19.203125 C 10.34375 -19.753906 8.890625 -20.03125 7.265625 -20.03125 L 4.40625 -20.03125 Z M 4.40625 -2.53125"></path></g></g></g></g></g><g transform="matrix(1, 0, 0, 1, 85, 269)"><g clip-path="url(#0f34ae2a4c)"><g fill="#a65519" fill-opacity="1"><g transform="translate(1.717409, 20.025487)"><g><path d="M 14.765625 -4.515625 C 14.847656 -4.421875 14.878906 -4.3125 14.859375 -4.1875 C 14.847656 -4.0625 14.789062 -3.957031 14.6875 -3.875 C 14.644531 -3.832031 14.4375 -3.671875 14.0625 -3.390625 C 13.6875 -3.117188 13.179688 -2.789062 12.546875 -2.40625 C 11.910156 -2.03125 11.175781 -1.65625 10.34375 -1.28125 C 9.507812 -0.90625 8.617188 -0.59375 7.671875 -0.34375 C 6.722656 -0.101562 5.742188 0.015625 4.734375 0.015625 C 3.535156 0.0234375 2.382812 -0.191406 1.28125 -0.640625 C 0.675781 -0.878906 0.25 -1.160156 0 -1.484375 C -0.25 -1.816406 -0.390625 -2.140625 -0.421875 -2.453125 C -0.453125 -2.773438 -0.445312 -3.046875 -0.40625 -3.265625 C -0.300781 -3.703125 -0.0976562 -4.125 0.203125 -4.53125 C 0.515625 -4.9375 0.875 -5.300781 1.28125 -5.625 C 1.695312 -5.945312 2.117188 -6.195312 2.546875 -6.375 C 2.972656 -6.550781 3.363281 -6.625 3.71875 -6.59375 C 4.03125 -6.59375 4.300781 -6.476562 4.53125 -6.25 C 4.757812 -6.03125 4.882812 -5.757812 4.90625 -5.4375 C 4.914062 -5.25 4.867188 -5.015625 4.765625 -4.734375 C 4.660156 -4.460938 4.390625 -4.1875 3.953125 -3.90625 C 2.960938 -3.28125 1.875 -3.003906 0.6875 -3.078125 C 0.625 -3.085938 0.570312 -3.078125 0.53125 -3.046875 C 0.476562 -3.003906 0.457031 -2.957031 0.46875 -2.90625 C 0.457031 -2.800781 0.46875 -2.664062 0.5 -2.5 C 0.539062 -2.332031 0.644531 -2.160156 0.8125 -1.984375 C 0.976562 -1.804688 1.253906 -1.644531 1.640625 -1.5 C 2.429688 -1.15625 3.242188 -0.957031 4.078125 -0.90625 C 4.921875 -0.863281 5.75 -0.914062 6.5625 -1.0625 C 7.375 -1.21875 8.148438 -1.429688 8.890625 -1.703125 C 9.640625 -1.984375 10.328125 -2.285156 10.953125 -2.609375 C 11.578125 -2.941406 12.125 -3.253906 12.59375 -3.546875 C 13.0625 -3.847656 13.429688 -4.097656 13.703125 -4.296875 C 13.972656 -4.492188 14.109375 -4.59375 14.109375 -4.59375 C 14.210938 -4.675781 14.332031 -4.710938 14.46875 -4.703125 C 14.582031 -4.691406 14.679688 -4.628906 14.765625 -4.515625 Z M 1.09375 -4.15625 C 0.957031 -3.976562 0.96875 -3.878906 1.125 -3.859375 C 1.289062 -3.835938 1.519531 -3.867188 1.8125 -3.953125 C 2.101562 -4.046875 2.40625 -4.160156 2.71875 -4.296875 C 3.03125 -4.429688 3.28125 -4.5625 3.46875 -4.6875 C 3.832031 -4.925781 4 -5.144531 3.96875 -5.34375 C 3.957031 -5.476562 3.925781 -5.566406 3.875 -5.609375 C 3.820312 -5.648438 3.75 -5.675781 3.65625 -5.6875 C 3.28125 -5.707031 2.847656 -5.570312 2.359375 -5.28125 C 1.867188 -5 1.445312 -4.625 1.09375 -4.15625 Z M 1.09375 -4.15625"></path></g></g></g><g fill="#a65519" fill-opacity="1"><g transform="translate(15.798766, 20.025487)"><g><path d="M 12.09375 -4.875 C 12.164062 -4.789062 12.203125 -4.679688 12.203125 -4.546875 C 12.203125 -4.421875 12.164062 -4.3125 12.09375 -4.21875 C 11.601562 -3.738281 11.023438 -3.269531 10.359375 -2.8125 C 9.691406 -2.363281 8.96875 -1.960938 8.1875 -1.609375 C 7.414062 -1.253906 6.628906 -0.96875 5.828125 -0.75 C 5.035156 -0.539062 4.269531 -0.4375 3.53125 -0.4375 C 3.226562 -0.4375 2.9375 -0.457031 2.65625 -0.5 C 2.070312 -0.539062 1.53125 -0.71875 1.03125 -1.03125 C 0.539062 -1.34375 0.148438 -1.75 -0.140625 -2.25 C -0.203125 -2.351562 -0.21875 -2.460938 -0.1875 -2.578125 C -0.15625 -2.703125 -0.0859375 -2.800781 0.015625 -2.875 C 0.117188 -2.9375 0.234375 -2.953125 0.359375 -2.921875 C 0.484375 -2.898438 0.582031 -2.835938 0.65625 -2.734375 C 0.90625 -2.390625 1.21875 -2.128906 1.59375 -1.953125 C 1.96875 -1.773438 2.359375 -1.6875 2.765625 -1.6875 C 3.179688 -1.695312 3.578125 -1.804688 3.953125 -2.015625 C 4.203125 -2.160156 4.351562 -2.367188 4.40625 -2.640625 C 4.457031 -2.921875 4.382812 -3.164062 4.1875 -3.375 C 3.988281 -3.582031 3.765625 -3.765625 3.515625 -3.921875 C 3.023438 -4.210938 2.613281 -4.585938 2.28125 -5.046875 C 2.238281 -5.128906 2.171875 -5.175781 2.078125 -5.1875 C 1.984375 -5.195312 1.90625 -5.175781 1.84375 -5.125 L 0.515625 -3.859375 C 0.378906 -3.734375 0.222656 -3.695312 0.046875 -3.75 C -0.128906 -3.789062 -0.234375 -3.898438 -0.265625 -4.078125 C -0.304688 -4.253906 -0.257812 -4.410156 -0.125 -4.546875 L 2.5625 -7.078125 C 2.875 -7.441406 3.222656 -7.765625 3.609375 -8.046875 C 3.703125 -8.109375 3.804688 -8.132812 3.921875 -8.125 C 4.046875 -8.113281 4.148438 -8.0625 4.234375 -7.96875 C 4.316406 -7.875 4.351562 -7.765625 4.34375 -7.640625 C 4.332031 -7.515625 4.285156 -7.414062 4.203125 -7.34375 L 3.234375 -6.4375 C 3.085938 -6.257812 3.003906 -6.054688 2.984375 -5.828125 C 2.984375 -5.609375 3.097656 -5.40625 3.328125 -5.21875 C 3.554688 -5.03125 3.796875 -4.851562 4.046875 -4.6875 C 4.410156 -4.46875 4.722656 -4.195312 4.984375 -3.875 C 5.179688 -3.59375 5.289062 -3.273438 5.3125 -2.921875 C 5.34375 -2.578125 5.28125 -2.253906 5.125 -1.953125 C 5.070312 -1.859375 5.082031 -1.769531 5.15625 -1.6875 C 5.21875 -1.601562 5.300781 -1.570312 5.40625 -1.59375 C 7.695312 -2.144531 9.707031 -3.238281 11.4375 -4.875 C 11.519531 -4.96875 11.625 -5.015625 11.75 -5.015625 C 11.882812 -5.015625 12 -4.96875 12.09375 -4.875 Z M 12.09375 -4.875"></path></g></g></g><g fill="#a65519" fill-opacity="1"><g transform="translate(27.155264, 20.025487)"><g><path d="M 12.09375 -4.78125 C 12.1875 -4.695312 12.234375 -4.59375 12.234375 -4.46875 C 12.234375 -4.34375 12.1875 -4.234375 12.09375 -4.140625 C 12.050781 -4.097656 11.878906 -3.929688 11.578125 -3.640625 C 11.273438 -3.359375 10.867188 -3.015625 10.359375 -2.609375 C 9.859375 -2.203125 9.285156 -1.800781 8.640625 -1.40625 C 8.003906 -1.019531 7.335938 -0.691406 6.640625 -0.421875 C 5.941406 -0.148438 5.242188 -0.015625 4.546875 -0.015625 C 4.054688 -0.015625 3.578125 -0.101562 3.109375 -0.28125 C 2.054688 -0.675781 1.273438 -1.5625 0.765625 -2.9375 C 0.265625 -4.3125 0.0820312 -6.046875 0.21875 -8.140625 C 0.195312 -8.234375 0.15625 -8.3125 0.09375 -8.375 C 0.0195312 -8.4375 -0.0625 -8.457031 -0.15625 -8.4375 C -1.050781 -8.375 -1.859375 -8.316406 -2.578125 -8.265625 C -3.304688 -8.210938 -3.890625 -8.171875 -4.328125 -8.140625 C -4.765625 -8.109375 -4.992188 -8.09375 -5.015625 -8.09375 L -5.046875 -8.09375 C -5.179688 -8.082031 -5.296875 -8.117188 -5.390625 -8.203125 C -5.484375 -8.296875 -5.53125 -8.40625 -5.53125 -8.53125 C -5.53125 -8.65625 -5.488281 -8.765625 -5.40625 -8.859375 C -5.320312 -8.960938 -5.210938 -9.015625 -5.078125 -9.015625 C -5.054688 -9.015625 -4.816406 -9.03125 -4.359375 -9.0625 C -3.898438 -9.09375 -3.289062 -9.140625 -2.53125 -9.203125 C -1.769531 -9.265625 -0.925781 -9.320312 0 -9.375 C 0.101562 -9.382812 0.1875 -9.4375 0.25 -9.53125 C 0.320312 -9.625 0.367188 -9.738281 0.390625 -9.875 C 0.492188 -10.5625 0.628906 -11.265625 0.796875 -11.984375 C 0.972656 -12.710938 1.171875 -13.382812 1.390625 -14 C 1.609375 -14.625 1.859375 -15.140625 2.140625 -15.546875 C 2.421875 -15.953125 2.722656 -16.1875 3.046875 -16.25 C 3.171875 -16.28125 3.34375 -16.257812 3.5625 -16.1875 C 3.78125 -16.125 3.976562 -15.910156 4.15625 -15.546875 C 4.28125 -15.304688 4.304688 -14.894531 4.234375 -14.3125 C 4.171875 -13.726562 4.03125 -13.054688 3.8125 -12.296875 C 3.601562 -11.535156 3.359375 -10.75 3.078125 -9.9375 C 3.015625 -9.789062 3.007812 -9.695312 3.0625 -9.65625 C 3.125 -9.613281 3.171875 -9.59375 3.203125 -9.59375 C 4.335938 -9.65625 5.414062 -9.707031 6.4375 -9.75 C 7.46875 -9.800781 8.328125 -9.828125 9.015625 -9.828125 C 9.140625 -9.828125 9.242188 -9.78125 9.328125 -9.6875 C 9.421875 -9.59375 9.46875 -9.488281 9.46875 -9.375 C 9.46875 -9.25 9.421875 -9.140625 9.328125 -9.046875 C 9.242188 -8.953125 9.140625 -8.90625 9.015625 -8.90625 C 8.304688 -8.90625 7.398438 -8.882812 6.296875 -8.84375 C 5.203125 -8.800781 4.066406 -8.734375 2.890625 -8.640625 C 2.785156 -8.640625 2.710938 -8.625 2.671875 -8.59375 C 2.628906 -8.570312 2.585938 -8.519531 2.546875 -8.4375 C 2.304688 -7.71875 2.0625 -7.046875 1.8125 -6.421875 C 1.570312 -5.804688 1.378906 -5.3125 1.234375 -4.9375 C 1.304688 -4.382812 1.425781 -3.851562 1.59375 -3.34375 C 1.757812 -2.84375 1.992188 -2.394531 2.296875 -2 C 2.597656 -1.601562 2.984375 -1.316406 3.453125 -1.140625 C 3.972656 -0.941406 4.53125 -0.890625 5.125 -0.984375 C 5.726562 -1.078125 6.328125 -1.257812 6.921875 -1.53125 C 7.515625 -1.8125 8.078125 -2.128906 8.609375 -2.484375 C 9.140625 -2.847656 9.613281 -3.203125 10.03125 -3.546875 C 10.457031 -3.898438 10.796875 -4.191406 11.046875 -4.421875 C 11.296875 -4.648438 11.425781 -4.769531 11.4375 -4.78125 C 11.519531 -4.875 11.625 -4.921875 11.75 -4.921875 C 11.882812 -4.921875 12 -4.875 12.09375 -4.78125 Z M 1.3125 -9.890625 C 1.300781 -9.816406 1.296875 -9.726562 1.296875 -9.625 C 1.296875 -9.53125 1.34375 -9.484375 1.4375 -9.484375 C 1.53125 -9.484375 1.625 -9.488281 1.71875 -9.5 C 1.894531 -9.507812 2.003906 -9.609375 2.046875 -9.796875 C 2.347656 -10.679688 2.609375 -11.5 2.828125 -12.25 C 3.046875 -13.007812 3.203125 -13.640625 3.296875 -14.140625 C 3.390625 -14.648438 3.398438 -14.976562 3.328125 -15.125 C 3.304688 -15.195312 3.257812 -15.242188 3.1875 -15.265625 C 3.113281 -15.285156 3.054688 -15.269531 3.015625 -15.21875 C 2.847656 -15.039062 2.65625 -14.695312 2.4375 -14.1875 C 2.226562 -13.6875 2.019531 -13.066406 1.8125 -12.328125 C 1.613281 -11.585938 1.445312 -10.773438 1.3125 -9.890625 Z M 1.09375 -7.140625 C 1.132812 -7.140625 1.191406 -7.203125 1.265625 -7.328125 C 1.347656 -7.460938 1.421875 -7.617188 1.484375 -7.796875 C 1.546875 -7.972656 1.59375 -8.132812 1.625 -8.28125 C 1.65625 -8.4375 1.65625 -8.53125 1.625 -8.5625 C 1.457031 -8.644531 1.300781 -8.632812 1.15625 -8.53125 C 1.113281 -8.488281 1.078125 -8.390625 1.046875 -8.234375 C 1.023438 -8.085938 1.007812 -7.929688 1 -7.765625 C 0.988281 -7.597656 0.988281 -7.453125 1 -7.328125 C 1.019531 -7.203125 1.050781 -7.140625 1.09375 -7.140625 Z M 1.09375 -7.140625"></path></g></g></g><g fill="#a65519" fill-opacity="1"><g transform="translate(38.388698, 20.025487)"><g><path d="M 13.875 -4.21875 C 13.957031 -4.125 13.992188 -4.007812 13.984375 -3.875 C 13.984375 -3.75 13.9375 -3.648438 13.84375 -3.578125 C 13.8125 -3.535156 13.644531 -3.394531 13.34375 -3.15625 C 13.050781 -2.925781 12.660156 -2.644531 12.171875 -2.3125 C 11.691406 -1.988281 11.148438 -1.675781 10.546875 -1.375 C 9.953125 -1.070312 9.328125 -0.835938 8.671875 -0.671875 C 8.023438 -0.503906 7.398438 -0.46875 6.796875 -0.5625 C 6.253906 -0.65625 5.757812 -0.859375 5.3125 -1.171875 C 4.863281 -1.484375 4.507812 -1.875 4.25 -2.34375 C 4.050781 -2.707031 3.753906 -2.90625 3.359375 -2.9375 C 3.191406 -2.945312 2.953125 -2.890625 2.640625 -2.765625 C 2.335938 -2.648438 1.957031 -2.378906 1.5 -1.953125 C 1.039062 -1.523438 0.507812 -0.878906 -0.09375 -0.015625 C -0.21875 0.171875 -0.390625 0.222656 -0.609375 0.140625 C -0.835938 0.0546875 -0.941406 -0.0976562 -0.921875 -0.328125 C -0.878906 -0.773438 -0.8125 -1.289062 -0.71875 -1.875 C -0.625 -2.46875 -0.515625 -3.09375 -0.390625 -3.75 C -0.503906 -3.925781 -0.5 -4.101562 -0.375 -4.28125 L -0.25 -4.453125 C -0.101562 -5.171875 0.0546875 -5.90625 0.234375 -6.65625 C 0.421875 -7.40625 0.617188 -8.128906 0.828125 -8.828125 C 1.148438 -10.015625 1.453125 -10.988281 1.734375 -11.75 C 2.015625 -12.507812 2.273438 -13.113281 2.515625 -13.5625 C 2.753906 -14.019531 2.960938 -14.359375 3.140625 -14.578125 C 3.316406 -14.796875 3.46875 -14.9375 3.59375 -15 C 3.71875 -15.070312 3.816406 -15.117188 3.890625 -15.140625 C 4.085938 -15.203125 4.28125 -15.203125 4.46875 -15.140625 C 4.65625 -15.078125 4.8125 -14.960938 4.9375 -14.796875 C 5.21875 -14.453125 5.347656 -14 5.328125 -13.4375 C 5.316406 -12.882812 5.191406 -12.269531 4.953125 -11.59375 C 4.710938 -10.914062 4.40625 -10.210938 4.03125 -9.484375 C 3.664062 -8.765625 3.273438 -8.066406 2.859375 -7.390625 C 2.441406 -6.722656 2.039062 -6.109375 1.65625 -5.546875 C 1.28125 -4.992188 0.96875 -4.546875 0.71875 -4.203125 C 0.707031 -4.203125 0.679688 -4.160156 0.640625 -4.078125 C 0.597656 -3.992188 0.578125 -3.96875 0.578125 -4 C 0.566406 -3.882812 0.539062 -3.726562 0.5 -3.53125 C 0.457031 -3.34375 0.414062 -3.148438 0.375 -2.953125 C 0.34375 -2.765625 0.316406 -2.613281 0.296875 -2.5 C 0.285156 -2.414062 0.320312 -2.359375 0.40625 -2.328125 C 0.476562 -2.285156 0.539062 -2.296875 0.59375 -2.359375 C 1.613281 -3.421875 2.5625 -3.921875 3.4375 -3.859375 C 4.15625 -3.796875 4.691406 -3.441406 5.046875 -2.796875 C 5.460938 -2.046875 6.09375 -1.609375 6.9375 -1.484375 C 7.457031 -1.398438 8.007812 -1.4375 8.59375 -1.59375 C 9.175781 -1.757812 9.738281 -1.984375 10.28125 -2.265625 C 10.832031 -2.546875 11.328125 -2.835938 11.765625 -3.140625 C 12.203125 -3.453125 12.554688 -3.710938 12.828125 -3.921875 C 13.097656 -4.128906 13.234375 -4.238281 13.234375 -4.25 C 13.328125 -4.332031 13.4375 -4.367188 13.5625 -4.359375 C 13.695312 -4.359375 13.800781 -4.3125 13.875 -4.21875 Z M 4.15625 -14.265625 C 4.050781 -14.265625 3.910156 -14.128906 3.734375 -13.859375 C 3.566406 -13.585938 3.375 -13.226562 3.15625 -12.78125 C 2.945312 -12.332031 2.734375 -11.832031 2.515625 -11.28125 C 2.304688 -10.738281 2.109375 -10.191406 1.921875 -9.640625 C 1.734375 -9.085938 1.566406 -8.578125 1.421875 -8.109375 C 1.285156 -7.640625 1.191406 -7.253906 1.140625 -6.953125 C 1.085938 -6.660156 1.085938 -6.492188 1.140625 -6.453125 C 1.203125 -6.421875 1.316406 -6.519531 1.484375 -6.75 C 1.648438 -6.976562 1.847656 -7.296875 2.078125 -7.703125 C 2.304688 -8.117188 2.546875 -8.582031 2.796875 -9.09375 C 3.054688 -9.613281 3.289062 -10.140625 3.5 -10.671875 C 3.71875 -11.210938 3.90625 -11.726562 4.0625 -12.21875 C 4.21875 -12.707031 4.316406 -13.125 4.359375 -13.46875 C 4.398438 -13.820312 4.351562 -14.070312 4.21875 -14.21875 C 4.207031 -14.226562 4.195312 -14.238281 4.1875 -14.25 C 4.1875 -14.257812 4.175781 -14.265625 4.15625 -14.265625 Z M 4.15625 -14.265625"></path></g></g></g><g fill="#a65519" fill-opacity="1"><g transform="translate(51.678962, 20.025487)"><g><path d="M 14.765625 -4.515625 C 14.847656 -4.421875 14.878906 -4.3125 14.859375 -4.1875 C 14.847656 -4.0625 14.789062 -3.957031 14.6875 -3.875 C 14.644531 -3.832031 14.4375 -3.671875 14.0625 -3.390625 C 13.6875 -3.117188 13.179688 -2.789062 12.546875 -2.40625 C 11.910156 -2.03125 11.175781 -1.65625 10.34375 -1.28125 C 9.507812 -0.90625 8.617188 -0.59375 7.671875 -0.34375 C 6.722656 -0.101562 5.742188 0.015625 4.734375 0.015625 C 3.535156 0.0234375 2.382812 -0.191406 1.28125 -0.640625 C 0.675781 -0.878906 0.25 -1.160156 0 -1.484375 C -0.25 -1.816406 -0.390625 -2.140625 -0.421875 -2.453125 C -0.453125 -2.773438 -0.445312 -3.046875 -0.40625 -3.265625 C -0.300781 -3.703125 -0.0976562 -4.125 0.203125 -4.53125 C 0.515625 -4.9375 0.875 -5.300781 1.28125 -5.625 C 1.695312 -5.945312 2.117188 -6.195312 2.546875 -6.375 C 2.972656 -6.550781 3.363281 -6.625 3.71875 -6.59375 C 4.03125 -6.59375 4.300781 -6.476562 4.53125 -6.25 C 4.757812 -6.03125 4.882812 -5.757812 4.90625 -5.4375 C 4.914062 -5.25 4.867188 -5.015625 4.765625 -4.734375 C 4.660156 -4.460938 4.390625 -4.1875 3.953125 -3.90625 C 2.960938 -3.28125 1.875 -3.003906 0.6875 -3.078125 C 0.625 -3.085938 0.570312 -3.078125 0.53125 -3.046875 C 0.476562 -3.003906 0.457031 -2.957031 0.46875 -2.90625 C 0.457031 -2.800781 0.46875 -2.664062 0.5 -2.5 C 0.539062 -2.332031 0.644531 -2.160156 0.8125 -1.984375 C 0.976562 -1.804688 1.253906 -1.644531 1.640625 -1.5 C 2.429688 -1.15625 3.242188 -0.957031 4.078125 -0.90625 C 4.921875 -0.863281 5.75 -0.914062 6.5625 -1.0625 C 7.375 -1.21875 8.148438 -1.429688 8.890625 -1.703125 C 9.640625 -1.984375 10.328125 -2.285156 10.953125 -2.609375 C 11.578125 -2.941406 12.125 -3.253906 12.59375 -3.546875 C 13.0625 -3.847656 13.429688 -4.097656 13.703125 -4.296875 C 13.972656 -4.492188 14.109375 -4.59375 14.109375 -4.59375 C 14.210938 -4.675781 14.332031 -4.710938 14.46875 -4.703125 C 14.582031 -4.691406 14.679688 -4.628906 14.765625 -4.515625 Z M 1.09375 -4.15625 C 0.957031 -3.976562 0.96875 -3.878906 1.125 -3.859375 C 1.289062 -3.835938 1.519531 -3.867188 1.8125 -3.953125 C 2.101562 -4.046875 2.40625 -4.160156 2.71875 -4.296875 C 3.03125 -4.429688 3.28125 -4.5625 3.46875 -4.6875 C 3.832031 -4.925781 4 -5.144531 3.96875 -5.34375 C 3.957031 -5.476562 3.925781 -5.566406 3.875 -5.609375 C 3.820312 -5.648438 3.75 -5.675781 3.65625 -5.6875 C 3.28125 -5.707031 2.847656 -5.570312 2.359375 -5.28125 C 1.867188 -5 1.445312 -4.625 1.09375 -4.15625 Z M 1.09375 -4.15625"></path></g></g></g><g fill="#a65519" fill-opacity="1"><g transform="translate(65.76032, 20.025487)"><g><path d="M 12.09375 -4.78125 C 12.1875 -4.695312 12.234375 -4.59375 12.234375 -4.46875 C 12.234375 -4.34375 12.1875 -4.234375 12.09375 -4.140625 C 12.050781 -4.097656 11.878906 -3.929688 11.578125 -3.640625 C 11.273438 -3.359375 10.867188 -3.015625 10.359375 -2.609375 C 9.859375 -2.203125 9.285156 -1.800781 8.640625 -1.40625 C 8.003906 -1.019531 7.335938 -0.691406 6.640625 -0.421875 C 5.941406 -0.148438 5.242188 -0.015625 4.546875 -0.015625 C 4.054688 -0.015625 3.578125 -0.101562 3.109375 -0.28125 C 2.054688 -0.675781 1.273438 -1.5625 0.765625 -2.9375 C 0.265625 -4.3125 0.0820312 -6.046875 0.21875 -8.140625 C 0.195312 -8.234375 0.15625 -8.3125 0.09375 -8.375 C 0.0195312 -8.4375 -0.0625 -8.457031 -0.15625 -8.4375 C -1.050781 -8.375 -1.859375 -8.316406 -2.578125 -8.265625 C -3.304688 -8.210938 -3.890625 -8.171875 -4.328125 -8.140625 C -4.765625 -8.109375 -4.992188 -8.09375 -5.015625 -8.09375 L -5.046875 -8.09375 C -5.179688 -8.082031 -5.296875 -8.117188 -5.390625 -8.203125 C -5.484375 -8.296875 -5.53125 -8.40625 -5.53125 -8.53125 C -5.53125 -8.65625 -5.488281 -8.765625 -5.40625 -8.859375 C -5.320312 -8.960938 -5.210938 -9.015625 -5.078125 -9.015625 C -5.054688 -9.015625 -4.816406 -9.03125 -4.359375 -9.0625 C -3.898438 -9.09375 -3.289062 -9.140625 -2.53125 -9.203125 C -1.769531 -9.265625 -0.925781 -9.320312 0 -9.375 C 0.101562 -9.382812 0.1875 -9.4375 0.25 -9.53125 C 0.320312 -9.625 0.367188 -9.738281 0.390625 -9.875 C 0.492188 -10.5625 0.628906 -11.265625 0.796875 -11.984375 C 0.972656 -12.710938 1.171875 -13.382812 1.390625 -14 C 1.609375 -14.625 1.859375 -15.140625 2.140625 -15.546875 C 2.421875 -15.953125 2.722656 -16.1875 3.046875 -16.25 C 3.171875 -16.28125 3.34375 -16.257812 3.5625 -16.1875 C 3.78125 -16.125 3.976562 -15.910156 4.15625 -15.546875 C 4.28125 -15.304688 4.304688 -14.894531 4.234375 -14.3125 C 4.171875 -13.726562 4.03125 -13.054688 3.8125 -12.296875 C 3.601562 -11.535156 3.359375 -10.75 3.078125 -9.9375 C 3.015625 -9.789062 3.007812 -9.695312 3.0625 -9.65625 C 3.125 -9.613281 3.171875 -9.59375 3.203125 -9.59375 C 4.335938 -9.65625 5.414062 -9.707031 6.4375 -9.75 C 7.46875 -9.800781 8.328125 -9.828125 9.015625 -9.828125 C 9.140625 -9.828125 9.242188 -9.78125 9.328125 -9.6875 C 9.421875 -9.59375 9.46875 -9.488281 9.46875 -9.375 C 9.46875 -9.25 9.421875 -9.140625 9.328125 -9.046875 C 9.242188 -8.953125 9.140625 -8.90625 9.015625 -8.90625 C 8.304688 -8.90625 7.398438 -8.882812 6.296875 -8.84375 C 5.203125 -8.800781 4.066406 -8.734375 2.890625 -8.640625 C 2.785156 -8.640625 2.710938 -8.625 2.671875 -8.59375 C 2.628906 -8.570312 2.585938 -8.519531 2.546875 -8.4375 C 2.304688 -7.71875 2.0625 -7.046875 1.8125 -6.421875 C 1.570312 -5.804688 1.378906 -5.3125 1.234375 -4.9375 C 1.304688 -4.382812 1.425781 -3.851562 1.59375 -3.34375 C 1.757812 -2.84375 1.992188 -2.394531 2.296875 -2 C 2.597656 -1.601562 2.984375 -1.316406 3.453125 -1.140625 C 3.972656 -0.941406 4.53125 -0.890625 5.125 -0.984375 C 5.726562 -1.078125 6.328125 -1.257812 6.921875 -1.53125 C 7.515625 -1.8125 8.078125 -2.128906 8.609375 -2.484375 C 9.140625 -2.847656 9.613281 -3.203125 10.03125 -3.546875 C 10.457031 -3.898438 10.796875 -4.191406 11.046875 -4.421875 C 11.296875 -4.648438 11.425781 -4.769531 11.4375 -4.78125 C 11.519531 -4.875 11.625 -4.921875 11.75 -4.921875 C 11.882812 -4.921875 12 -4.875 12.09375 -4.78125 Z M 1.3125 -9.890625 C 1.300781 -9.816406 1.296875 -9.726562 1.296875 -9.625 C 1.296875 -9.53125 1.34375 -9.484375 1.4375 -9.484375 C 1.53125 -9.484375 1.625 -9.488281 1.71875 -9.5 C 1.894531 -9.507812 2.003906 -9.609375 2.046875 -9.796875 C 2.347656 -10.679688 2.609375 -11.5 2.828125 -12.25 C 3.046875 -13.007812 3.203125 -13.640625 3.296875 -14.140625 C 3.390625 -14.648438 3.398438 -14.976562 3.328125 -15.125 C 3.304688 -15.195312 3.257812 -15.242188 3.1875 -15.265625 C 3.113281 -15.285156 3.054688 -15.269531 3.015625 -15.21875 C 2.847656 -15.039062 2.65625 -14.695312 2.4375 -14.1875 C 2.226562 -13.6875 2.019531 -13.066406 1.8125 -12.328125 C 1.613281 -11.585938 1.445312 -10.773438 1.3125 -9.890625 Z M 1.09375 -7.140625 C 1.132812 -7.140625 1.191406 -7.203125 1.265625 -7.328125 C 1.347656 -7.460938 1.421875 -7.617188 1.484375 -7.796875 C 1.546875 -7.972656 1.59375 -8.132812 1.625 -8.28125 C 1.65625 -8.4375 1.65625 -8.53125 1.625 -8.5625 C 1.457031 -8.644531 1.300781 -8.632812 1.15625 -8.53125 C 1.113281 -8.488281 1.078125 -8.390625 1.046875 -8.234375 C 1.023438 -8.085938 1.007812 -7.929688 1 -7.765625 C 0.988281 -7.597656 0.988281 -7.453125 1 -7.328125 C 1.019531 -7.203125 1.050781 -7.140625 1.09375 -7.140625 Z M 1.09375 -7.140625"></path></g></g></g><g fill="#a65519" fill-opacity="1"><g transform="translate(76.993754, 20.025487)"><g><path d="M 11.40625 -4.75 C 11.5 -4.664062 11.546875 -4.5625 11.546875 -4.4375 C 11.546875 -4.300781 11.503906 -4.1875 11.421875 -4.09375 C 11.367188 -4.0625 11.1875 -3.898438 10.875 -3.609375 C 10.570312 -3.316406 10.164062 -2.96875 9.65625 -2.5625 C 9.144531 -2.15625 8.5625 -1.75 7.90625 -1.34375 C 7.25 -0.945312 6.546875 -0.617188 5.796875 -0.359375 C 5.054688 -0.0976562 4.304688 0.03125 3.546875 0.03125 C 2.472656 0.0390625 1.507812 -0.273438 0.65625 -0.921875 C 0.300781 -1.171875 0.0625 -1.472656 -0.0625 -1.828125 C -0.195312 -2.179688 -0.253906 -2.546875 -0.234375 -2.921875 C -0.222656 -3.296875 -0.164062 -3.644531 -0.0625 -3.96875 C 0.03125 -4.300781 0.117188 -4.570312 0.203125 -4.78125 C 0.285156 -5 0.335938 -5.117188 0.359375 -5.140625 C 0.421875 -5.242188 0.507812 -5.3125 0.625 -5.34375 C 0.75 -5.382812 0.863281 -5.375 0.96875 -5.3125 C 1.082031 -5.25 1.160156 -5.160156 1.203125 -5.046875 C 1.242188 -4.929688 1.234375 -4.820312 1.171875 -4.71875 C 1.171875 -4.707031 1.132812 -4.625 1.0625 -4.46875 C 1 -4.3125 0.925781 -4.109375 0.84375 -3.859375 C 0.769531 -3.617188 0.71875 -3.359375 0.6875 -3.078125 C 0.664062 -2.804688 0.6875 -2.539062 0.75 -2.28125 C 0.820312 -2.03125 0.972656 -1.820312 1.203125 -1.65625 C 1.734375 -1.257812 2.300781 -1.019531 2.90625 -0.9375 C 3.507812 -0.851562 4.113281 -0.882812 4.71875 -1.03125 C 5.332031 -1.175781 5.929688 -1.390625 6.515625 -1.671875 C 7.109375 -1.960938 7.65625 -2.28125 8.15625 -2.625 C 8.664062 -2.976562 9.113281 -3.3125 9.5 -3.625 C 9.882812 -3.9375 10.1875 -4.195312 10.40625 -4.40625 C 10.625 -4.625 10.738281 -4.738281 10.75 -4.75 C 10.84375 -4.84375 10.953125 -4.890625 11.078125 -4.890625 C 11.203125 -4.890625 11.3125 -4.84375 11.40625 -4.75 Z M 0.15625 -6.140625 C -0.0703125 -6.140625 -0.21875 -6.253906 -0.28125 -6.484375 C -0.34375 -6.722656 -0.265625 -6.898438 -0.046875 -7.015625 C 0.273438 -7.179688 0.566406 -7.398438 0.828125 -7.671875 C 0.921875 -7.765625 1.03125 -7.8125 1.15625 -7.8125 C 1.28125 -7.8125 1.390625 -7.769531 1.484375 -7.6875 C 1.578125 -7.59375 1.625 -7.484375 1.625 -7.359375 C 1.632812 -7.234375 1.59375 -7.125 1.5 -7.03125 C 1.164062 -6.695312 0.796875 -6.421875 0.390625 -6.203125 C 0.316406 -6.160156 0.238281 -6.140625 0.15625 -6.140625 Z M 0.15625 -6.140625"></path></g></g></g><g fill="#a65519" fill-opacity="1"><g transform="translate(87.787701, 20.025487)"><g><path d="M 14.828125 -4.40625 C 14.921875 -4.300781 14.960938 -4.1875 14.953125 -4.0625 C 14.953125 -3.9375 14.898438 -3.832031 14.796875 -3.75 C 13.367188 -2.550781 11.773438 -1.628906 10.015625 -0.984375 C 8.253906 -0.335938 6.4375 -0.0078125 4.5625 0 C 3.644531 0 2.734375 -0.0820312 1.828125 -0.25 C 1.078125 -0.375 0.519531 -0.570312 0.15625 -0.84375 C -0.207031 -1.113281 -0.445312 -1.394531 -0.5625 -1.6875 C -0.6875 -1.988281 -0.75 -2.253906 -0.75 -2.484375 C -0.75 -2.941406 -0.617188 -3.398438 -0.359375 -3.859375 C -0.109375 -4.328125 0.21875 -4.757812 0.625 -5.15625 C 1.03125 -5.550781 1.457031 -5.882812 1.90625 -6.15625 C 2.363281 -6.425781 2.78125 -6.597656 3.15625 -6.671875 C 3.863281 -6.867188 4.503906 -6.742188 5.078125 -6.296875 C 5.566406 -5.835938 5.8125 -5.273438 5.8125 -4.609375 C 5.789062 -4.484375 5.738281 -4.375 5.65625 -4.28125 C 5.570312 -4.195312 5.460938 -4.15625 5.328125 -4.15625 C 5.203125 -4.15625 5.09375 -4.203125 5 -4.296875 C 4.914062 -4.390625 4.875 -4.5 4.875 -4.625 C 4.882812 -5 4.753906 -5.320312 4.484375 -5.59375 C 4.117188 -5.832031 3.734375 -5.882812 3.328125 -5.75 C 3.003906 -5.695312 2.660156 -5.554688 2.296875 -5.328125 C 1.941406 -5.097656 1.601562 -4.820312 1.28125 -4.5 C 0.957031 -4.175781 0.6875 -3.832031 0.46875 -3.46875 C 0.257812 -3.113281 0.15625 -2.785156 0.15625 -2.484375 C 0.164062 -1.816406 0.773438 -1.367188 1.984375 -1.140625 C 3.160156 -0.929688 4.28125 -0.859375 5.34375 -0.921875 C 6.40625 -0.992188 7.382812 -1.15625 8.28125 -1.40625 C 9.1875 -1.664062 10 -1.960938 10.71875 -2.296875 C 11.445312 -2.628906 12.066406 -2.957031 12.578125 -3.28125 C 13.085938 -3.601562 13.476562 -3.875 13.75 -4.09375 C 14.019531 -4.3125 14.164062 -4.425781 14.1875 -4.4375 C 14.28125 -4.519531 14.390625 -4.554688 14.515625 -4.546875 C 14.640625 -4.546875 14.742188 -4.5 14.828125 -4.40625 Z M 14.828125 -4.40625"></path></g></g></g><g fill="#a65519" fill-opacity="1"><g transform="translate(101.869058, 20.025487)"><g><path d="M 12.09375 -4.875 C 12.164062 -4.789062 12.203125 -4.679688 12.203125 -4.546875 C 12.203125 -4.421875 12.164062 -4.3125 12.09375 -4.21875 C 11.601562 -3.738281 11.023438 -3.269531 10.359375 -2.8125 C 9.691406 -2.363281 8.96875 -1.960938 8.1875 -1.609375 C 7.414062 -1.253906 6.628906 -0.96875 5.828125 -0.75 C 5.035156 -0.539062 4.269531 -0.4375 3.53125 -0.4375 C 3.226562 -0.4375 2.9375 -0.457031 2.65625 -0.5 C 2.070312 -0.539062 1.53125 -0.71875 1.03125 -1.03125 C 0.539062 -1.34375 0.148438 -1.75 -0.140625 -2.25 C -0.203125 -2.351562 -0.21875 -2.460938 -0.1875 -2.578125 C -0.15625 -2.703125 -0.0859375 -2.800781 0.015625 -2.875 C 0.117188 -2.9375 0.234375 -2.953125 0.359375 -2.921875 C 0.484375 -2.898438 0.582031 -2.835938 0.65625 -2.734375 C 0.90625 -2.390625 1.21875 -2.128906 1.59375 -1.953125 C 1.96875 -1.773438 2.359375 -1.6875 2.765625 -1.6875 C 3.179688 -1.695312 3.578125 -1.804688 3.953125 -2.015625 C 4.203125 -2.160156 4.351562 -2.367188 4.40625 -2.640625 C 4.457031 -2.921875 4.382812 -3.164062 4.1875 -3.375 C 3.988281 -3.582031 3.765625 -3.765625 3.515625 -3.921875 C 3.023438 -4.210938 2.613281 -4.585938 2.28125 -5.046875 C 2.238281 -5.128906 2.171875 -5.175781 2.078125 -5.1875 C 1.984375 -5.195312 1.90625 -5.175781 1.84375 -5.125 L 0.515625 -3.859375 C 0.378906 -3.734375 0.222656 -3.695312 0.046875 -3.75 C -0.128906 -3.789062 -0.234375 -3.898438 -0.265625 -4.078125 C -0.304688 -4.253906 -0.257812 -4.410156 -0.125 -4.546875 L 2.5625 -7.078125 C 2.875 -7.441406 3.222656 -7.765625 3.609375 -8.046875 C 3.703125 -8.109375 3.804688 -8.132812 3.921875 -8.125 C 4.046875 -8.113281 4.148438 -8.0625 4.234375 -7.96875 C 4.316406 -7.875 4.351562 -7.765625 4.34375 -7.640625 C 4.332031 -7.515625 4.285156 -7.414062 4.203125 -7.34375 L 3.234375 -6.4375 C 3.085938 -6.257812 3.003906 -6.054688 2.984375 -5.828125 C 2.984375 -5.609375 3.097656 -5.40625 3.328125 -5.21875 C 3.554688 -5.03125 3.796875 -4.851562 4.046875 -4.6875 C 4.410156 -4.46875 4.722656 -4.195312 4.984375 -3.875 C 5.179688 -3.59375 5.289062 -3.273438 5.3125 -2.921875 C 5.34375 -2.578125 5.28125 -2.253906 5.125 -1.953125 C 5.070312 -1.859375 5.082031 -1.769531 5.15625 -1.6875 C 5.21875 -1.601562 5.300781 -1.570312 5.40625 -1.59375 C 7.695312 -2.144531 9.707031 -3.238281 11.4375 -4.875 C 11.519531 -4.96875 11.625 -5.015625 11.75 -5.015625 C 11.882812 -5.015625 12 -4.96875 12.09375 -4.875 Z M 12.09375 -4.875"></path></g></g></g></g></g></g></g></g></svg>