<svg xmlns="http://www.w3.org/2000/svg" xmlns:xlink="http://www.w3.org/1999/xlink" width="336" zoomAndPan="magnify" viewBox="0 0 252 143.999998" height="192" preserveAspectRatio="xMidYMid meet" version="1.0"><defs><g></g><clipPath id="9b65081e04"><path d="M 169 99 L 171 99 L 171 113.917969 L 169 113.917969 Z M 169 99" clip-rule="nonzero"></path></clipPath><clipPath id="b5a6391f20"><path d="M 169 29.917969 L 171 29.917969 L 171 45 L 169 45 Z M 169 29.917969" clip-rule="nonzero"></path></clipPath><clipPath id="deaefd3a07"><path d="M 197 71 L 211.972656 71 L 211.972656 73 L 197 73 Z M 197 71" clip-rule="nonzero"></path></clipPath><clipPath id="dc7f30f4db"><path d="M 139.972656 42 L 151 42 L 151 53 L 139.972656 53 Z M 139.972656 42" clip-rule="nonzero"></path></clipPath><clipPath id="22feb986d7"><rect x="0" width="127" y="0" height="21"></rect></clipPath><clipPath id="29994fc6da"><path d="M 0.0390625 5 L 6 5 L 6 8 L 0.0390625 8 Z M 0.0390625 5" clip-rule="nonzero"></path></clipPath><clipPath id="e105007fe3"><path d="M 35 4 L 40.839844 4 L 40.839844 8 L 35 8 Z M 35 4" clip-rule="nonzero"></path></clipPath><clipPath id="0c7efd8468"><rect x="0" width="41" y="0" height="11"></rect></clipPath></defs><g clip-path="url(#9b65081e04)"><path fill="#a65519" d="M 169.800781 99.722656 C 169.726562 99.722656 169.660156 99.75 169.605469 99.800781 C 169.554688 99.855469 169.527344 99.917969 169.527344 99.996094 L 169.527344 113.761719 C 169.527344 113.839844 169.554688 113.902344 169.609375 113.957031 C 169.660156 114.007812 169.726562 114.035156 169.800781 114.035156 C 169.875 114.035156 169.9375 114.007812 169.992188 113.957031 C 170.042969 113.902344 170.070312 113.839844 170.070312 113.761719 L 170.070312 99.996094 C 170.070312 99.917969 170.046875 99.855469 169.992188 99.800781 C 169.9375 99.75 169.875 99.722656 169.800781 99.722656 Z M 169.800781 99.722656" fill-opacity="1" fill-rule="nonzero"></path></g><g clip-path="url(#b5a6391f20)"><path fill="#a65519" d="M 169.78125 44.332031 C 169.855469 44.332031 169.921875 44.304688 169.972656 44.253906 C 170.027344 44.199219 170.054688 44.136719 170.054688 44.0625 L 170.054688 30.265625 C 170.058594 30.183594 170.035156 30.117188 169.980469 30.058594 C 169.929688 30 169.863281 29.972656 169.78125 29.972656 C 169.703125 29.972656 169.636719 30 169.582031 30.058594 C 169.527344 30.117188 169.503906 30.183594 169.511719 30.265625 L 169.511719 44.0625 C 169.511719 44.136719 169.539062 44.199219 169.589844 44.253906 C 169.644531 44.304688 169.707031 44.332031 169.78125 44.332031 Z M 169.78125 44.332031" fill-opacity="1" fill-rule="nonzero"></path></g><g clip-path="url(#deaefd3a07)"><path fill="#a65519" d="M 211.535156 71.726562 L 197.757812 71.726562 C 197.675781 71.71875 197.609375 71.742188 197.550781 71.796875 C 197.492188 71.851562 197.464844 71.917969 197.464844 71.996094 C 197.464844 72.078125 197.492188 72.144531 197.550781 72.195312 C 197.609375 72.25 197.675781 72.273438 197.757812 72.269531 L 211.539062 72.269531 C 211.613281 72.269531 211.675781 72.242188 211.730469 72.1875 C 211.785156 72.136719 211.808594 72.070312 211.808594 71.996094 C 211.808594 71.921875 211.785156 71.855469 211.730469 71.804688 C 211.675781 71.75 211.613281 71.722656 211.539062 71.722656 Z M 211.535156 71.726562" fill-opacity="1" fill-rule="nonzero"></path></g><path fill="#a65519" d="M 150.324219 91.761719 C 150.324219 91.640625 150.265625 91.558594 150.15625 91.511719 C 150.042969 91.464844 149.945312 91.484375 149.859375 91.570312 L 140.089844 101.351562 C 140.003906 101.4375 139.984375 101.539062 140.03125 101.648438 C 140.078125 101.761719 140.160156 101.816406 140.28125 101.816406 C 140.355469 101.816406 140.417969 101.789062 140.472656 101.738281 L 150.246094 91.949219 C 150.296875 91.898438 150.324219 91.835938 150.324219 91.761719 Z M 150.324219 91.761719" fill-opacity="1" fill-rule="nonzero"></path><path fill="#a65519" d="M 189.324219 52.464844 C 189.378906 52.519531 189.441406 52.542969 189.515625 52.542969 C 189.589844 52.542969 189.652344 52.519531 189.707031 52.464844 L 199.492188 42.675781 C 199.546875 42.621094 199.578125 42.558594 199.578125 42.480469 C 199.578125 42.402344 199.550781 42.339844 199.5 42.285156 C 199.445312 42.230469 199.378906 42.203125 199.300781 42.203125 C 199.226562 42.207031 199.160156 42.234375 199.109375 42.289062 L 189.324219 52.082031 C 189.269531 52.132812 189.246094 52.199219 189.246094 52.273438 C 189.246094 52.347656 189.269531 52.414062 189.324219 52.464844 Z M 189.324219 52.464844" fill-opacity="1" fill-rule="nonzero"></path><g clip-path="url(#dc7f30f4db)"><path fill="#a65519" d="M 149.867188 52.492188 C 149.917969 52.550781 149.984375 52.582031 150.0625 52.585938 C 150.140625 52.589844 150.207031 52.5625 150.265625 52.503906 C 150.320312 52.449219 150.347656 52.382812 150.34375 52.304688 C 150.339844 52.222656 150.308594 52.160156 150.25 52.109375 L 140.453125 42.308594 C 140.398438 42.257812 140.335938 42.234375 140.261719 42.234375 C 140.1875 42.234375 140.125 42.261719 140.074219 42.3125 C 140.023438 42.367188 139.996094 42.429688 139.996094 42.503906 C 139.992188 42.574219 140.019531 42.640625 140.066406 42.691406 Z M 149.867188 52.492188" fill-opacity="1" fill-rule="nonzero"></path></g><path fill="#a65519" d="M 189.765625 91.589844 C 189.679688 91.503906 189.582031 91.484375 189.46875 91.53125 C 189.359375 91.578125 189.300781 91.660156 189.300781 91.78125 C 189.300781 91.855469 189.328125 91.921875 189.382812 91.972656 L 199.121094 101.710938 C 199.171875 101.773438 199.238281 101.804688 199.316406 101.804688 C 199.394531 101.808594 199.460938 101.78125 199.519531 101.726562 C 199.574219 101.671875 199.601562 101.601562 199.597656 101.523438 C 199.59375 101.445312 199.5625 101.378906 199.503906 101.328125 Z M 189.765625 91.589844" fill-opacity="1" fill-rule="nonzero"></path><path fill="#a65519" d="M 195.464844 61.492188 C 195.425781 61.582031 195.433594 61.667969 195.488281 61.75 C 195.542969 61.828125 195.617188 61.871094 195.714844 61.871094 C 195.75 61.871094 195.78125 61.863281 195.816406 61.851562 L 208.628906 56.703125 C 208.78125 56.632812 208.824219 56.515625 208.761719 56.359375 C 208.699219 56.203125 208.589844 56.152344 208.429688 56.203125 L 195.613281 61.347656 C 195.542969 61.375 195.496094 61.425781 195.464844 61.492188 Z M 195.464844 61.492188" fill-opacity="1" fill-rule="nonzero"></path><path fill="#a65519" d="M 154.484375 33.171875 C 154.457031 33.101562 154.40625 33.050781 154.339844 33.023438 C 154.269531 32.992188 154.199219 32.992188 154.128906 33.019531 C 154.058594 33.046875 154.011719 33.09375 153.980469 33.164062 C 153.953125 33.234375 153.949219 33.304688 153.980469 33.371094 L 159.132812 46.199219 C 159.175781 46.308594 159.261719 46.367188 159.382812 46.363281 C 159.417969 46.363281 159.453125 46.359375 159.484375 46.347656 C 159.554688 46.320312 159.605469 46.269531 159.632812 46.199219 C 159.660156 46.132812 159.660156 46.0625 159.632812 45.992188 Z M 154.484375 33.171875" fill-opacity="1" fill-rule="nonzero"></path><path fill="#a65519" d="M 180.46875 97.871094 C 180.398438 97.71875 180.28125 97.671875 180.121094 97.734375 C 179.964844 97.800781 179.910156 97.914062 179.964844 98.074219 L 185.097656 110.851562 C 185.171875 111.003906 185.289062 111.046875 185.445312 110.984375 C 185.601562 110.921875 185.652344 110.8125 185.601562 110.648438 Z M 180.46875 97.871094" fill-opacity="1" fill-rule="nonzero"></path><path fill="#a65519" d="M 208.289062 88.152344 L 195.628906 82.746094 C 195.558594 82.714844 195.488281 82.714844 195.417969 82.746094 C 195.351562 82.773438 195.300781 82.820312 195.269531 82.890625 C 195.242188 82.957031 195.242188 83.027344 195.269531 83.097656 C 195.296875 83.167969 195.347656 83.214844 195.414062 83.246094 L 208.078125 88.652344 C 208.113281 88.667969 208.148438 88.675781 208.1875 88.675781 C 208.308594 88.675781 208.390625 88.617188 208.4375 88.507812 C 208.464844 88.4375 208.464844 88.367188 208.4375 88.300781 C 208.410156 88.230469 208.359375 88.179688 208.289062 88.152344 Z M 208.289062 88.152344" fill-opacity="1" fill-rule="nonzero"></path><path fill="#a65519" d="M 180.667969 46.53125 C 180.703125 46.546875 180.738281 46.554688 180.773438 46.554688 C 180.894531 46.554688 180.976562 46.5 181.023438 46.386719 L 186.429688 33.722656 C 186.460938 33.652344 186.460938 33.582031 186.433594 33.515625 C 186.40625 33.445312 186.355469 33.394531 186.289062 33.367188 C 186.21875 33.335938 186.148438 33.335938 186.078125 33.367188 C 186.011719 33.394531 185.960938 33.441406 185.933594 33.511719 L 180.523438 46.175781 C 180.496094 46.246094 180.492188 46.3125 180.523438 46.382812 C 180.550781 46.453125 180.597656 46.503906 180.667969 46.53125 Z M 180.667969 46.53125" fill-opacity="1" fill-rule="nonzero"></path><path fill="#a65519" d="M 158.917969 97.476562 C 158.851562 97.449219 158.78125 97.445312 158.710938 97.476562 C 158.640625 97.503906 158.59375 97.550781 158.5625 97.617188 L 153.148438 110.300781 C 153.121094 110.367188 153.121094 110.4375 153.148438 110.507812 C 153.179688 110.578125 153.226562 110.625 153.296875 110.65625 C 153.328125 110.671875 153.363281 110.675781 153.402344 110.675781 C 153.523438 110.675781 153.605469 110.621094 153.652344 110.507812 L 159.0625 97.828125 C 159.089844 97.757812 159.089844 97.691406 159.0625 97.621094 C 159.035156 97.554688 158.988281 97.503906 158.917969 97.476562 Z M 158.917969 97.476562" fill-opacity="1" fill-rule="nonzero"></path><path fill="#a65519" d="M 164.398438 99.171875 C 164.328125 99.15625 164.261719 99.167969 164.199219 99.210938 C 164.136719 99.25 164.097656 99.304688 164.082031 99.378906 L 162.71875 106.242188 C 162.703125 106.316406 162.71875 106.386719 162.757812 106.449219 C 162.8125 106.527344 162.886719 106.566406 162.984375 106.566406 C 163.132812 106.566406 163.222656 106.496094 163.25 106.347656 L 164.613281 99.484375 C 164.628906 99.410156 164.613281 99.34375 164.574219 99.28125 C 164.53125 99.222656 164.472656 99.183594 164.398438 99.171875 Z M 164.398438 99.171875" fill-opacity="1" fill-rule="nonzero"></path><path fill="#a65519" d="M 176.671875 37.347656 C 176.597656 37.332031 176.527344 37.347656 176.46875 37.386719 C 176.40625 37.429688 176.367188 37.488281 176.351562 37.558594 L 174.964844 44.539062 C 174.949219 44.613281 174.964844 44.679688 175.007812 44.742188 C 175.046875 44.804688 175.101562 44.839844 175.175781 44.855469 C 175.191406 44.859375 175.210938 44.859375 175.226562 44.855469 C 175.375 44.855469 175.464844 44.785156 175.492188 44.640625 L 176.878906 37.660156 C 176.910156 37.488281 176.839844 37.386719 176.671875 37.347656 Z M 176.671875 37.347656" fill-opacity="1" fill-rule="nonzero"></path><path fill="#a65519" d="M 197.089844 77.230469 C 197.027344 77.273438 196.988281 77.328125 196.972656 77.398438 C 196.957031 77.472656 196.972656 77.539062 197.011719 77.601562 C 197.050781 77.664062 197.109375 77.703125 197.179688 77.71875 L 204.042969 79.082031 C 204.0625 79.082031 204.082031 79.082031 204.097656 79.082031 C 204.246094 79.078125 204.335938 79.007812 204.363281 78.859375 C 204.378906 78.785156 204.367188 78.71875 204.324219 78.65625 C 204.28125 78.597656 204.226562 78.558594 204.15625 78.542969 L 197.292969 77.179688 C 197.21875 77.167969 197.148438 77.183594 197.089844 77.230469 Z M 197.089844 77.230469" fill-opacity="1" fill-rule="nonzero"></path><path fill="#a65519" d="M 199.152344 52.371094 C 199.113281 52.3125 199.054688 52.273438 198.980469 52.257812 C 198.90625 52.242188 198.839844 52.257812 198.777344 52.300781 L 192.847656 56.261719 C 192.785156 56.304688 192.746094 56.363281 192.730469 56.4375 C 192.71875 56.511719 192.730469 56.578125 192.773438 56.640625 C 192.8125 56.703125 192.871094 56.742188 192.945312 56.757812 C 193.019531 56.769531 193.085938 56.757812 193.148438 56.714844 L 199.078125 52.75 C 199.140625 52.707031 199.179688 52.648438 199.195312 52.578125 C 199.210938 52.503906 199.195312 52.433594 199.152344 52.371094 Z M 199.152344 52.371094" fill-opacity="1" fill-rule="nonzero"></path><path fill="#a65519" d="M 154.042969 48.953125 C 154.109375 49.054688 154.203125 49.09375 154.320312 49.070312 C 154.441406 49.046875 154.511719 48.976562 154.535156 48.855469 C 154.550781 48.78125 154.535156 48.714844 154.496094 48.652344 L 150.492188 42.667969 C 150.390625 42.527344 150.265625 42.503906 150.121094 42.601562 C 149.976562 42.699219 149.949219 42.820312 150.039062 42.96875 Z M 154.042969 48.953125" fill-opacity="1" fill-rule="nonzero"></path><path fill="#a65519" d="M 185.574219 95.125 C 185.535156 95.0625 185.476562 95.023438 185.402344 95.007812 C 185.328125 94.996094 185.261719 95.007812 185.199219 95.050781 C 185.136719 95.089844 185.097656 95.144531 185.082031 95.21875 C 185.066406 95.292969 185.082031 95.359375 185.121094 95.421875 L 189.035156 101.269531 C 189.101562 101.367188 189.191406 101.40625 189.304688 101.382812 C 189.421875 101.363281 189.492188 101.296875 189.523438 101.183594 C 189.535156 101.113281 189.523438 101.042969 189.480469 100.980469 Z M 185.574219 95.125" fill-opacity="1" fill-rule="nonzero"></path><path fill="#a65519" d="M 204.476562 65.496094 C 204.464844 65.421875 204.425781 65.367188 204.363281 65.324219 C 204.300781 65.28125 204.234375 65.265625 204.160156 65.28125 L 197.210938 66.585938 C 197.050781 66.617188 196.976562 66.714844 196.992188 66.875 C 197.007812 67.039062 197.09375 67.121094 197.257812 67.125 L 197.308594 67.125 L 204.261719 65.820312 C 204.335938 65.804688 204.394531 65.765625 204.4375 65.703125 C 204.476562 65.640625 204.492188 65.570312 204.476562 65.496094 Z M 204.476562 65.496094" fill-opacity="1" fill-rule="nonzero"></path><path fill="#a65519" d="M 163.597656 37.570312 C 163.554688 37.402344 163.453125 37.335938 163.285156 37.367188 C 163.117188 37.398438 163.042969 37.496094 163.0625 37.667969 L 164.367188 44.617188 C 164.394531 44.765625 164.484375 44.839844 164.636719 44.839844 C 164.652344 44.839844 164.667969 44.839844 164.683594 44.839844 C 164.757812 44.824219 164.816406 44.789062 164.859375 44.726562 C 164.902344 44.664062 164.917969 44.597656 164.902344 44.523438 Z M 163.597656 37.570312" fill-opacity="1" fill-rule="nonzero"></path><path fill="#a65519" d="M 175.214844 99.429688 C 175.207031 99.351562 175.167969 99.289062 175.105469 99.246094 C 175.042969 99.199219 174.972656 99.183594 174.898438 99.199219 C 174.820312 99.214844 174.761719 99.253906 174.71875 99.320312 C 174.675781 99.382812 174.664062 99.453125 174.683594 99.53125 L 175.984375 106.460938 C 176.011719 106.609375 176.101562 106.683594 176.25 106.683594 C 176.265625 106.683594 176.285156 106.683594 176.300781 106.683594 C 176.375 106.667969 176.433594 106.632812 176.476562 106.570312 C 176.519531 106.507812 176.53125 106.441406 176.519531 106.367188 Z M 175.214844 99.429688" fill-opacity="1" fill-rule="nonzero"></path><path fill="#a65519" d="M 192.664062 87.652344 C 192.621094 87.714844 192.609375 87.78125 192.621094 87.855469 C 192.636719 87.925781 192.675781 87.984375 192.734375 88.023438 L 198.511719 91.972656 C 198.574219 92.015625 198.640625 92.03125 198.714844 92.015625 C 198.789062 92 198.847656 91.964844 198.886719 91.902344 C 198.929688 91.839844 198.945312 91.773438 198.933594 91.699219 C 198.917969 91.625 198.878906 91.570312 198.816406 91.53125 L 193.046875 87.585938 C 192.984375 87.539062 192.917969 87.523438 192.839844 87.535156 C 192.765625 87.550781 192.707031 87.589844 192.664062 87.652344 Z M 192.664062 87.652344" fill-opacity="1" fill-rule="nonzero"></path><path fill="#a65519" d="M 185.410156 49.164062 C 185.472656 49.207031 185.542969 49.21875 185.613281 49.207031 C 185.6875 49.191406 185.746094 49.15625 185.789062 49.09375 L 189.800781 43.230469 C 189.875 43.085938 189.847656 42.96875 189.714844 42.875 C 189.582031 42.785156 189.460938 42.796875 189.355469 42.921875 L 185.339844 48.785156 C 185.296875 48.847656 185.285156 48.917969 185.296875 48.988281 C 185.3125 49.0625 185.347656 49.121094 185.410156 49.164062 Z M 185.410156 49.164062" fill-opacity="1" fill-rule="nonzero"></path><path fill="#a65519" d="M 154.277344 95.035156 C 154.261719 94.964844 154.226562 94.910156 154.164062 94.867188 C 154.105469 94.828125 154.035156 94.8125 153.960938 94.828125 C 153.890625 94.839844 153.832031 94.878906 153.789062 94.9375 L 149.78125 100.800781 C 149.738281 100.859375 149.726562 100.929688 149.738281 101.003906 C 149.753906 101.074219 149.792969 101.132812 149.855469 101.175781 C 149.898438 101.207031 149.949219 101.222656 150.007812 101.222656 C 150.101562 101.222656 150.175781 101.183594 150.230469 101.105469 L 154.238281 95.246094 C 154.28125 95.183594 154.292969 95.113281 154.277344 95.035156 Z M 154.277344 95.035156" fill-opacity="1" fill-rule="nonzero"></path><g transform="matrix(1, 0, 0, 1, 54, 61)"><g clip-path="url(#22feb986d7)"><g fill="#a65519" fill-opacity="1"><g transform="translate(0.0346133, 15.312497)"><g><path d="M 1.015625 0 L 1.015625 -0.203125 C 1.179688 -0.253906 1.316406 -0.335938 1.421875 -0.453125 C 1.535156 -0.566406 1.617188 -0.765625 1.671875 -1.046875 C 1.722656 -1.335938 1.75 -1.765625 1.75 -2.328125 L 1.75 -10.53125 C 1.75 -11.09375 1.722656 -11.515625 1.671875 -11.796875 C 1.617188 -12.085938 1.535156 -12.296875 1.421875 -12.421875 C 1.316406 -12.546875 1.179688 -12.625 1.015625 -12.65625 L 1.015625 -12.859375 L 3.515625 -12.859375 L 3.515625 -12.65625 C 3.335938 -12.625 3.191406 -12.546875 3.078125 -12.421875 C 2.972656 -12.296875 2.894531 -12.085938 2.84375 -11.796875 C 2.800781 -11.515625 2.78125 -11.09375 2.78125 -10.53125 L 2.78125 -0.96875 C 2.78125 -0.476562 3.023438 -0.234375 3.515625 -0.234375 L 6.453125 -0.234375 C 7.003906 -0.234375 7.453125 -0.285156 7.796875 -0.390625 C 8.148438 -0.492188 8.4375 -0.664062 8.65625 -0.90625 C 8.882812 -1.144531 9.09375 -1.460938 9.28125 -1.859375 L 9.4375 -1.8125 L 9.328125 0 Z M 1.015625 0"></path></g></g></g><g fill="#a65519" fill-opacity="1"><g transform="translate(13.025785, 15.312497)"><g><path d="M 1.015625 0 L 1.015625 -0.203125 C 1.179688 -0.253906 1.316406 -0.335938 1.421875 -0.453125 C 1.535156 -0.566406 1.617188 -0.765625 1.671875 -1.046875 C 1.722656 -1.335938 1.75 -1.765625 1.75 -2.328125 L 1.75 -10.53125 C 1.75 -11.09375 1.722656 -11.515625 1.671875 -11.796875 C 1.617188 -12.085938 1.535156 -12.296875 1.421875 -12.421875 C 1.316406 -12.546875 1.179688 -12.625 1.015625 -12.65625 L 1.015625 -12.859375 L 3.515625 -12.859375 L 3.515625 -12.65625 C 3.335938 -12.625 3.191406 -12.546875 3.078125 -12.421875 C 2.972656 -12.296875 2.894531 -12.085938 2.84375 -11.796875 C 2.800781 -11.515625 2.78125 -11.09375 2.78125 -10.53125 L 2.78125 -2.328125 C 2.78125 -1.765625 2.800781 -1.335938 2.84375 -1.046875 C 2.894531 -0.765625 2.972656 -0.566406 3.078125 -0.453125 C 3.191406 -0.335938 3.335938 -0.253906 3.515625 -0.203125 L 3.515625 0 Z M 1.015625 0"></path></g></g></g><g fill="#a65519" fill-opacity="1"><g transform="translate(20.669826, 15.312497)"><g><path d="M 3.875 0 L 3.875 -0.203125 C 4.050781 -0.253906 4.191406 -0.335938 4.296875 -0.453125 C 4.410156 -0.566406 4.488281 -0.765625 4.53125 -1.046875 C 4.582031 -1.335938 4.609375 -1.765625 4.609375 -2.328125 L 4.609375 -12.625 L 3.34375 -12.625 C 2.789062 -12.625 2.335938 -12.570312 1.984375 -12.46875 C 1.640625 -12.363281 1.351562 -12.191406 1.125 -11.953125 C 0.90625 -11.710938 0.703125 -11.394531 0.515625 -11 L 0.34375 -11.046875 L 0.453125 -12.859375 L 9.78125 -12.859375 L 9.890625 -11.046875 L 9.71875 -11 C 9.53125 -11.394531 9.320312 -11.710938 9.09375 -11.953125 C 8.875 -12.191406 8.585938 -12.363281 8.234375 -12.46875 C 7.890625 -12.570312 7.441406 -12.625 6.890625 -12.625 L 5.65625 -12.625 L 5.65625 -2.328125 C 5.65625 -1.765625 5.679688 -1.335938 5.734375 -1.046875 C 5.785156 -0.765625 5.863281 -0.566406 5.96875 -0.453125 C 6.082031 -0.335938 6.222656 -0.253906 6.390625 -0.203125 L 6.390625 0 Z M 3.875 0"></path></g></g></g><g fill="#a65519" fill-opacity="1"><g transform="translate(34.065243, 15.312497)"><g><path d="M 3.875 0 L 3.875 -0.203125 C 4.050781 -0.253906 4.191406 -0.335938 4.296875 -0.453125 C 4.410156 -0.566406 4.488281 -0.765625 4.53125 -1.046875 C 4.582031 -1.335938 4.609375 -1.765625 4.609375 -2.328125 L 4.609375 -12.625 L 3.34375 -12.625 C 2.789062 -12.625 2.335938 -12.570312 1.984375 -12.46875 C 1.640625 -12.363281 1.351562 -12.191406 1.125 -11.953125 C 0.90625 -11.710938 0.703125 -11.394531 0.515625 -11 L 0.34375 -11.046875 L 0.453125 -12.859375 L 9.78125 -12.859375 L 9.890625 -11.046875 L 9.71875 -11 C 9.53125 -11.394531 9.320312 -11.710938 9.09375 -11.953125 C 8.875 -12.191406 8.585938 -12.363281 8.234375 -12.46875 C 7.890625 -12.570312 7.441406 -12.625 6.890625 -12.625 L 5.65625 -12.625 L 5.65625 -2.328125 C 5.65625 -1.765625 5.679688 -1.335938 5.734375 -1.046875 C 5.785156 -0.765625 5.863281 -0.566406 5.96875 -0.453125 C 6.082031 -0.335938 6.222656 -0.253906 6.390625 -0.203125 L 6.390625 0 Z M 3.875 0"></path></g></g></g><g fill="#a65519" fill-opacity="1"><g transform="translate(47.46066, 15.312497)"><g><path d="M 1.015625 0 L 1.015625 -0.203125 C 1.179688 -0.253906 1.316406 -0.335938 1.421875 -0.453125 C 1.535156 -0.566406 1.617188 -0.765625 1.671875 -1.046875 C 1.722656 -1.335938 1.75 -1.765625 1.75 -2.328125 L 1.75 -10.53125 C 1.75 -11.09375 1.722656 -11.515625 1.671875 -11.796875 C 1.617188 -12.085938 1.535156 -12.296875 1.421875 -12.421875 C 1.316406 -12.546875 1.179688 -12.625 1.015625 -12.65625 L 1.015625 -12.859375 L 3.515625 -12.859375 L 3.515625 -12.65625 C 3.335938 -12.625 3.191406 -12.546875 3.078125 -12.421875 C 2.972656 -12.296875 2.894531 -12.085938 2.84375 -11.796875 C 2.800781 -11.515625 2.78125 -11.09375 2.78125 -10.53125 L 2.78125 -0.96875 C 2.78125 -0.476562 3.023438 -0.234375 3.515625 -0.234375 L 6.453125 -0.234375 C 7.003906 -0.234375 7.453125 -0.285156 7.796875 -0.390625 C 8.148438 -0.492188 8.4375 -0.664062 8.65625 -0.90625 C 8.882812 -1.144531 9.09375 -1.460938 9.28125 -1.859375 L 9.4375 -1.8125 L 9.328125 0 Z M 1.015625 0"></path></g></g></g><g fill="#a65519" fill-opacity="1"><g transform="translate(60.451832, 15.312497)"><g><path d="M 1.015625 0 L 1.015625 -0.203125 C 1.179688 -0.253906 1.316406 -0.335938 1.421875 -0.453125 C 1.535156 -0.566406 1.617188 -0.765625 1.671875 -1.046875 C 1.722656 -1.335938 1.75 -1.765625 1.75 -2.328125 L 1.75 -10.53125 C 1.75 -11.09375 1.722656 -11.515625 1.671875 -11.796875 C 1.617188 -12.085938 1.535156 -12.296875 1.421875 -12.421875 C 1.316406 -12.546875 1.179688 -12.625 1.015625 -12.65625 L 1.015625 -12.859375 L 9.265625 -12.859375 L 9.484375 -10.671875 L 9.3125 -10.640625 C 9.03125 -11.359375 8.628906 -11.867188 8.109375 -12.171875 C 7.585938 -12.472656 6.910156 -12.625 6.078125 -12.625 L 2.78125 -12.625 L 2.78125 -6.96875 L 5.78125 -6.96875 C 6.425781 -6.96875 6.914062 -7.007812 7.25 -7.09375 C 7.582031 -7.1875 7.816406 -7.316406 7.953125 -7.484375 C 8.097656 -7.648438 8.195312 -7.84375 8.25 -8.0625 L 8.453125 -8.0625 L 8.453125 -5.625 L 8.25 -5.625 C 8.195312 -5.851562 8.097656 -6.046875 7.953125 -6.203125 C 7.816406 -6.367188 7.582031 -6.492188 7.25 -6.578125 C 6.914062 -6.671875 6.425781 -6.71875 5.78125 -6.71875 L 2.78125 -6.71875 L 2.78125 -0.96875 C 2.78125 -0.476562 3.023438 -0.234375 3.515625 -0.234375 L 6.578125 -0.234375 C 7.410156 -0.234375 8.082031 -0.367188 8.59375 -0.640625 C 9.101562 -0.921875 9.507812 -1.445312 9.8125 -2.21875 L 9.984375 -2.1875 L 9.8125 0 Z M 1.015625 0"></path></g></g></g><g fill="#a65519" fill-opacity="1"><g transform="translate(74.288253, 15.312497)"><g></g></g></g><g fill="#a65519" fill-opacity="1"><g transform="translate(81.454543, 15.312497)"><g><path d="M 10.375 0.125 C 9.9375 0.125 9.597656 0.015625 9.359375 -0.203125 C 9.117188 -0.429688 8.914062 -0.75 8.75 -1.15625 C 8.582031 -1.570312 8.378906 -2.054688 8.140625 -2.609375 C 7.878906 -3.191406 7.648438 -3.734375 7.453125 -4.234375 C 7.265625 -4.742188 7.039062 -5.175781 6.78125 -5.53125 C 6.519531 -5.894531 6.175781 -6.175781 5.75 -6.375 C 5.320312 -6.582031 4.753906 -6.6875 4.046875 -6.6875 L 2.78125 -6.6875 L 2.78125 -2.328125 C 2.78125 -1.765625 2.800781 -1.335938 2.84375 -1.046875 C 2.894531 -0.765625 2.972656 -0.566406 3.078125 -0.453125 C 3.191406 -0.335938 3.335938 -0.253906 3.515625 -0.203125 L 3.515625 0 L 1.015625 0 L 1.015625 -0.203125 C 1.179688 -0.253906 1.316406 -0.335938 1.421875 -0.453125 C 1.535156 -0.566406 1.617188 -0.765625 1.671875 -1.046875 C 1.722656 -1.335938 1.75 -1.765625 1.75 -2.328125 L 1.75 -10.53125 C 1.75 -11.09375 1.722656 -11.515625 1.671875 -11.796875 C 1.617188 -12.085938 1.535156 -12.296875 1.421875 -12.421875 C 1.316406 -12.546875 1.179688 -12.625 1.015625 -12.65625 L 1.015625 -12.859375 L 4.390625 -12.859375 C 6.109375 -12.859375 7.335938 -12.613281 8.078125 -12.125 C 8.828125 -11.644531 9.203125 -10.957031 9.203125 -10.0625 C 9.203125 -9.1875 8.878906 -8.441406 8.234375 -7.828125 C 7.597656 -7.210938 6.691406 -6.84375 5.515625 -6.71875 C 6.128906 -6.632812 6.625 -6.484375 7 -6.265625 C 7.382812 -6.054688 7.691406 -5.785156 7.921875 -5.453125 C 8.148438 -5.128906 8.347656 -4.75 8.515625 -4.3125 C 8.691406 -3.882812 8.878906 -3.414062 9.078125 -2.90625 C 9.472656 -1.9375 9.8125 -1.234375 10.09375 -0.796875 C 10.382812 -0.359375 10.675781 -0.140625 10.96875 -0.140625 C 11.03125 -0.140625 11.082031 -0.144531 11.125 -0.15625 C 11.175781 -0.164062 11.226562 -0.175781 11.28125 -0.1875 L 11.28125 0 C 11.21875 0.0195312 11.101562 0.046875 10.9375 0.078125 C 10.769531 0.109375 10.582031 0.125 10.375 0.125 Z M 2.78125 -6.953125 L 4.71875 -6.953125 C 5.789062 -6.953125 6.613281 -7.1875 7.1875 -7.65625 C 7.769531 -8.132812 8.0625 -8.804688 8.0625 -9.671875 C 8.0625 -10.578125 7.734375 -11.296875 7.078125 -11.828125 C 6.421875 -12.359375 5.289062 -12.625 3.6875 -12.625 C 3.539062 -12.625 3.394531 -12.617188 3.25 -12.609375 C 3.101562 -12.609375 2.945312 -12.601562 2.78125 -12.59375 Z M 2.78125 -6.953125"></path></g></g></g><g fill="#a65519" fill-opacity="1"><g transform="translate(95.695215, 15.312497)"><g><path d="M 1.015625 0 L 1.015625 -0.203125 C 1.179688 -0.253906 1.316406 -0.335938 1.421875 -0.453125 C 1.535156 -0.566406 1.617188 -0.765625 1.671875 -1.046875 C 1.722656 -1.335938 1.75 -1.765625 1.75 -2.328125 L 1.75 -10.53125 C 1.75 -11.09375 1.722656 -11.515625 1.671875 -11.796875 C 1.617188 -12.085938 1.535156 -12.296875 1.421875 -12.421875 C 1.316406 -12.546875 1.179688 -12.625 1.015625 -12.65625 L 1.015625 -12.859375 L 9.265625 -12.859375 L 9.484375 -10.671875 L 9.3125 -10.640625 C 9.03125 -11.359375 8.628906 -11.867188 8.109375 -12.171875 C 7.585938 -12.472656 6.910156 -12.625 6.078125 -12.625 L 2.78125 -12.625 L 2.78125 -6.96875 L 5.78125 -6.96875 C 6.425781 -6.96875 6.914062 -7.007812 7.25 -7.09375 C 7.582031 -7.1875 7.816406 -7.316406 7.953125 -7.484375 C 8.097656 -7.648438 8.195312 -7.84375 8.25 -8.0625 L 8.453125 -8.0625 L 8.453125 -5.625 L 8.25 -5.625 C 8.195312 -5.851562 8.097656 -6.046875 7.953125 -6.203125 C 7.816406 -6.367188 7.582031 -6.492188 7.25 -6.578125 C 6.914062 -6.671875 6.425781 -6.71875 5.78125 -6.71875 L 2.78125 -6.71875 L 2.78125 -0.96875 C 2.78125 -0.476562 3.023438 -0.234375 3.515625 -0.234375 L 6.578125 -0.234375 C 7.410156 -0.234375 8.082031 -0.367188 8.59375 -0.640625 C 9.101562 -0.921875 9.507812 -1.445312 9.8125 -2.21875 L 9.984375 -2.1875 L 9.8125 0 Z M 1.015625 0"></path></g></g></g><g fill="#a65519" fill-opacity="1"><g transform="translate(109.53163, 15.312497)"><g><path d="M 1.015625 0 L 1.015625 -0.203125 C 1.179688 -0.253906 1.316406 -0.335938 1.421875 -0.453125 C 1.535156 -0.566406 1.617188 -0.765625 1.671875 -1.046875 C 1.722656 -1.335938 1.75 -1.765625 1.75 -2.328125 L 1.75 -10.53125 C 1.75 -11.09375 1.722656 -11.515625 1.671875 -11.796875 C 1.617188 -12.085938 1.535156 -12.296875 1.421875 -12.421875 C 1.316406 -12.546875 1.179688 -12.625 1.015625 -12.65625 L 1.015625 -12.859375 L 5.203125 -12.859375 C 6.398438 -12.859375 7.4375 -12.691406 8.3125 -12.359375 C 9.195312 -12.023438 9.929688 -11.566406 10.515625 -10.984375 C 11.097656 -10.410156 11.535156 -9.75 11.828125 -9 C 12.128906 -8.257812 12.28125 -7.476562 12.28125 -6.65625 C 12.28125 -5.71875 12.125 -4.84375 11.8125 -4.03125 C 11.507812 -3.226562 11.066406 -2.523438 10.484375 -1.921875 C 9.898438 -1.316406 9.203125 -0.84375 8.390625 -0.5 C 7.578125 -0.164062 6.660156 0 5.640625 0 Z M 2.78125 -1.59375 C 2.78125 -1.164062 2.851562 -0.832031 3 -0.59375 C 3.144531 -0.363281 3.46875 -0.25 3.96875 -0.25 L 5.703125 -0.25 C 7.453125 -0.25 8.789062 -0.757812 9.71875 -1.78125 C 10.644531 -2.800781 11.109375 -4.238281 11.109375 -6.09375 C 11.109375 -6.988281 10.960938 -7.828125 10.671875 -8.609375 C 10.378906 -9.398438 9.953125 -10.09375 9.390625 -10.6875 C 8.828125 -11.289062 8.140625 -11.765625 7.328125 -12.109375 C 6.523438 -12.453125 5.609375 -12.625 4.578125 -12.625 L 2.78125 -12.625 Z M 2.78125 -1.59375"></path></g></g></g></g></g><g transform="matrix(1, 0, 0, 1, 95, 79)"><g clip-path="url(#0c7efd8468)"><g clip-path="url(#29994fc6da)"><g fill="#a65519" fill-opacity="1"><g transform="translate(0.698197, 7.380674)"><g><path d="M 5.203125 -1.59375 C 5.234375 -1.5625 5.242188 -1.519531 5.234375 -1.46875 C 5.234375 -1.425781 5.210938 -1.390625 5.171875 -1.359375 C 5.160156 -1.347656 5.085938 -1.289062 4.953125 -1.1875 C 4.828125 -1.09375 4.648438 -0.976562 4.421875 -0.84375 C 4.203125 -0.71875 3.941406 -0.585938 3.640625 -0.453125 C 3.347656 -0.316406 3.035156 -0.207031 2.703125 -0.125 C 2.367188 -0.0390625 2.023438 0 1.671875 0 C 1.242188 0.0078125 0.835938 -0.0625 0.453125 -0.21875 C 0.234375 -0.3125 0.0820312 -0.414062 0 -0.53125 C -0.0820312 -0.644531 -0.128906 -0.753906 -0.140625 -0.859375 C -0.160156 -0.972656 -0.160156 -1.070312 -0.140625 -1.15625 C -0.109375 -1.3125 -0.0390625 -1.457031 0.0625 -1.59375 C 0.175781 -1.738281 0.304688 -1.867188 0.453125 -1.984375 C 0.597656 -2.097656 0.742188 -2.1875 0.890625 -2.25 C 1.046875 -2.3125 1.1875 -2.335938 1.3125 -2.328125 C 1.414062 -2.328125 1.507812 -2.285156 1.59375 -2.203125 C 1.675781 -2.128906 1.722656 -2.035156 1.734375 -1.921875 C 1.734375 -1.847656 1.710938 -1.765625 1.671875 -1.671875 C 1.640625 -1.578125 1.546875 -1.476562 1.390625 -1.375 C 1.046875 -1.15625 0.660156 -1.054688 0.234375 -1.078125 C 0.210938 -1.085938 0.195312 -1.085938 0.1875 -1.078125 C 0.164062 -1.054688 0.160156 -1.039062 0.171875 -1.03125 C 0.160156 -0.988281 0.160156 -0.9375 0.171875 -0.875 C 0.191406 -0.820312 0.226562 -0.765625 0.28125 -0.703125 C 0.34375 -0.640625 0.441406 -0.582031 0.578125 -0.53125 C 0.859375 -0.40625 1.144531 -0.332031 1.4375 -0.3125 C 1.738281 -0.300781 2.03125 -0.320312 2.3125 -0.375 C 2.59375 -0.425781 2.863281 -0.5 3.125 -0.59375 C 3.394531 -0.695312 3.640625 -0.804688 3.859375 -0.921875 C 4.078125 -1.035156 4.269531 -1.144531 4.4375 -1.25 C 4.601562 -1.351562 4.734375 -1.441406 4.828125 -1.515625 C 4.921875 -1.585938 4.96875 -1.625 4.96875 -1.625 C 5.007812 -1.644531 5.050781 -1.65625 5.09375 -1.65625 C 5.132812 -1.65625 5.171875 -1.632812 5.203125 -1.59375 Z M 0.390625 -1.46875 C 0.335938 -1.40625 0.335938 -1.367188 0.390625 -1.359375 C 0.453125 -1.359375 0.535156 -1.375 0.640625 -1.40625 C 0.742188 -1.4375 0.847656 -1.472656 0.953125 -1.515625 C 1.066406 -1.566406 1.15625 -1.613281 1.21875 -1.65625 C 1.351562 -1.738281 1.414062 -1.816406 1.40625 -1.890625 C 1.394531 -1.929688 1.378906 -1.957031 1.359375 -1.96875 C 1.347656 -1.988281 1.328125 -2 1.296875 -2 C 1.160156 -2.007812 1.003906 -1.960938 0.828125 -1.859375 C 0.660156 -1.765625 0.515625 -1.632812 0.390625 -1.46875 Z M 0.390625 -1.46875"></path></g></g></g></g><g fill="#a65519" fill-opacity="1"><g transform="translate(5.668974, 7.380674)"><g><path d="M 4.265625 -1.71875 C 4.296875 -1.6875 4.3125 -1.644531 4.3125 -1.59375 C 4.3125 -1.550781 4.296875 -1.515625 4.265625 -1.484375 C 4.085938 -1.316406 3.878906 -1.148438 3.640625 -0.984375 C 3.410156 -0.828125 3.160156 -0.6875 2.890625 -0.5625 C 2.617188 -0.4375 2.34375 -0.335938 2.0625 -0.265625 C 1.78125 -0.191406 1.507812 -0.15625 1.25 -0.15625 C 1.132812 -0.15625 1.03125 -0.160156 0.9375 -0.171875 C 0.726562 -0.191406 0.535156 -0.253906 0.359375 -0.359375 C 0.191406 -0.472656 0.0546875 -0.617188 -0.046875 -0.796875 C -0.0664062 -0.828125 -0.0703125 -0.863281 -0.0625 -0.90625 C -0.0507812 -0.945312 -0.03125 -0.984375 0 -1.015625 C 0.0390625 -1.035156 0.0820312 -1.039062 0.125 -1.03125 C 0.164062 -1.019531 0.203125 -1 0.234375 -0.96875 C 0.316406 -0.84375 0.425781 -0.75 0.5625 -0.6875 C 0.695312 -0.625 0.835938 -0.59375 0.984375 -0.59375 C 1.128906 -0.601562 1.265625 -0.644531 1.390625 -0.71875 C 1.484375 -0.757812 1.535156 -0.832031 1.546875 -0.9375 C 1.566406 -1.03125 1.539062 -1.113281 1.46875 -1.1875 C 1.40625 -1.257812 1.328125 -1.328125 1.234375 -1.390625 C 1.066406 -1.484375 0.925781 -1.613281 0.8125 -1.78125 C 0.789062 -1.8125 0.765625 -1.828125 0.734375 -1.828125 C 0.703125 -1.835938 0.675781 -1.832031 0.65625 -1.8125 L 0.1875 -1.359375 C 0.132812 -1.316406 0.078125 -1.304688 0.015625 -1.328125 C -0.046875 -1.335938 -0.0820312 -1.375 -0.09375 -1.4375 C -0.113281 -1.5 -0.0976562 -1.550781 -0.046875 -1.59375 L 0.90625 -2.5 C 1.007812 -2.625 1.128906 -2.734375 1.265625 -2.828125 C 1.304688 -2.859375 1.347656 -2.867188 1.390625 -2.859375 C 1.429688 -2.859375 1.46875 -2.84375 1.5 -2.8125 C 1.519531 -2.78125 1.53125 -2.738281 1.53125 -2.6875 C 1.53125 -2.644531 1.515625 -2.613281 1.484375 -2.59375 L 1.140625 -2.265625 C 1.085938 -2.203125 1.054688 -2.128906 1.046875 -2.046875 C 1.046875 -1.972656 1.085938 -1.90625 1.171875 -1.84375 C 1.253906 -1.78125 1.335938 -1.71875 1.421875 -1.65625 C 1.554688 -1.570312 1.664062 -1.472656 1.75 -1.359375 C 1.820312 -1.265625 1.863281 -1.15625 1.875 -1.03125 C 1.882812 -0.90625 1.863281 -0.789062 1.8125 -0.6875 C 1.789062 -0.65625 1.789062 -0.625 1.8125 -0.59375 C 1.832031 -0.5625 1.863281 -0.550781 1.90625 -0.5625 C 2.71875 -0.757812 3.425781 -1.144531 4.03125 -1.71875 C 4.0625 -1.75 4.097656 -1.765625 4.140625 -1.765625 C 4.191406 -1.765625 4.234375 -1.75 4.265625 -1.71875 Z M 4.265625 -1.71875"></path></g></g></g><g fill="#a65519" fill-opacity="1"><g transform="translate(9.677864, 7.380674)"><g><path d="M 4.265625 -1.6875 C 4.296875 -1.65625 4.3125 -1.617188 4.3125 -1.578125 C 4.3125 -1.523438 4.296875 -1.484375 4.265625 -1.453125 C 4.253906 -1.441406 4.191406 -1.382812 4.078125 -1.28125 C 3.972656 -1.1875 3.832031 -1.066406 3.65625 -0.921875 C 3.476562 -0.773438 3.273438 -0.632812 3.046875 -0.5 C 2.816406 -0.363281 2.578125 -0.242188 2.328125 -0.140625 C 2.085938 -0.046875 1.84375 0 1.59375 0 C 1.425781 0 1.257812 -0.03125 1.09375 -0.09375 C 0.726562 -0.238281 0.453125 -0.550781 0.265625 -1.03125 C 0.0859375 -1.519531 0.0234375 -2.132812 0.078125 -2.875 C 0.0664062 -2.90625 0.0507812 -2.929688 0.03125 -2.953125 C 0.0078125 -2.972656 -0.0195312 -2.984375 -0.0625 -2.984375 C -0.375 -2.953125 -0.65625 -2.925781 -0.90625 -2.90625 C -1.164062 -2.894531 -1.367188 -2.882812 -1.515625 -2.875 C -1.671875 -2.863281 -1.753906 -2.859375 -1.765625 -2.859375 L -1.78125 -2.859375 C -1.820312 -2.847656 -1.859375 -2.859375 -1.890625 -2.890625 C -1.929688 -2.921875 -1.953125 -2.960938 -1.953125 -3.015625 C -1.953125 -3.054688 -1.9375 -3.09375 -1.90625 -3.125 C -1.875 -3.15625 -1.835938 -3.171875 -1.796875 -3.171875 C -1.785156 -3.171875 -1.695312 -3.175781 -1.53125 -3.1875 C -1.375 -3.207031 -1.160156 -3.226562 -0.890625 -3.25 C -0.617188 -3.269531 -0.320312 -3.289062 0 -3.3125 C 0.0390625 -3.3125 0.0703125 -3.328125 0.09375 -3.359375 C 0.113281 -3.390625 0.128906 -3.429688 0.140625 -3.484375 C 0.171875 -3.722656 0.21875 -3.96875 0.28125 -4.21875 C 0.34375 -4.476562 0.410156 -4.71875 0.484375 -4.9375 C 0.566406 -5.15625 0.65625 -5.332031 0.75 -5.46875 C 0.851562 -5.613281 0.960938 -5.703125 1.078125 -5.734375 C 1.117188 -5.742188 1.175781 -5.734375 1.25 -5.703125 C 1.332031 -5.679688 1.40625 -5.609375 1.46875 -5.484375 C 1.507812 -5.398438 1.515625 -5.253906 1.484375 -5.046875 C 1.460938 -4.835938 1.414062 -4.597656 1.34375 -4.328125 C 1.269531 -4.066406 1.179688 -3.789062 1.078125 -3.5 C 1.054688 -3.445312 1.054688 -3.410156 1.078125 -3.390625 C 1.097656 -3.378906 1.113281 -3.375 1.125 -3.375 C 1.53125 -3.40625 1.910156 -3.425781 2.265625 -3.4375 C 2.628906 -3.457031 2.929688 -3.46875 3.171875 -3.46875 C 3.222656 -3.46875 3.265625 -3.453125 3.296875 -3.421875 C 3.328125 -3.390625 3.34375 -3.351562 3.34375 -3.3125 C 3.34375 -3.257812 3.328125 -3.21875 3.296875 -3.1875 C 3.265625 -3.15625 3.222656 -3.140625 3.171875 -3.140625 C 2.921875 -3.140625 2.601562 -3.128906 2.21875 -3.109375 C 1.832031 -3.097656 1.429688 -3.078125 1.015625 -3.046875 C 0.984375 -3.046875 0.957031 -3.039062 0.9375 -3.03125 C 0.925781 -3.019531 0.914062 -3.003906 0.90625 -2.984375 C 0.8125 -2.722656 0.722656 -2.484375 0.640625 -2.265625 C 0.554688 -2.046875 0.488281 -1.875 0.4375 -1.75 C 0.457031 -1.550781 0.5 -1.359375 0.5625 -1.171875 C 0.625 -0.992188 0.707031 -0.835938 0.8125 -0.703125 C 0.914062 -0.566406 1.050781 -0.46875 1.21875 -0.40625 C 1.40625 -0.332031 1.601562 -0.3125 1.8125 -0.34375 C 2.019531 -0.375 2.226562 -0.4375 2.4375 -0.53125 C 2.644531 -0.632812 2.84375 -0.75 3.03125 -0.875 C 3.21875 -1 3.382812 -1.125 3.53125 -1.25 C 3.6875 -1.375 3.804688 -1.476562 3.890625 -1.5625 C 3.984375 -1.644531 4.03125 -1.6875 4.03125 -1.6875 C 4.0625 -1.71875 4.097656 -1.734375 4.140625 -1.734375 C 4.191406 -1.734375 4.234375 -1.71875 4.265625 -1.6875 Z M 0.46875 -3.484375 C 0.457031 -3.460938 0.453125 -3.429688 0.453125 -3.390625 C 0.453125 -3.359375 0.472656 -3.34375 0.515625 -3.34375 C 0.546875 -3.34375 0.578125 -3.34375 0.609375 -3.34375 C 0.671875 -3.351562 0.707031 -3.390625 0.71875 -3.453125 C 0.820312 -3.765625 0.910156 -4.050781 0.984375 -4.3125 C 1.066406 -4.582031 1.125 -4.804688 1.15625 -4.984375 C 1.1875 -5.160156 1.191406 -5.273438 1.171875 -5.328125 C 1.160156 -5.359375 1.144531 -5.378906 1.125 -5.390625 C 1.09375 -5.390625 1.070312 -5.378906 1.0625 -5.359375 C 1 -5.296875 0.929688 -5.175781 0.859375 -5 C 0.785156 -4.820312 0.710938 -4.601562 0.640625 -4.34375 C 0.566406 -4.082031 0.507812 -3.796875 0.46875 -3.484375 Z M 0.390625 -2.515625 C 0.398438 -2.515625 0.414062 -2.535156 0.4375 -2.578125 C 0.46875 -2.628906 0.492188 -2.6875 0.515625 -2.75 C 0.546875 -2.8125 0.566406 -2.867188 0.578125 -2.921875 C 0.585938 -2.972656 0.585938 -3.003906 0.578125 -3.015625 C 0.515625 -3.046875 0.457031 -3.046875 0.40625 -3.015625 C 0.394531 -2.992188 0.382812 -2.957031 0.375 -2.90625 C 0.363281 -2.851562 0.351562 -2.796875 0.34375 -2.734375 C 0.34375 -2.679688 0.34375 -2.628906 0.34375 -2.578125 C 0.351562 -2.535156 0.367188 -2.515625 0.390625 -2.515625 Z M 0.390625 -2.515625"></path></g></g></g><g fill="#a65519" fill-opacity="1"><g transform="translate(13.643313, 7.380674)"><g><path d="M 4.890625 -1.484375 C 4.921875 -1.453125 4.9375 -1.410156 4.9375 -1.359375 C 4.9375 -1.316406 4.914062 -1.285156 4.875 -1.265625 C 4.863281 -1.242188 4.804688 -1.191406 4.703125 -1.109375 C 4.597656 -1.035156 4.457031 -0.9375 4.28125 -0.8125 C 4.113281 -0.695312 3.925781 -0.585938 3.71875 -0.484375 C 3.507812 -0.378906 3.289062 -0.296875 3.0625 -0.234375 C 2.832031 -0.179688 2.609375 -0.171875 2.390625 -0.203125 C 2.203125 -0.234375 2.03125 -0.300781 1.875 -0.40625 C 1.71875 -0.519531 1.59375 -0.660156 1.5 -0.828125 C 1.425781 -0.953125 1.320312 -1.019531 1.1875 -1.03125 C 1.125 -1.039062 1.035156 -1.019531 0.921875 -0.96875 C 0.816406 -0.925781 0.679688 -0.832031 0.515625 -0.6875 C 0.359375 -0.539062 0.175781 -0.3125 -0.03125 0 C -0.0703125 0.0625 -0.132812 0.078125 -0.21875 0.046875 C -0.289062 0.015625 -0.328125 -0.0390625 -0.328125 -0.125 C -0.304688 -0.28125 -0.28125 -0.457031 -0.25 -0.65625 C -0.21875 -0.863281 -0.179688 -1.085938 -0.140625 -1.328125 C -0.179688 -1.390625 -0.175781 -1.445312 -0.125 -1.5 L -0.09375 -1.5625 C -0.0390625 -1.820312 0.015625 -2.082031 0.078125 -2.34375 C 0.148438 -2.601562 0.222656 -2.859375 0.296875 -3.109375 C 0.410156 -3.523438 0.515625 -3.867188 0.609375 -4.140625 C 0.710938 -4.410156 0.804688 -4.625 0.890625 -4.78125 C 0.972656 -4.945312 1.046875 -5.066406 1.109375 -5.140625 C 1.171875 -5.210938 1.222656 -5.257812 1.265625 -5.28125 C 1.304688 -5.3125 1.34375 -5.332031 1.375 -5.34375 C 1.4375 -5.363281 1.5 -5.359375 1.5625 -5.328125 C 1.632812 -5.304688 1.695312 -5.269531 1.75 -5.21875 C 1.84375 -5.09375 1.882812 -4.929688 1.875 -4.734375 C 1.875 -4.546875 1.832031 -4.332031 1.75 -4.09375 C 1.664062 -3.851562 1.554688 -3.601562 1.421875 -3.34375 C 1.296875 -3.09375 1.15625 -2.847656 1 -2.609375 C 0.851562 -2.367188 0.710938 -2.148438 0.578125 -1.953125 C 0.453125 -1.753906 0.34375 -1.597656 0.25 -1.484375 C 0.25 -1.484375 0.238281 -1.46875 0.21875 -1.4375 C 0.207031 -1.40625 0.203125 -1.394531 0.203125 -1.40625 C 0.203125 -1.375 0.191406 -1.320312 0.171875 -1.25 C 0.160156 -1.175781 0.148438 -1.101562 0.140625 -1.03125 C 0.128906 -0.96875 0.117188 -0.914062 0.109375 -0.875 C 0.0976562 -0.851562 0.109375 -0.832031 0.140625 -0.8125 C 0.171875 -0.800781 0.191406 -0.804688 0.203125 -0.828125 C 0.566406 -1.203125 0.898438 -1.378906 1.203125 -1.359375 C 1.460938 -1.335938 1.65625 -1.210938 1.78125 -0.984375 C 1.925781 -0.722656 2.144531 -0.566406 2.4375 -0.515625 C 2.625 -0.492188 2.820312 -0.507812 3.03125 -0.5625 C 3.238281 -0.625 3.4375 -0.703125 3.625 -0.796875 C 3.820312 -0.898438 3.992188 -1.003906 4.140625 -1.109375 C 4.296875 -1.210938 4.421875 -1.300781 4.515625 -1.375 C 4.617188 -1.457031 4.671875 -1.5 4.671875 -1.5 C 4.703125 -1.53125 4.738281 -1.539062 4.78125 -1.53125 C 4.820312 -1.53125 4.859375 -1.515625 4.890625 -1.484375 Z M 1.46875 -5.03125 C 1.425781 -5.03125 1.375 -4.984375 1.3125 -4.890625 C 1.257812 -4.796875 1.191406 -4.664062 1.109375 -4.5 C 1.035156 -4.34375 0.960938 -4.164062 0.890625 -3.96875 C 0.816406 -3.78125 0.742188 -3.585938 0.671875 -3.390625 C 0.609375 -3.203125 0.550781 -3.023438 0.5 -2.859375 C 0.445312 -2.691406 0.410156 -2.554688 0.390625 -2.453125 C 0.378906 -2.347656 0.382812 -2.289062 0.40625 -2.28125 C 0.425781 -2.269531 0.460938 -2.300781 0.515625 -2.375 C 0.578125 -2.457031 0.648438 -2.570312 0.734375 -2.71875 C 0.816406 -2.863281 0.898438 -3.023438 0.984375 -3.203125 C 1.078125 -3.390625 1.160156 -3.578125 1.234375 -3.765625 C 1.316406 -3.953125 1.382812 -4.128906 1.4375 -4.296875 C 1.488281 -4.472656 1.519531 -4.625 1.53125 -4.75 C 1.550781 -4.875 1.535156 -4.960938 1.484375 -5.015625 C 1.484375 -5.015625 1.476562 -5.015625 1.46875 -5.015625 C 1.46875 -5.023438 1.46875 -5.03125 1.46875 -5.03125 Z M 1.46875 -5.03125"></path></g></g></g><g fill="#a65519" fill-opacity="1"><g transform="translate(18.334831, 7.380674)"><g><path d="M 5.203125 -1.59375 C 5.234375 -1.5625 5.242188 -1.519531 5.234375 -1.46875 C 5.234375 -1.425781 5.210938 -1.390625 5.171875 -1.359375 C 5.160156 -1.347656 5.085938 -1.289062 4.953125 -1.1875 C 4.828125 -1.09375 4.648438 -0.976562 4.421875 -0.84375 C 4.203125 -0.71875 3.941406 -0.585938 3.640625 -0.453125 C 3.347656 -0.316406 3.035156 -0.207031 2.703125 -0.125 C 2.367188 -0.0390625 2.023438 0 1.671875 0 C 1.242188 0.0078125 0.835938 -0.0625 0.453125 -0.21875 C 0.234375 -0.3125 0.0820312 -0.414062 0 -0.53125 C -0.0820312 -0.644531 -0.128906 -0.753906 -0.140625 -0.859375 C -0.160156 -0.972656 -0.160156 -1.070312 -0.140625 -1.15625 C -0.109375 -1.3125 -0.0390625 -1.457031 0.0625 -1.59375 C 0.175781 -1.738281 0.304688 -1.867188 0.453125 -1.984375 C 0.597656 -2.097656 0.742188 -2.1875 0.890625 -2.25 C 1.046875 -2.3125 1.1875 -2.335938 1.3125 -2.328125 C 1.414062 -2.328125 1.507812 -2.285156 1.59375 -2.203125 C 1.675781 -2.128906 1.722656 -2.035156 1.734375 -1.921875 C 1.734375 -1.847656 1.710938 -1.765625 1.671875 -1.671875 C 1.640625 -1.578125 1.546875 -1.476562 1.390625 -1.375 C 1.046875 -1.15625 0.660156 -1.054688 0.234375 -1.078125 C 0.210938 -1.085938 0.195312 -1.085938 0.1875 -1.078125 C 0.164062 -1.054688 0.160156 -1.039062 0.171875 -1.03125 C 0.160156 -0.988281 0.160156 -0.9375 0.171875 -0.875 C 0.191406 -0.820312 0.226562 -0.765625 0.28125 -0.703125 C 0.34375 -0.640625 0.441406 -0.582031 0.578125 -0.53125 C 0.859375 -0.40625 1.144531 -0.332031 1.4375 -0.3125 C 1.738281 -0.300781 2.03125 -0.320312 2.3125 -0.375 C 2.59375 -0.425781 2.863281 -0.5 3.125 -0.59375 C 3.394531 -0.695312 3.640625 -0.804688 3.859375 -0.921875 C 4.078125 -1.035156 4.269531 -1.144531 4.4375 -1.25 C 4.601562 -1.351562 4.734375 -1.441406 4.828125 -1.515625 C 4.921875 -1.585938 4.96875 -1.625 4.96875 -1.625 C 5.007812 -1.644531 5.050781 -1.65625 5.09375 -1.65625 C 5.132812 -1.65625 5.171875 -1.632812 5.203125 -1.59375 Z M 0.390625 -1.46875 C 0.335938 -1.40625 0.335938 -1.367188 0.390625 -1.359375 C 0.453125 -1.359375 0.535156 -1.375 0.640625 -1.40625 C 0.742188 -1.4375 0.847656 -1.472656 0.953125 -1.515625 C 1.066406 -1.566406 1.15625 -1.613281 1.21875 -1.65625 C 1.351562 -1.738281 1.414062 -1.816406 1.40625 -1.890625 C 1.394531 -1.929688 1.378906 -1.957031 1.359375 -1.96875 C 1.347656 -1.988281 1.328125 -2 1.296875 -2 C 1.160156 -2.007812 1.003906 -1.960938 0.828125 -1.859375 C 0.660156 -1.765625 0.515625 -1.632812 0.390625 -1.46875 Z M 0.390625 -1.46875"></path></g></g></g><g fill="#a65519" fill-opacity="1"><g transform="translate(23.305608, 7.380674)"><g><path d="M 4.265625 -1.6875 C 4.296875 -1.65625 4.3125 -1.617188 4.3125 -1.578125 C 4.3125 -1.523438 4.296875 -1.484375 4.265625 -1.453125 C 4.253906 -1.441406 4.191406 -1.382812 4.078125 -1.28125 C 3.972656 -1.1875 3.832031 -1.066406 3.65625 -0.921875 C 3.476562 -0.773438 3.273438 -0.632812 3.046875 -0.5 C 2.816406 -0.363281 2.578125 -0.242188 2.328125 -0.140625 C 2.085938 -0.046875 1.84375 0 1.59375 0 C 1.425781 0 1.257812 -0.03125 1.09375 -0.09375 C 0.726562 -0.238281 0.453125 -0.550781 0.265625 -1.03125 C 0.0859375 -1.519531 0.0234375 -2.132812 0.078125 -2.875 C 0.0664062 -2.90625 0.0507812 -2.929688 0.03125 -2.953125 C 0.0078125 -2.972656 -0.0195312 -2.984375 -0.0625 -2.984375 C -0.375 -2.953125 -0.65625 -2.925781 -0.90625 -2.90625 C -1.164062 -2.894531 -1.367188 -2.882812 -1.515625 -2.875 C -1.671875 -2.863281 -1.753906 -2.859375 -1.765625 -2.859375 L -1.78125 -2.859375 C -1.820312 -2.847656 -1.859375 -2.859375 -1.890625 -2.890625 C -1.929688 -2.921875 -1.953125 -2.960938 -1.953125 -3.015625 C -1.953125 -3.054688 -1.9375 -3.09375 -1.90625 -3.125 C -1.875 -3.15625 -1.835938 -3.171875 -1.796875 -3.171875 C -1.785156 -3.171875 -1.695312 -3.175781 -1.53125 -3.1875 C -1.375 -3.207031 -1.160156 -3.226562 -0.890625 -3.25 C -0.617188 -3.269531 -0.320312 -3.289062 0 -3.3125 C 0.0390625 -3.3125 0.0703125 -3.328125 0.09375 -3.359375 C 0.113281 -3.390625 0.128906 -3.429688 0.140625 -3.484375 C 0.171875 -3.722656 0.21875 -3.96875 0.28125 -4.21875 C 0.34375 -4.476562 0.410156 -4.71875 0.484375 -4.9375 C 0.566406 -5.15625 0.65625 -5.332031 0.75 -5.46875 C 0.851562 -5.613281 0.960938 -5.703125 1.078125 -5.734375 C 1.117188 -5.742188 1.175781 -5.734375 1.25 -5.703125 C 1.332031 -5.679688 1.40625 -5.609375 1.46875 -5.484375 C 1.507812 -5.398438 1.515625 -5.253906 1.484375 -5.046875 C 1.460938 -4.835938 1.414062 -4.597656 1.34375 -4.328125 C 1.269531 -4.066406 1.179688 -3.789062 1.078125 -3.5 C 1.054688 -3.445312 1.054688 -3.410156 1.078125 -3.390625 C 1.097656 -3.378906 1.113281 -3.375 1.125 -3.375 C 1.53125 -3.40625 1.910156 -3.425781 2.265625 -3.4375 C 2.628906 -3.457031 2.929688 -3.46875 3.171875 -3.46875 C 3.222656 -3.46875 3.265625 -3.453125 3.296875 -3.421875 C 3.328125 -3.390625 3.34375 -3.351562 3.34375 -3.3125 C 3.34375 -3.257812 3.328125 -3.21875 3.296875 -3.1875 C 3.265625 -3.15625 3.222656 -3.140625 3.171875 -3.140625 C 2.921875 -3.140625 2.601562 -3.128906 2.21875 -3.109375 C 1.832031 -3.097656 1.429688 -3.078125 1.015625 -3.046875 C 0.984375 -3.046875 0.957031 -3.039062 0.9375 -3.03125 C 0.925781 -3.019531 0.914062 -3.003906 0.90625 -2.984375 C 0.8125 -2.722656 0.722656 -2.484375 0.640625 -2.265625 C 0.554688 -2.046875 0.488281 -1.875 0.4375 -1.75 C 0.457031 -1.550781 0.5 -1.359375 0.5625 -1.171875 C 0.625 -0.992188 0.707031 -0.835938 0.8125 -0.703125 C 0.914062 -0.566406 1.050781 -0.46875 1.21875 -0.40625 C 1.40625 -0.332031 1.601562 -0.3125 1.8125 -0.34375 C 2.019531 -0.375 2.226562 -0.4375 2.4375 -0.53125 C 2.644531 -0.632812 2.84375 -0.75 3.03125 -0.875 C 3.21875 -1 3.382812 -1.125 3.53125 -1.25 C 3.6875 -1.375 3.804688 -1.476562 3.890625 -1.5625 C 3.984375 -1.644531 4.03125 -1.6875 4.03125 -1.6875 C 4.0625 -1.71875 4.097656 -1.734375 4.140625 -1.734375 C 4.191406 -1.734375 4.234375 -1.71875 4.265625 -1.6875 Z M 0.46875 -3.484375 C 0.457031 -3.460938 0.453125 -3.429688 0.453125 -3.390625 C 0.453125 -3.359375 0.472656 -3.34375 0.515625 -3.34375 C 0.546875 -3.34375 0.578125 -3.34375 0.609375 -3.34375 C 0.671875 -3.351562 0.707031 -3.390625 0.71875 -3.453125 C 0.820312 -3.765625 0.910156 -4.050781 0.984375 -4.3125 C 1.066406 -4.582031 1.125 -4.804688 1.15625 -4.984375 C 1.1875 -5.160156 1.191406 -5.273438 1.171875 -5.328125 C 1.160156 -5.359375 1.144531 -5.378906 1.125 -5.390625 C 1.09375 -5.390625 1.070312 -5.378906 1.0625 -5.359375 C 1 -5.296875 0.929688 -5.175781 0.859375 -5 C 0.785156 -4.820312 0.710938 -4.601562 0.640625 -4.34375 C 0.566406 -4.082031 0.507812 -3.796875 0.46875 -3.484375 Z M 0.390625 -2.515625 C 0.398438 -2.515625 0.414062 -2.535156 0.4375 -2.578125 C 0.46875 -2.628906 0.492188 -2.6875 0.515625 -2.75 C 0.546875 -2.8125 0.566406 -2.867188 0.578125 -2.921875 C 0.585938 -2.972656 0.585938 -3.003906 0.578125 -3.015625 C 0.515625 -3.046875 0.457031 -3.046875 0.40625 -3.015625 C 0.394531 -2.992188 0.382812 -2.957031 0.375 -2.90625 C 0.363281 -2.851562 0.351562 -2.796875 0.34375 -2.734375 C 0.34375 -2.679688 0.34375 -2.628906 0.34375 -2.578125 C 0.351562 -2.535156 0.367188 -2.515625 0.390625 -2.515625 Z M 0.390625 -2.515625"></path></g></g></g><g fill="#a65519" fill-opacity="1"><g transform="translate(27.271057, 7.380674)"><g><path d="M 4.015625 -1.671875 C 4.046875 -1.640625 4.0625 -1.601562 4.0625 -1.5625 C 4.0625 -1.519531 4.050781 -1.484375 4.03125 -1.453125 C 4.007812 -1.429688 3.941406 -1.367188 3.828125 -1.265625 C 3.722656 -1.160156 3.578125 -1.035156 3.390625 -0.890625 C 3.210938 -0.753906 3.007812 -0.613281 2.78125 -0.46875 C 2.550781 -0.332031 2.304688 -0.21875 2.046875 -0.125 C 1.785156 -0.03125 1.519531 0.015625 1.25 0.015625 C 0.875 0.015625 0.535156 -0.0976562 0.234375 -0.328125 C 0.109375 -0.410156 0.0234375 -0.515625 -0.015625 -0.640625 C -0.0664062 -0.765625 -0.0859375 -0.894531 -0.078125 -1.03125 C -0.078125 -1.164062 -0.0546875 -1.289062 -0.015625 -1.40625 C 0.015625 -1.519531 0.046875 -1.613281 0.078125 -1.6875 C 0.109375 -1.757812 0.125 -1.800781 0.125 -1.8125 C 0.144531 -1.84375 0.175781 -1.863281 0.21875 -1.875 C 0.257812 -1.894531 0.300781 -1.894531 0.34375 -1.875 C 0.382812 -1.851562 0.410156 -1.820312 0.421875 -1.78125 C 0.441406 -1.738281 0.441406 -1.695312 0.421875 -1.65625 C 0.421875 -1.65625 0.40625 -1.628906 0.375 -1.578125 C 0.351562 -1.523438 0.328125 -1.453125 0.296875 -1.359375 C 0.273438 -1.273438 0.257812 -1.179688 0.25 -1.078125 C 0.238281 -0.984375 0.242188 -0.890625 0.265625 -0.796875 C 0.285156 -0.710938 0.335938 -0.640625 0.421875 -0.578125 C 0.609375 -0.441406 0.804688 -0.359375 1.015625 -0.328125 C 1.234375 -0.296875 1.445312 -0.304688 1.65625 -0.359375 C 1.875 -0.410156 2.085938 -0.488281 2.296875 -0.59375 C 2.503906 -0.695312 2.695312 -0.804688 2.875 -0.921875 C 3.050781 -1.046875 3.207031 -1.164062 3.34375 -1.28125 C 3.476562 -1.394531 3.582031 -1.488281 3.65625 -1.5625 C 3.738281 -1.632812 3.785156 -1.671875 3.796875 -1.671875 C 3.828125 -1.703125 3.863281 -1.71875 3.90625 -1.71875 C 3.945312 -1.71875 3.984375 -1.703125 4.015625 -1.671875 Z M 0.0625 -2.171875 C -0.0195312 -2.171875 -0.0703125 -2.207031 -0.09375 -2.28125 C -0.113281 -2.363281 -0.0859375 -2.425781 -0.015625 -2.46875 C 0.0976562 -2.53125 0.203125 -2.609375 0.296875 -2.703125 C 0.328125 -2.734375 0.363281 -2.75 0.40625 -2.75 C 0.445312 -2.75 0.484375 -2.734375 0.515625 -2.703125 C 0.554688 -2.671875 0.578125 -2.632812 0.578125 -2.59375 C 0.578125 -2.550781 0.5625 -2.515625 0.53125 -2.484375 C 0.414062 -2.359375 0.285156 -2.257812 0.140625 -2.1875 C 0.109375 -2.175781 0.0820312 -2.171875 0.0625 -2.171875 Z M 0.0625 -2.171875"></path></g></g></g><g fill="#a65519" fill-opacity="1"><g transform="translate(31.081365, 7.380674)"><g><path d="M 5.234375 -1.546875 C 5.265625 -1.515625 5.273438 -1.476562 5.265625 -1.4375 C 5.265625 -1.382812 5.25 -1.347656 5.21875 -1.328125 C 4.707031 -0.898438 4.140625 -0.570312 3.515625 -0.34375 C 2.898438 -0.113281 2.265625 0 1.609375 0 C 1.285156 0 0.960938 -0.03125 0.640625 -0.09375 C 0.378906 -0.132812 0.179688 -0.203125 0.046875 -0.296875 C -0.078125 -0.390625 -0.160156 -0.488281 -0.203125 -0.59375 C -0.242188 -0.695312 -0.265625 -0.789062 -0.265625 -0.875 C -0.265625 -1.03125 -0.21875 -1.191406 -0.125 -1.359375 C -0.0390625 -1.523438 0.0703125 -1.675781 0.21875 -1.8125 C 0.363281 -1.957031 0.515625 -2.078125 0.671875 -2.171875 C 0.828125 -2.265625 0.972656 -2.320312 1.109375 -2.34375 C 1.359375 -2.414062 1.585938 -2.375 1.796875 -2.21875 C 1.960938 -2.0625 2.046875 -1.863281 2.046875 -1.625 C 2.046875 -1.582031 2.03125 -1.546875 2 -1.515625 C 1.96875 -1.484375 1.925781 -1.46875 1.875 -1.46875 C 1.832031 -1.46875 1.796875 -1.484375 1.765625 -1.515625 C 1.734375 -1.546875 1.71875 -1.582031 1.71875 -1.625 C 1.71875 -1.757812 1.671875 -1.875 1.578125 -1.96875 C 1.453125 -2.050781 1.316406 -2.070312 1.171875 -2.03125 C 1.054688 -2.007812 0.9375 -1.957031 0.8125 -1.875 C 0.6875 -1.789062 0.566406 -1.691406 0.453125 -1.578125 C 0.335938 -1.472656 0.242188 -1.351562 0.171875 -1.21875 C 0.0976562 -1.09375 0.0625 -0.976562 0.0625 -0.875 C 0.0625 -0.632812 0.273438 -0.476562 0.703125 -0.40625 C 1.117188 -0.332031 1.507812 -0.304688 1.875 -0.328125 C 2.25 -0.347656 2.597656 -0.398438 2.921875 -0.484375 C 3.242188 -0.578125 3.53125 -0.679688 3.78125 -0.796875 C 4.03125 -0.921875 4.242188 -1.039062 4.421875 -1.15625 C 4.609375 -1.269531 4.75 -1.363281 4.84375 -1.4375 C 4.945312 -1.519531 5 -1.5625 5 -1.5625 C 5.03125 -1.59375 5.066406 -1.601562 5.109375 -1.59375 C 5.160156 -1.59375 5.203125 -1.578125 5.234375 -1.546875 Z M 5.234375 -1.546875"></path></g></g></g><g clip-path="url(#e105007fe3)"><g fill="#a65519" fill-opacity="1"><g transform="translate(36.052142, 7.380674)"><g><path d="M 4.265625 -1.71875 C 4.296875 -1.6875 4.3125 -1.644531 4.3125 -1.59375 C 4.3125 -1.550781 4.296875 -1.515625 4.265625 -1.484375 C 4.085938 -1.316406 3.878906 -1.148438 3.640625 -0.984375 C 3.410156 -0.828125 3.160156 -0.6875 2.890625 -0.5625 C 2.617188 -0.4375 2.34375 -0.335938 2.0625 -0.265625 C 1.78125 -0.191406 1.507812 -0.15625 1.25 -0.15625 C 1.132812 -0.15625 1.03125 -0.160156 0.9375 -0.171875 C 0.726562 -0.191406 0.535156 -0.253906 0.359375 -0.359375 C 0.191406 -0.472656 0.0546875 -0.617188 -0.046875 -0.796875 C -0.0664062 -0.828125 -0.0703125 -0.863281 -0.0625 -0.90625 C -0.0507812 -0.945312 -0.03125 -0.984375 0 -1.015625 C 0.0390625 -1.035156 0.0820312 -1.039062 0.125 -1.03125 C 0.164062 -1.019531 0.203125 -1 0.234375 -0.96875 C 0.316406 -0.84375 0.425781 -0.75 0.5625 -0.6875 C 0.695312 -0.625 0.835938 -0.59375 0.984375 -0.59375 C 1.128906 -0.601562 1.265625 -0.644531 1.390625 -0.71875 C 1.484375 -0.757812 1.535156 -0.832031 1.546875 -0.9375 C 1.566406 -1.03125 1.539062 -1.113281 1.46875 -1.1875 C 1.40625 -1.257812 1.328125 -1.328125 1.234375 -1.390625 C 1.066406 -1.484375 0.925781 -1.613281 0.8125 -1.78125 C 0.789062 -1.8125 0.765625 -1.828125 0.734375 -1.828125 C 0.703125 -1.835938 0.675781 -1.832031 0.65625 -1.8125 L 0.1875 -1.359375 C 0.132812 -1.316406 0.078125 -1.304688 0.015625 -1.328125 C -0.046875 -1.335938 -0.0820312 -1.375 -0.09375 -1.4375 C -0.113281 -1.5 -0.0976562 -1.550781 -0.046875 -1.59375 L 0.90625 -2.5 C 1.007812 -2.625 1.128906 -2.734375 1.265625 -2.828125 C 1.304688 -2.859375 1.347656 -2.867188 1.390625 -2.859375 C 1.429688 -2.859375 1.46875 -2.84375 1.5 -2.8125 C 1.519531 -2.78125 1.53125 -2.738281 1.53125 -2.6875 C 1.53125 -2.644531 1.515625 -2.613281 1.484375 -2.59375 L 1.140625 -2.265625 C 1.085938 -2.203125 1.054688 -2.128906 1.046875 -2.046875 C 1.046875 -1.972656 1.085938 -1.90625 1.171875 -1.84375 C 1.253906 -1.78125 1.335938 -1.71875 1.421875 -1.65625 C 1.554688 -1.570312 1.664062 -1.472656 1.75 -1.359375 C 1.820312 -1.265625 1.863281 -1.15625 1.875 -1.03125 C 1.882812 -0.90625 1.863281 -0.789062 1.8125 -0.6875 C 1.789062 -0.65625 1.789062 -0.625 1.8125 -0.59375 C 1.832031 -0.5625 1.863281 -0.550781 1.90625 -0.5625 C 2.71875 -0.757812 3.425781 -1.144531 4.03125 -1.71875 C 4.0625 -1.75 4.097656 -1.765625 4.140625 -1.765625 C 4.191406 -1.765625 4.234375 -1.75 4.265625 -1.71875 Z M 4.265625 -1.71875"></path></g></g></g></g></g></g></svg>