<svg xmlns="http://www.w3.org/2000/svg" xmlns:xlink="http://www.w3.org/1999/xlink" width="336" zoomAndPan="magnify" viewBox="0 0 252 143.999998" height="192" preserveAspectRatio="xMidYMid meet" version="1.0"><defs><g/><clipPath id="d0bf697486"><path d="M 186 99 L 187 99 L 187 116.355469 L 186 116.355469 Z M 186 99 " clip-rule="nonzero"/></clipPath><clipPath id="24aab62402"><path d="M 186 15.105469 L 187 15.105469 L 187 33 L 186 33 Z M 186 15.105469 " clip-rule="nonzero"/></clipPath><clipPath id="93358a698f"><path d="M 219 65 L 236.871094 65 L 236.871094 67 L 219 67 Z M 219 65 " clip-rule="nonzero"/></clipPath><clipPath id="6cdd08b78d"><path d="M 150.621094 89 L 164 89 L 164 102 L 150.621094 102 Z M 150.621094 89 " clip-rule="nonzero"/></clipPath><clipPath id="b2d6a602ce"><path d="M 150.621094 29 L 164 29 L 164 43 L 150.621094 43 Z M 150.621094 29 " clip-rule="nonzero"/></clipPath><clipPath id="80394075e8"><rect x="0" width="164" y="0" height="26"/></clipPath><clipPath id="2448eba8b3"><path d="M 0.320312 8 L 12 8 L 12 13 L 0.320312 13 Z M 0.320312 8 " clip-rule="nonzero"/></clipPath><clipPath id="29311eccee"><rect x="0" width="78" y="0" height="20"/></clipPath><clipPath id="d676a9fc1c"><rect x="0" width="163" y="0" height="11"/></clipPath></defs><g clip-path="url(#d0bf697486)"><path fill="#a65519" d="M 186.480469 99.03125 C 186.390625 99.03125 186.3125 99.0625 186.25 99.125 C 186.183594 99.191406 186.152344 99.269531 186.152344 99.359375 L 186.152344 115.910156 C 186.152344 116 186.1875 116.078125 186.25 116.140625 C 186.3125 116.207031 186.390625 116.238281 186.480469 116.238281 C 186.570312 116.238281 186.648438 116.207031 186.710938 116.140625 C 186.773438 116.078125 186.808594 116 186.808594 115.910156 L 186.808594 99.359375 C 186.808594 99.269531 186.777344 99.191406 186.710938 99.125 C 186.648438 99.0625 186.570312 99.03125 186.480469 99.03125 Z M 186.480469 99.03125 " fill-opacity="1" fill-rule="nonzero"/></g><g clip-path="url(#24aab62402)"><path fill="#a65519" d="M 186.457031 32.4375 C 186.546875 32.4375 186.625 32.40625 186.6875 32.34375 C 186.753906 32.277344 186.785156 32.203125 186.785156 32.113281 L 186.785156 15.523438 C 186.792969 15.429688 186.765625 15.347656 186.699219 15.277344 C 186.632812 15.207031 186.554688 15.171875 186.460938 15.171875 C 186.363281 15.171875 186.285156 15.207031 186.21875 15.277344 C 186.15625 15.347656 186.125 15.429688 186.132812 15.523438 L 186.132812 32.113281 C 186.132812 32.203125 186.164062 32.277344 186.226562 32.34375 C 186.292969 32.40625 186.367188 32.4375 186.457031 32.4375 Z M 186.457031 32.4375 " fill-opacity="1" fill-rule="nonzero"/></g><g clip-path="url(#93358a698f)"><path fill="#a65519" d="M 236.660156 65.371094 L 220.089844 65.371094 C 219.996094 65.363281 219.914062 65.394531 219.84375 65.457031 C 219.773438 65.523438 219.738281 65.601562 219.738281 65.699219 C 219.738281 65.792969 219.773438 65.871094 219.84375 65.9375 C 219.914062 66.003906 219.996094 66.03125 220.089844 66.023438 L 236.660156 66.023438 C 236.75 66.023438 236.828125 65.992188 236.890625 65.929688 C 236.957031 65.863281 236.988281 65.785156 236.988281 65.695312 C 236.988281 65.605469 236.957031 65.527344 236.890625 65.464844 C 236.828125 65.402344 236.75 65.371094 236.660156 65.371094 Z M 236.660156 65.371094 " fill-opacity="1" fill-rule="nonzero"/></g><g clip-path="url(#6cdd08b78d)"><path fill="#a65519" d="M 163.066406 89.457031 C 163.066406 89.3125 162.996094 89.214844 162.863281 89.160156 C 162.730469 89.101562 162.613281 89.125 162.507812 89.226562 L 150.761719 100.992188 C 150.660156 101.09375 150.636719 101.210938 150.691406 101.347656 C 150.746094 101.480469 150.84375 101.546875 150.988281 101.546875 C 151.078125 101.546875 151.15625 101.515625 151.21875 101.453125 L 162.972656 89.6875 C 163.035156 89.625 163.066406 89.546875 163.066406 89.457031 Z M 163.066406 89.457031 " fill-opacity="1" fill-rule="nonzero"/></g><path fill="#a65519" d="M 209.953125 42.214844 C 210.015625 42.277344 210.09375 42.308594 210.183594 42.308594 C 210.273438 42.308594 210.351562 42.277344 210.414062 42.214844 L 222.179688 30.445312 C 222.246094 30.382812 222.28125 30.304688 222.28125 30.210938 C 222.28125 30.121094 222.25 30.039062 222.1875 29.976562 C 222.121094 29.910156 222.042969 29.878906 221.949219 29.878906 C 221.855469 29.882812 221.78125 29.914062 221.714844 29.980469 L 209.953125 41.753906 C 209.890625 41.816406 209.859375 41.894531 209.859375 41.984375 C 209.859375 42.074219 209.890625 42.152344 209.953125 42.214844 Z M 209.953125 42.214844 " fill-opacity="1" fill-rule="nonzero"/><g clip-path="url(#b2d6a602ce)"><path fill="#a65519" d="M 162.515625 42.246094 C 162.578125 42.320312 162.65625 42.355469 162.75 42.359375 C 162.84375 42.363281 162.925781 42.332031 162.992188 42.265625 C 163.058594 42.195312 163.09375 42.117188 163.089844 42.019531 C 163.085938 41.925781 163.046875 41.847656 162.976562 41.785156 L 151.199219 30.003906 C 151.132812 29.945312 151.058594 29.914062 150.96875 29.914062 C 150.878906 29.917969 150.804688 29.949219 150.742188 30.011719 C 150.679688 30.074219 150.648438 30.148438 150.648438 30.238281 C 150.644531 30.324219 150.675781 30.402344 150.734375 30.464844 Z M 162.515625 42.246094 " fill-opacity="1" fill-rule="nonzero"/></g><path fill="#a65519" d="M 210.484375 89.253906 C 210.382812 89.148438 210.261719 89.128906 210.128906 89.183594 C 209.996094 89.238281 209.925781 89.339844 209.925781 89.484375 C 209.925781 89.574219 209.960938 89.652344 210.023438 89.714844 L 221.730469 101.421875 C 221.792969 101.496094 221.871094 101.53125 221.964844 101.535156 C 222.0625 101.539062 222.140625 101.507812 222.210938 101.4375 C 222.277344 101.371094 222.308594 101.289062 222.304688 101.195312 C 222.300781 101.101562 222.261719 101.023438 222.191406 100.960938 Z M 210.484375 89.253906 " fill-opacity="1" fill-rule="nonzero"/><path fill="#a65519" d="M 217.335938 53.066406 C 217.289062 53.175781 217.300781 53.277344 217.363281 53.375 C 217.429688 53.472656 217.519531 53.523438 217.636719 53.523438 C 217.679688 53.523438 217.71875 53.515625 217.757812 53.5 L 233.164062 47.3125 C 233.242188 47.273438 233.296875 47.214844 233.324219 47.136719 C 233.355469 47.054688 233.355469 46.976562 233.324219 46.898438 C 233.292969 46.816406 233.238281 46.761719 233.160156 46.722656 C 233.082031 46.6875 233.003906 46.679688 232.921875 46.707031 L 217.515625 52.894531 C 217.433594 52.929688 217.371094 52.984375 217.335938 53.066406 Z M 217.335938 53.066406 " fill-opacity="1" fill-rule="nonzero"/><path fill="#a65519" d="M 168.066406 19.019531 C 168.03125 18.933594 167.976562 18.875 167.890625 18.839844 C 167.808594 18.804688 167.726562 18.804688 167.640625 18.835938 C 167.558594 18.871094 167.496094 18.929688 167.460938 19.011719 C 167.425781 19.09375 167.425781 19.175781 167.460938 19.261719 L 173.652344 34.679688 C 173.710938 34.816406 173.8125 34.882812 173.957031 34.882812 C 174 34.882812 174.039062 34.875 174.078125 34.859375 C 174.164062 34.824219 174.222656 34.765625 174.257812 34.683594 C 174.292969 34.601562 174.292969 34.515625 174.257812 34.433594 Z M 168.066406 19.019531 " fill-opacity="1" fill-rule="nonzero"/><path fill="#a65519" d="M 199.308594 96.804688 C 199.273438 96.726562 199.214844 96.671875 199.132812 96.640625 C 199.050781 96.609375 198.972656 96.609375 198.890625 96.640625 C 198.808594 96.675781 198.753906 96.730469 198.714844 96.808594 C 198.679688 96.886719 198.675781 96.96875 198.703125 97.050781 L 204.875 112.410156 C 204.914062 112.488281 204.972656 112.542969 205.050781 112.570312 C 205.128906 112.601562 205.210938 112.601562 205.289062 112.570312 C 205.371094 112.539062 205.425781 112.484375 205.464844 112.40625 C 205.5 112.328125 205.507812 112.25 205.480469 112.167969 Z M 199.308594 96.804688 " fill-opacity="1" fill-rule="nonzero"/><path fill="#a65519" d="M 232.757812 85.121094 L 217.53125 78.621094 C 217.449219 78.585938 217.367188 78.585938 217.28125 78.617188 C 217.199219 78.652344 217.140625 78.710938 217.105469 78.792969 C 217.066406 78.875 217.066406 78.960938 217.105469 79.042969 C 217.136719 79.125 217.195312 79.1875 217.277344 79.222656 L 232.503906 85.722656 C 232.542969 85.738281 232.585938 85.746094 232.632812 85.75 C 232.777344 85.746094 232.875 85.679688 232.933594 85.546875 C 232.964844 85.464844 232.964844 85.378906 232.933594 85.296875 C 232.898438 85.214844 232.839844 85.15625 232.757812 85.121094 Z M 232.757812 85.121094 " fill-opacity="1" fill-rule="nonzero"/><path fill="#a65519" d="M 199.546875 35.082031 C 199.585938 35.101562 199.628906 35.109375 199.675781 35.109375 C 199.820312 35.109375 199.917969 35.042969 199.976562 34.90625 L 206.476562 19.679688 C 206.511719 19.597656 206.511719 19.515625 206.476562 19.433594 C 206.445312 19.347656 206.386719 19.289062 206.304688 19.253906 C 206.21875 19.21875 206.136719 19.21875 206.054688 19.253906 C 205.96875 19.285156 205.910156 19.34375 205.875 19.429688 L 199.375 34.652344 C 199.339844 34.738281 199.335938 34.820312 199.371094 34.902344 C 199.40625 34.988281 199.460938 35.046875 199.546875 35.082031 Z M 199.546875 35.082031 " fill-opacity="1" fill-rule="nonzero"/><path fill="#a65519" d="M 173.398438 96.328125 C 173.316406 96.296875 173.234375 96.292969 173.148438 96.328125 C 173.066406 96.363281 173.007812 96.417969 172.96875 96.5 L 166.464844 111.746094 C 166.429688 111.828125 166.429688 111.914062 166.464844 111.996094 C 166.496094 112.082031 166.554688 112.140625 166.640625 112.175781 C 166.679688 112.191406 166.722656 112.203125 166.765625 112.199219 C 166.910156 112.199219 167.011719 112.132812 167.066406 112 L 173.570312 96.75 C 173.605469 96.667969 173.605469 96.589844 173.570312 96.507812 C 173.539062 96.425781 173.480469 96.367188 173.398438 96.328125 Z M 173.398438 96.328125 " fill-opacity="1" fill-rule="nonzero"/><path fill="#a65519" d="M 179.988281 98.367188 C 179.902344 98.347656 179.820312 98.367188 179.746094 98.414062 C 179.671875 98.460938 179.625 98.53125 179.605469 98.617188 L 177.96875 106.871094 C 177.949219 106.957031 177.964844 107.039062 178.015625 107.117188 C 178.082031 107.210938 178.171875 107.257812 178.285156 107.257812 C 178.464844 107.257812 178.574219 107.171875 178.609375 106.996094 L 180.246094 98.746094 C 180.261719 98.65625 180.246094 98.574219 180.195312 98.5 C 180.144531 98.429688 180.074219 98.382812 179.988281 98.367188 Z M 179.988281 98.367188 " fill-opacity="1" fill-rule="nonzero"/><path fill="#a65519" d="M 194.742188 24.039062 C 194.652344 24.023438 194.570312 24.039062 194.496094 24.089844 C 194.421875 24.136719 194.375 24.207031 194.355469 24.296875 L 192.691406 32.683594 C 192.671875 32.773438 192.691406 32.855469 192.742188 32.929688 C 192.789062 33.003906 192.855469 33.050781 192.941406 33.070312 C 192.964844 33.070312 192.984375 33.070312 193.007812 33.070312 C 193.183594 33.066406 193.289062 32.980469 193.324219 32.804688 L 194.992188 24.417969 C 195.007812 24.332031 194.992188 24.25 194.941406 24.179688 C 194.894531 24.105469 194.828125 24.058594 194.742188 24.039062 Z M 194.742188 24.039062 " fill-opacity="1" fill-rule="nonzero"/><path fill="#a65519" d="M 219.289062 71.992188 C 219.214844 72.039062 219.167969 72.105469 219.148438 72.191406 C 219.132812 72.28125 219.148438 72.363281 219.195312 72.4375 C 219.246094 72.511719 219.3125 72.558594 219.398438 72.578125 L 227.652344 74.214844 C 227.671875 74.214844 227.695312 74.214844 227.714844 74.214844 C 227.894531 74.210938 228 74.125 228.035156 73.949219 C 228.054688 73.859375 228.035156 73.777344 227.988281 73.703125 C 227.9375 73.628906 227.871094 73.585938 227.785156 73.566406 L 219.535156 71.929688 C 219.445312 71.914062 219.363281 71.933594 219.289062 71.992188 Z M 219.289062 71.992188 " fill-opacity="1" fill-rule="nonzero"/><path fill="#a65519" d="M 221.769531 42.105469 C 221.722656 42.03125 221.652344 41.984375 221.5625 41.964844 C 221.476562 41.949219 221.394531 41.964844 221.320312 42.015625 L 214.1875 46.78125 C 214.113281 46.832031 214.066406 46.902344 214.050781 46.992188 C 214.035156 47.078125 214.050781 47.160156 214.101562 47.234375 C 214.148438 47.3125 214.21875 47.359375 214.308594 47.375 C 214.394531 47.390625 214.476562 47.375 214.550781 47.324219 L 221.683594 42.554688 C 221.757812 42.507812 221.804688 42.4375 221.820312 42.347656 C 221.835938 42.261719 221.820312 42.179688 221.769531 42.105469 Z M 221.769531 42.105469 " fill-opacity="1" fill-rule="nonzero"/><path fill="#a65519" d="M 167.539062 37.996094 C 167.617188 38.113281 167.730469 38.160156 167.871094 38.132812 C 168.015625 38.105469 168.097656 38.019531 168.128906 37.878906 C 168.144531 37.789062 168.128906 37.707031 168.082031 37.632812 L 163.269531 30.433594 C 163.214844 30.363281 163.148438 30.320312 163.0625 30.304688 C 162.976562 30.292969 162.894531 30.308594 162.824219 30.355469 C 162.75 30.40625 162.703125 30.472656 162.683594 30.558594 C 162.667969 30.644531 162.679688 30.722656 162.726562 30.796875 Z M 167.539062 37.996094 " fill-opacity="1" fill-rule="nonzero"/><path fill="#a65519" d="M 205.445312 93.503906 C 205.394531 93.429688 205.328125 93.382812 205.238281 93.363281 C 205.148438 93.347656 205.070312 93.363281 204.992188 93.414062 C 204.917969 93.460938 204.875 93.527344 204.855469 93.613281 C 204.835938 93.703125 204.851562 93.785156 204.902344 93.859375 L 209.605469 100.890625 C 209.6875 101.007812 209.792969 101.050781 209.933594 101.027344 C 210.070312 101.003906 210.15625 100.925781 210.191406 100.789062 C 210.210938 100.699219 210.191406 100.621094 210.144531 100.546875 Z M 205.445312 93.503906 " fill-opacity="1" fill-rule="nonzero"/><path fill="#a65519" d="M 228.171875 57.882812 C 228.15625 57.792969 228.109375 57.726562 228.035156 57.675781 C 227.960938 57.625 227.878906 57.605469 227.789062 57.621094 L 219.433594 59.191406 C 219.242188 59.226562 219.15625 59.34375 219.171875 59.539062 C 219.191406 59.738281 219.296875 59.835938 219.492188 59.839844 L 219.554688 59.839844 L 227.910156 58.269531 C 228 58.253906 228.070312 58.207031 228.121094 58.128906 C 228.171875 58.054688 228.1875 57.972656 228.171875 57.882812 Z M 228.171875 57.882812 " fill-opacity="1" fill-rule="nonzero"/><path fill="#a65519" d="M 179.023438 24.304688 C 179.003906 24.222656 178.957031 24.15625 178.882812 24.109375 C 178.808594 24.0625 178.730469 24.046875 178.644531 24.0625 C 178.5625 24.078125 178.492188 24.121094 178.441406 24.191406 C 178.390625 24.261719 178.371094 24.339844 178.382812 24.425781 L 179.949219 32.78125 C 179.984375 32.957031 180.089844 33.046875 180.269531 33.046875 C 180.292969 33.046875 180.3125 33.046875 180.332031 33.046875 C 180.421875 33.03125 180.488281 32.984375 180.542969 32.910156 C 180.59375 32.835938 180.609375 32.753906 180.59375 32.667969 Z M 179.023438 24.304688 " fill-opacity="1" fill-rule="nonzero"/><path fill="#a65519" d="M 192.992188 98.675781 C 192.980469 98.585938 192.933594 98.511719 192.859375 98.457031 C 192.785156 98.402344 192.699219 98.382812 192.609375 98.402344 C 192.515625 98.417969 192.445312 98.464844 192.394531 98.542969 C 192.34375 98.625 192.328125 98.707031 192.351562 98.796875 L 193.914062 107.132812 C 193.949219 107.308594 194.054688 107.398438 194.234375 107.398438 C 194.257812 107.398438 194.277344 107.398438 194.296875 107.398438 C 194.386719 107.382812 194.457031 107.335938 194.507812 107.261719 C 194.558594 107.1875 194.574219 107.105469 194.558594 107.019531 Z M 192.992188 98.675781 " fill-opacity="1" fill-rule="nonzero"/><path fill="#a65519" d="M 213.96875 84.519531 C 213.917969 84.59375 213.902344 84.675781 213.917969 84.761719 C 213.9375 84.847656 213.980469 84.917969 214.054688 84.964844 L 221 89.714844 C 221.074219 89.765625 221.15625 89.78125 221.242188 89.765625 C 221.332031 89.75 221.402344 89.703125 221.453125 89.628906 C 221.503906 89.554688 221.523438 89.472656 221.503906 89.382812 C 221.484375 89.296875 221.441406 89.230469 221.367188 89.183594 L 214.429688 84.4375 C 214.355469 84.382812 214.273438 84.363281 214.183594 84.378906 C 214.089844 84.394531 214.019531 84.441406 213.96875 84.519531 Z M 213.96875 84.519531 " fill-opacity="1" fill-rule="nonzero"/><path fill="#a65519" d="M 205.25 38.246094 C 205.324219 38.296875 205.40625 38.3125 205.496094 38.296875 C 205.582031 38.28125 205.652344 38.234375 205.703125 38.160156 L 210.523438 31.109375 C 210.617188 30.9375 210.582031 30.796875 210.421875 30.6875 C 210.261719 30.574219 210.117188 30.59375 209.988281 30.742188 L 205.164062 37.792969 C 205.113281 37.867188 205.097656 37.949219 205.113281 38.039062 C 205.128906 38.125 205.175781 38.195312 205.25 38.246094 Z M 205.25 38.246094 " fill-opacity="1" fill-rule="nonzero"/><path fill="#a65519" d="M 167.820312 93.398438 C 167.800781 93.3125 167.757812 93.242188 167.683594 93.195312 C 167.609375 93.144531 167.527344 93.128906 167.441406 93.144531 C 167.351562 93.160156 167.28125 93.207031 167.230469 93.28125 L 162.414062 100.324219 C 162.363281 100.398438 162.347656 100.480469 162.363281 100.570312 C 162.378906 100.65625 162.425781 100.726562 162.5 100.777344 C 162.554688 100.816406 162.617188 100.835938 162.683594 100.835938 C 162.800781 100.835938 162.886719 100.789062 162.953125 100.691406 L 167.769531 93.648438 C 167.820312 93.570312 167.839844 93.488281 167.820312 93.398438 Z M 167.820312 93.398438 " fill-opacity="1" fill-rule="nonzero"/><g transform="matrix(1, 0, 0, 1, 23, 53)"><g clip-path="url(#80394075e8)"><g fill="#a65519" fill-opacity="1"><g transform="translate(0.45294, 19.403978)"><g><path d="M 1.3125 0 L 1.3125 -0.265625 C 1.53125 -0.328125 1.707031 -0.429688 1.84375 -0.578125 C 1.988281 -0.734375 2.09375 -0.992188 2.15625 -1.359375 C 2.21875 -1.734375 2.25 -2.285156 2.25 -3.015625 L 2.25 -13.59375 C 2.25 -14.320312 2.21875 -14.875 2.15625 -15.25 C 2.09375 -15.625 1.988281 -15.890625 1.84375 -16.046875 C 1.707031 -16.203125 1.53125 -16.304688 1.3125 -16.359375 L 1.3125 -16.609375 L 4.53125 -16.609375 L 4.53125 -16.359375 C 4.3125 -16.304688 4.128906 -16.203125 3.984375 -16.046875 C 3.847656 -15.890625 3.742188 -15.625 3.671875 -15.25 C 3.609375 -14.875 3.578125 -14.320312 3.578125 -13.59375 L 3.578125 -1.265625 C 3.578125 -0.628906 3.894531 -0.3125 4.53125 -0.3125 L 8.328125 -0.3125 C 9.046875 -0.3125 9.628906 -0.378906 10.078125 -0.515625 C 10.523438 -0.648438 10.894531 -0.867188 11.1875 -1.171875 C 11.476562 -1.484375 11.742188 -1.890625 11.984375 -2.390625 L 12.203125 -2.34375 L 12.0625 0 Z M 1.3125 0 "/></g></g></g><g fill="#a65519" fill-opacity="1"><g transform="translate(17.235221, 19.403978)"><g><path d="M 1.3125 0 L 1.3125 -0.265625 C 1.53125 -0.328125 1.707031 -0.429688 1.84375 -0.578125 C 1.988281 -0.734375 2.09375 -0.992188 2.15625 -1.359375 C 2.21875 -1.734375 2.25 -2.285156 2.25 -3.015625 L 2.25 -13.59375 C 2.25 -14.320312 2.21875 -14.875 2.15625 -15.25 C 2.09375 -15.625 1.988281 -15.890625 1.84375 -16.046875 C 1.707031 -16.203125 1.53125 -16.304688 1.3125 -16.359375 L 1.3125 -16.609375 L 4.53125 -16.609375 L 4.53125 -16.359375 C 4.3125 -16.304688 4.128906 -16.203125 3.984375 -16.046875 C 3.847656 -15.890625 3.742188 -15.625 3.671875 -15.25 C 3.609375 -14.875 3.578125 -14.320312 3.578125 -13.59375 L 3.578125 -3.015625 C 3.578125 -2.285156 3.609375 -1.734375 3.671875 -1.359375 C 3.742188 -0.992188 3.847656 -0.734375 3.984375 -0.578125 C 4.128906 -0.429688 4.3125 -0.328125 4.53125 -0.265625 L 4.53125 0 Z M 1.3125 0 "/></g></g></g><g fill="#a65519" fill-opacity="1"><g transform="translate(27.109945, 19.403978)"><g><path d="M 5.015625 0 L 5.015625 -0.265625 C 5.234375 -0.328125 5.410156 -0.429688 5.546875 -0.578125 C 5.691406 -0.734375 5.796875 -0.992188 5.859375 -1.359375 C 5.921875 -1.734375 5.953125 -2.285156 5.953125 -3.015625 L 5.953125 -16.3125 L 4.3125 -16.3125 C 3.601562 -16.3125 3.023438 -16.242188 2.578125 -16.109375 C 2.128906 -15.972656 1.753906 -15.75 1.453125 -15.4375 C 1.160156 -15.125 0.898438 -14.71875 0.671875 -14.21875 L 0.453125 -14.265625 L 0.59375 -16.609375 L 12.625 -16.609375 L 12.765625 -14.265625 L 12.5625 -14.21875 C 12.320312 -14.71875 12.054688 -15.125 11.765625 -15.4375 C 11.472656 -15.75 11.097656 -15.972656 10.640625 -16.109375 C 10.191406 -16.242188 9.613281 -16.3125 8.90625 -16.3125 L 7.3125 -16.3125 L 7.3125 -3.015625 C 7.3125 -2.285156 7.34375 -1.734375 7.40625 -1.359375 C 7.46875 -0.992188 7.566406 -0.734375 7.703125 -0.578125 C 7.847656 -0.429688 8.035156 -0.328125 8.265625 -0.265625 L 8.265625 0 Z M 5.015625 0 "/></g></g></g><g fill="#a65519" fill-opacity="1"><g transform="translate(44.414449, 19.403978)"><g><path d="M 5.015625 0 L 5.015625 -0.265625 C 5.234375 -0.328125 5.410156 -0.429688 5.546875 -0.578125 C 5.691406 -0.734375 5.796875 -0.992188 5.859375 -1.359375 C 5.921875 -1.734375 5.953125 -2.285156 5.953125 -3.015625 L 5.953125 -16.3125 L 4.3125 -16.3125 C 3.601562 -16.3125 3.023438 -16.242188 2.578125 -16.109375 C 2.128906 -15.972656 1.753906 -15.75 1.453125 -15.4375 C 1.160156 -15.125 0.898438 -14.71875 0.671875 -14.21875 L 0.453125 -14.265625 L 0.59375 -16.609375 L 12.625 -16.609375 L 12.765625 -14.265625 L 12.5625 -14.21875 C 12.320312 -14.71875 12.054688 -15.125 11.765625 -15.4375 C 11.472656 -15.75 11.097656 -15.972656 10.640625 -16.109375 C 10.191406 -16.242188 9.613281 -16.3125 8.90625 -16.3125 L 7.3125 -16.3125 L 7.3125 -3.015625 C 7.3125 -2.285156 7.34375 -1.734375 7.40625 -1.359375 C 7.46875 -0.992188 7.566406 -0.734375 7.703125 -0.578125 C 7.847656 -0.429688 8.035156 -0.328125 8.265625 -0.265625 L 8.265625 0 Z M 5.015625 0 "/></g></g></g><g fill="#a65519" fill-opacity="1"><g transform="translate(61.718952, 19.403978)"><g><path d="M 1.3125 0 L 1.3125 -0.265625 C 1.53125 -0.328125 1.707031 -0.429688 1.84375 -0.578125 C 1.988281 -0.734375 2.09375 -0.992188 2.15625 -1.359375 C 2.21875 -1.734375 2.25 -2.285156 2.25 -3.015625 L 2.25 -13.59375 C 2.25 -14.320312 2.21875 -14.875 2.15625 -15.25 C 2.09375 -15.625 1.988281 -15.890625 1.84375 -16.046875 C 1.707031 -16.203125 1.53125 -16.304688 1.3125 -16.359375 L 1.3125 -16.609375 L 4.53125 -16.609375 L 4.53125 -16.359375 C 4.3125 -16.304688 4.128906 -16.203125 3.984375 -16.046875 C 3.847656 -15.890625 3.742188 -15.625 3.671875 -15.25 C 3.609375 -14.875 3.578125 -14.320312 3.578125 -13.59375 L 3.578125 -1.265625 C 3.578125 -0.628906 3.894531 -0.3125 4.53125 -0.3125 L 8.328125 -0.3125 C 9.046875 -0.3125 9.628906 -0.378906 10.078125 -0.515625 C 10.523438 -0.648438 10.894531 -0.867188 11.1875 -1.171875 C 11.476562 -1.484375 11.742188 -1.890625 11.984375 -2.390625 L 12.203125 -2.34375 L 12.0625 0 Z M 1.3125 0 "/></g></g></g><g fill="#a65519" fill-opacity="1"><g transform="translate(78.501238, 19.403978)"><g><path d="M 1.3125 0 L 1.3125 -0.265625 C 1.53125 -0.328125 1.707031 -0.429688 1.84375 -0.578125 C 1.988281 -0.734375 2.09375 -0.992188 2.15625 -1.359375 C 2.21875 -1.734375 2.25 -2.285156 2.25 -3.015625 L 2.25 -13.59375 C 2.25 -14.320312 2.21875 -14.875 2.15625 -15.25 C 2.09375 -15.625 1.988281 -15.890625 1.84375 -16.046875 C 1.707031 -16.203125 1.53125 -16.304688 1.3125 -16.359375 L 1.3125 -16.609375 L 11.96875 -16.609375 L 12.25 -13.796875 L 12.03125 -13.734375 C 11.664062 -14.671875 11.144531 -15.332031 10.46875 -15.71875 C 9.800781 -16.113281 8.929688 -16.3125 7.859375 -16.3125 L 3.578125 -16.3125 L 3.578125 -9 L 7.46875 -9 C 8.289062 -9 8.921875 -9.054688 9.359375 -9.171875 C 9.796875 -9.285156 10.101562 -9.445312 10.28125 -9.65625 C 10.46875 -9.875 10.59375 -10.128906 10.65625 -10.421875 L 10.921875 -10.421875 L 10.921875 -7.265625 L 10.65625 -7.265625 C 10.59375 -7.566406 10.46875 -7.816406 10.28125 -8.015625 C 10.101562 -8.222656 9.796875 -8.382812 9.359375 -8.5 C 8.921875 -8.625 8.289062 -8.6875 7.46875 -8.6875 L 3.578125 -8.6875 L 3.578125 -1.265625 C 3.578125 -0.628906 3.894531 -0.3125 4.53125 -0.3125 L 8.5 -0.3125 C 9.570312 -0.3125 10.4375 -0.488281 11.09375 -0.84375 C 11.75 -1.195312 12.273438 -1.875 12.671875 -2.875 L 12.890625 -2.828125 L 12.671875 0 Z M 1.3125 0 "/></g></g></g><g fill="#a65519" fill-opacity="1"><g transform="translate(96.375431, 19.403978)"><g/></g></g><g fill="#a65519" fill-opacity="1"><g transform="translate(105.632984, 19.403978)"><g><path d="M 13.40625 0.171875 C 12.84375 0.171875 12.40625 0.0234375 12.09375 -0.265625 C 11.78125 -0.566406 11.515625 -0.976562 11.296875 -1.5 C 11.085938 -2.03125 10.828125 -2.65625 10.515625 -3.375 C 10.179688 -4.132812 9.882812 -4.835938 9.625 -5.484375 C 9.375 -6.128906 9.082031 -6.6875 8.75 -7.15625 C 8.425781 -7.625 7.984375 -7.988281 7.421875 -8.25 C 6.867188 -8.507812 6.132812 -8.640625 5.21875 -8.640625 L 3.578125 -8.640625 L 3.578125 -3.015625 C 3.578125 -2.285156 3.609375 -1.734375 3.671875 -1.359375 C 3.742188 -0.992188 3.847656 -0.734375 3.984375 -0.578125 C 4.128906 -0.429688 4.3125 -0.328125 4.53125 -0.265625 L 4.53125 0 L 1.3125 0 L 1.3125 -0.265625 C 1.53125 -0.328125 1.707031 -0.429688 1.84375 -0.578125 C 1.988281 -0.734375 2.09375 -0.992188 2.15625 -1.359375 C 2.21875 -1.734375 2.25 -2.285156 2.25 -3.015625 L 2.25 -13.59375 C 2.25 -14.320312 2.21875 -14.875 2.15625 -15.25 C 2.09375 -15.625 1.988281 -15.890625 1.84375 -16.046875 C 1.707031 -16.203125 1.53125 -16.304688 1.3125 -16.359375 L 1.3125 -16.609375 L 5.671875 -16.609375 C 7.890625 -16.609375 9.476562 -16.296875 10.4375 -15.671875 C 11.40625 -15.046875 11.890625 -14.15625 11.890625 -13 C 11.890625 -11.863281 11.472656 -10.898438 10.640625 -10.109375 C 9.816406 -9.316406 8.644531 -8.84375 7.125 -8.6875 C 7.914062 -8.570312 8.554688 -8.375 9.046875 -8.09375 C 9.535156 -7.820312 9.929688 -7.472656 10.234375 -7.046875 C 10.535156 -6.617188 10.796875 -6.128906 11.015625 -5.578125 C 11.234375 -5.023438 11.46875 -4.414062 11.71875 -3.75 C 12.226562 -2.5 12.664062 -1.59375 13.03125 -1.03125 C 13.40625 -0.46875 13.785156 -0.1875 14.171875 -0.1875 C 14.242188 -0.1875 14.3125 -0.191406 14.375 -0.203125 C 14.445312 -0.210938 14.515625 -0.222656 14.578125 -0.234375 L 14.578125 0 C 14.492188 0.03125 14.34375 0.0664062 14.125 0.109375 C 13.914062 0.148438 13.675781 0.171875 13.40625 0.171875 Z M 3.578125 -8.96875 L 6.09375 -8.96875 C 7.476562 -8.96875 8.546875 -9.273438 9.296875 -9.890625 C 10.046875 -10.515625 10.421875 -11.378906 10.421875 -12.484375 C 10.421875 -13.648438 9.992188 -14.578125 9.140625 -15.265625 C 8.296875 -15.960938 6.835938 -16.3125 4.765625 -16.3125 C 4.578125 -16.3125 4.390625 -16.304688 4.203125 -16.296875 C 4.015625 -16.285156 3.804688 -16.273438 3.578125 -16.265625 Z M 3.578125 -8.96875 "/></g></g></g><g fill="#a65519" fill-opacity="1"><g transform="translate(124.0294, 19.403978)"><g><path d="M 1.3125 0 L 1.3125 -0.265625 C 1.53125 -0.328125 1.707031 -0.429688 1.84375 -0.578125 C 1.988281 -0.734375 2.09375 -0.992188 2.15625 -1.359375 C 2.21875 -1.734375 2.25 -2.285156 2.25 -3.015625 L 2.25 -13.59375 C 2.25 -14.320312 2.21875 -14.875 2.15625 -15.25 C 2.09375 -15.625 1.988281 -15.890625 1.84375 -16.046875 C 1.707031 -16.203125 1.53125 -16.304688 1.3125 -16.359375 L 1.3125 -16.609375 L 11.96875 -16.609375 L 12.25 -13.796875 L 12.03125 -13.734375 C 11.664062 -14.671875 11.144531 -15.332031 10.46875 -15.71875 C 9.800781 -16.113281 8.929688 -16.3125 7.859375 -16.3125 L 3.578125 -16.3125 L 3.578125 -9 L 7.46875 -9 C 8.289062 -9 8.921875 -9.054688 9.359375 -9.171875 C 9.796875 -9.285156 10.101562 -9.445312 10.28125 -9.65625 C 10.46875 -9.875 10.59375 -10.128906 10.65625 -10.421875 L 10.921875 -10.421875 L 10.921875 -7.265625 L 10.65625 -7.265625 C 10.59375 -7.566406 10.46875 -7.816406 10.28125 -8.015625 C 10.101562 -8.222656 9.796875 -8.382812 9.359375 -8.5 C 8.921875 -8.625 8.289062 -8.6875 7.46875 -8.6875 L 3.578125 -8.6875 L 3.578125 -1.265625 C 3.578125 -0.628906 3.894531 -0.3125 4.53125 -0.3125 L 8.5 -0.3125 C 9.570312 -0.3125 10.4375 -0.488281 11.09375 -0.84375 C 11.75 -1.195312 12.273438 -1.875 12.671875 -2.875 L 12.890625 -2.828125 L 12.671875 0 Z M 1.3125 0 "/></g></g></g><g fill="#a65519" fill-opacity="1"><g transform="translate(141.903602, 19.403978)"><g><path d="M 1.3125 0 L 1.3125 -0.265625 C 1.53125 -0.328125 1.707031 -0.429688 1.84375 -0.578125 C 1.988281 -0.734375 2.09375 -0.992188 2.15625 -1.359375 C 2.21875 -1.734375 2.25 -2.285156 2.25 -3.015625 L 2.25 -13.59375 C 2.25 -14.320312 2.21875 -14.875 2.15625 -15.25 C 2.09375 -15.625 1.988281 -15.890625 1.84375 -16.046875 C 1.707031 -16.203125 1.53125 -16.304688 1.3125 -16.359375 L 1.3125 -16.609375 L 6.71875 -16.609375 C 8.269531 -16.609375 9.613281 -16.390625 10.75 -15.953125 C 11.882812 -15.523438 12.828125 -14.9375 13.578125 -14.1875 C 14.335938 -13.445312 14.90625 -12.59375 15.28125 -11.625 C 15.664062 -10.664062 15.859375 -9.65625 15.859375 -8.59375 C 15.859375 -7.382812 15.660156 -6.257812 15.265625 -5.21875 C 14.867188 -4.175781 14.289062 -3.265625 13.53125 -2.484375 C 12.78125 -1.703125 11.878906 -1.09375 10.828125 -0.65625 C 9.773438 -0.21875 8.59375 0 7.28125 0 Z M 3.578125 -2.0625 C 3.578125 -1.507812 3.671875 -1.082031 3.859375 -0.78125 C 4.054688 -0.476562 4.476562 -0.328125 5.125 -0.328125 L 7.359375 -0.328125 C 9.617188 -0.328125 11.347656 -0.984375 12.546875 -2.296875 C 13.753906 -3.609375 14.359375 -5.46875 14.359375 -7.875 C 14.359375 -9.03125 14.164062 -10.113281 13.78125 -11.125 C 13.40625 -12.144531 12.851562 -13.039062 12.125 -13.8125 C 11.394531 -14.582031 10.507812 -15.191406 9.46875 -15.640625 C 8.425781 -16.085938 7.238281 -16.3125 5.90625 -16.3125 L 3.578125 -16.3125 Z M 3.578125 -2.0625 "/></g></g></g></g></g><g transform="matrix(1, 0, 0, 1, 64, 78)"><g clip-path="url(#29311eccee)"><g clip-path="url(#2448eba8b3)"><g fill="#a65519" fill-opacity="1"><g transform="translate(1.189936, 12.901062)"><g><path d="M 9.921875 -3.046875 C 9.972656 -2.972656 10 -2.894531 10 -2.8125 C 9.988281 -2.726562 9.945312 -2.660156 9.875 -2.609375 C 9.84375 -2.578125 9.703125 -2.46875 9.453125 -2.28125 C 9.203125 -2.101562 8.863281 -1.882812 8.4375 -1.625 C 8.007812 -1.363281 7.515625 -1.109375 6.953125 -0.859375 C 6.390625 -0.609375 5.789062 -0.398438 5.15625 -0.234375 C 4.519531 -0.0664062 3.863281 0.015625 3.1875 0.015625 C 2.375 0.0234375 1.597656 -0.117188 0.859375 -0.421875 C 0.453125 -0.585938 0.164062 -0.78125 0 -1 C -0.164062 -1.226562 -0.257812 -1.445312 -0.28125 -1.65625 C -0.300781 -1.863281 -0.296875 -2.046875 -0.265625 -2.203125 C -0.203125 -2.492188 -0.0664062 -2.773438 0.140625 -3.046875 C 0.347656 -3.316406 0.585938 -3.5625 0.859375 -3.78125 C 1.140625 -4 1.421875 -4.164062 1.703125 -4.28125 C 1.992188 -4.394531 2.257812 -4.445312 2.5 -4.4375 C 2.707031 -4.4375 2.890625 -4.359375 3.046875 -4.203125 C 3.203125 -4.054688 3.285156 -3.875 3.296875 -3.65625 C 3.304688 -3.53125 3.273438 -3.375 3.203125 -3.1875 C 3.128906 -3 2.945312 -2.8125 2.65625 -2.625 C 1.988281 -2.207031 1.257812 -2.019531 0.46875 -2.0625 C 0.425781 -2.070312 0.390625 -2.066406 0.359375 -2.046875 C 0.328125 -2.023438 0.3125 -1.992188 0.3125 -1.953125 C 0.3125 -1.878906 0.320312 -1.785156 0.34375 -1.671875 C 0.363281 -1.566406 0.425781 -1.453125 0.53125 -1.328125 C 0.644531 -1.210938 0.832031 -1.101562 1.09375 -1 C 1.632812 -0.769531 2.1875 -0.640625 2.75 -0.609375 C 3.3125 -0.578125 3.863281 -0.613281 4.40625 -0.71875 C 4.957031 -0.820312 5.484375 -0.96875 5.984375 -1.15625 C 6.484375 -1.34375 6.941406 -1.546875 7.359375 -1.765625 C 7.785156 -1.984375 8.15625 -2.191406 8.46875 -2.390625 C 8.78125 -2.585938 9.023438 -2.753906 9.203125 -2.890625 C 9.390625 -3.023438 9.484375 -3.09375 9.484375 -3.09375 C 9.554688 -3.144531 9.632812 -3.164062 9.71875 -3.15625 C 9.800781 -3.144531 9.867188 -3.109375 9.921875 -3.046875 Z M 0.734375 -2.796875 C 0.648438 -2.671875 0.660156 -2.601562 0.765625 -2.59375 C 0.867188 -2.582031 1.019531 -2.601562 1.21875 -2.65625 C 1.414062 -2.71875 1.617188 -2.796875 1.828125 -2.890625 C 2.035156 -2.984375 2.203125 -3.066406 2.328125 -3.140625 C 2.578125 -3.304688 2.691406 -3.457031 2.671875 -3.59375 C 2.660156 -3.675781 2.640625 -3.734375 2.609375 -3.765625 C 2.578125 -3.796875 2.523438 -3.816406 2.453125 -3.828125 C 2.203125 -3.835938 1.910156 -3.742188 1.578125 -3.546875 C 1.253906 -3.359375 0.972656 -3.109375 0.734375 -2.796875 Z M 0.734375 -2.796875 "/></g></g></g></g><g fill="#a65519" fill-opacity="1"><g transform="translate(10.662647, 12.901062)"><g><path d="M 8.125 -3.28125 C 8.175781 -3.21875 8.203125 -3.144531 8.203125 -3.0625 C 8.203125 -2.976562 8.175781 -2.90625 8.125 -2.84375 C 7.800781 -2.519531 7.414062 -2.203125 6.96875 -1.890625 C 6.519531 -1.585938 6.035156 -1.316406 5.515625 -1.078125 C 4.992188 -0.835938 4.460938 -0.644531 3.921875 -0.5 C 3.390625 -0.363281 2.875 -0.296875 2.375 -0.296875 C 2.164062 -0.296875 1.96875 -0.304688 1.78125 -0.328125 C 1.382812 -0.359375 1.019531 -0.476562 0.6875 -0.6875 C 0.363281 -0.894531 0.101562 -1.171875 -0.09375 -1.515625 C -0.132812 -1.585938 -0.144531 -1.660156 -0.125 -1.734375 C -0.101562 -1.816406 -0.0546875 -1.878906 0.015625 -1.921875 C 0.0859375 -1.972656 0.160156 -1.988281 0.234375 -1.96875 C 0.316406 -1.945312 0.382812 -1.898438 0.4375 -1.828125 C 0.613281 -1.597656 0.828125 -1.425781 1.078125 -1.3125 C 1.328125 -1.195312 1.585938 -1.140625 1.859375 -1.140625 C 2.140625 -1.140625 2.40625 -1.210938 2.65625 -1.359375 C 2.820312 -1.453125 2.921875 -1.59375 2.953125 -1.78125 C 2.992188 -1.96875 2.945312 -2.128906 2.8125 -2.265625 C 2.675781 -2.410156 2.523438 -2.535156 2.359375 -2.640625 C 2.035156 -2.835938 1.757812 -3.085938 1.53125 -3.390625 C 1.5 -3.453125 1.453125 -3.484375 1.390625 -3.484375 C 1.328125 -3.492188 1.273438 -3.476562 1.234375 -3.4375 L 0.34375 -2.59375 C 0.257812 -2.507812 0.15625 -2.484375 0.03125 -2.515625 C -0.0820312 -2.546875 -0.148438 -2.625 -0.171875 -2.75 C -0.203125 -2.863281 -0.171875 -2.960938 -0.078125 -3.046875 L 1.734375 -4.75 C 1.929688 -5 2.160156 -5.21875 2.421875 -5.40625 C 2.484375 -5.445312 2.554688 -5.460938 2.640625 -5.453125 C 2.722656 -5.453125 2.789062 -5.421875 2.84375 -5.359375 C 2.90625 -5.296875 2.929688 -5.222656 2.921875 -5.140625 C 2.910156 -5.054688 2.878906 -4.988281 2.828125 -4.9375 L 2.171875 -4.328125 C 2.066406 -4.210938 2.015625 -4.078125 2.015625 -3.921875 C 2.015625 -3.773438 2.085938 -3.640625 2.234375 -3.515625 C 2.390625 -3.390625 2.550781 -3.265625 2.71875 -3.140625 C 2.96875 -3.003906 3.175781 -2.828125 3.34375 -2.609375 C 3.476562 -2.410156 3.554688 -2.195312 3.578125 -1.96875 C 3.597656 -1.738281 3.550781 -1.519531 3.4375 -1.3125 C 3.40625 -1.25 3.414062 -1.191406 3.46875 -1.140625 C 3.507812 -1.078125 3.5625 -1.054688 3.625 -1.078125 C 5.175781 -1.441406 6.53125 -2.175781 7.6875 -3.28125 C 7.738281 -3.34375 7.8125 -3.375 7.90625 -3.375 C 7.988281 -3.375 8.0625 -3.34375 8.125 -3.28125 Z M 8.125 -3.28125 "/></g></g></g><g fill="#a65519" fill-opacity="1"><g transform="translate(18.30231, 12.901062)"><g><path d="M 8.125 -3.21875 C 8.1875 -3.164062 8.21875 -3.09375 8.21875 -3 C 8.21875 -2.914062 8.1875 -2.84375 8.125 -2.78125 C 8.101562 -2.757812 7.988281 -2.648438 7.78125 -2.453125 C 7.570312 -2.265625 7.296875 -2.03125 6.953125 -1.75 C 6.617188 -1.476562 6.238281 -1.210938 5.8125 -0.953125 C 5.382812 -0.691406 4.9375 -0.46875 4.46875 -0.28125 C 4 -0.101562 3.523438 -0.015625 3.046875 -0.015625 C 2.722656 -0.015625 2.40625 -0.0703125 2.09375 -0.1875 C 1.382812 -0.457031 0.859375 -1.050781 0.515625 -1.96875 C 0.179688 -2.894531 0.0546875 -4.0625 0.140625 -5.46875 C 0.128906 -5.539062 0.101562 -5.59375 0.0625 -5.625 C 0.0078125 -5.664062 -0.046875 -5.679688 -0.109375 -5.671875 C -0.703125 -5.628906 -1.242188 -5.585938 -1.734375 -5.546875 C -2.222656 -5.515625 -2.613281 -5.488281 -2.90625 -5.46875 C -3.195312 -5.445312 -3.351562 -5.4375 -3.375 -5.4375 L -3.390625 -5.4375 C -3.484375 -5.425781 -3.5625 -5.453125 -3.625 -5.515625 C -3.6875 -5.578125 -3.71875 -5.648438 -3.71875 -5.734375 C -3.71875 -5.816406 -3.6875 -5.890625 -3.625 -5.953125 C -3.570312 -6.023438 -3.503906 -6.0625 -3.421875 -6.0625 C -3.398438 -6.0625 -3.234375 -6.070312 -2.921875 -6.09375 C -2.617188 -6.113281 -2.210938 -6.144531 -1.703125 -6.1875 C -1.191406 -6.226562 -0.625 -6.265625 0 -6.296875 C 0.0703125 -6.304688 0.128906 -6.34375 0.171875 -6.40625 C 0.210938 -6.46875 0.242188 -6.546875 0.265625 -6.640625 C 0.328125 -7.097656 0.414062 -7.566406 0.53125 -8.046875 C 0.644531 -8.535156 0.773438 -8.988281 0.921875 -9.40625 C 1.078125 -9.832031 1.25 -10.179688 1.4375 -10.453125 C 1.632812 -10.722656 1.835938 -10.878906 2.046875 -10.921875 C 2.128906 -10.941406 2.242188 -10.929688 2.390625 -10.890625 C 2.535156 -10.847656 2.671875 -10.703125 2.796875 -10.453125 C 2.878906 -10.285156 2.894531 -10.003906 2.84375 -9.609375 C 2.800781 -9.222656 2.707031 -8.773438 2.5625 -8.265625 C 2.425781 -7.753906 2.257812 -7.226562 2.0625 -6.6875 C 2.03125 -6.582031 2.03125 -6.515625 2.0625 -6.484375 C 2.101562 -6.460938 2.132812 -6.453125 2.15625 -6.453125 C 2.914062 -6.492188 3.640625 -6.53125 4.328125 -6.5625 C 5.023438 -6.59375 5.601562 -6.609375 6.0625 -6.609375 C 6.144531 -6.609375 6.210938 -6.578125 6.265625 -6.515625 C 6.328125 -6.453125 6.359375 -6.378906 6.359375 -6.296875 C 6.359375 -6.210938 6.328125 -6.140625 6.265625 -6.078125 C 6.210938 -6.015625 6.144531 -5.984375 6.0625 -5.984375 C 5.582031 -5.984375 4.972656 -5.96875 4.234375 -5.9375 C 3.503906 -5.914062 2.738281 -5.875 1.9375 -5.8125 C 1.863281 -5.8125 1.8125 -5.800781 1.78125 -5.78125 C 1.757812 -5.769531 1.738281 -5.734375 1.71875 -5.671875 C 1.550781 -5.179688 1.382812 -4.726562 1.21875 -4.3125 C 1.0625 -3.90625 0.929688 -3.578125 0.828125 -3.328125 C 0.878906 -2.953125 0.957031 -2.59375 1.0625 -2.25 C 1.175781 -1.90625 1.332031 -1.601562 1.53125 -1.34375 C 1.738281 -1.082031 2 -0.890625 2.3125 -0.765625 C 2.664062 -0.628906 3.046875 -0.59375 3.453125 -0.65625 C 3.859375 -0.71875 4.257812 -0.84375 4.65625 -1.03125 C 5.050781 -1.21875 5.425781 -1.429688 5.78125 -1.671875 C 6.144531 -1.910156 6.46875 -2.148438 6.75 -2.390625 C 7.039062 -2.628906 7.265625 -2.820312 7.421875 -2.96875 C 7.585938 -3.125 7.675781 -3.207031 7.6875 -3.21875 C 7.738281 -3.28125 7.804688 -3.3125 7.890625 -3.3125 C 7.984375 -3.3125 8.0625 -3.28125 8.125 -3.21875 Z M 0.890625 -6.640625 C 0.878906 -6.597656 0.875 -6.539062 0.875 -6.46875 C 0.875 -6.40625 0.90625 -6.375 0.96875 -6.375 C 1.03125 -6.375 1.09375 -6.378906 1.15625 -6.390625 C 1.28125 -6.398438 1.351562 -6.46875 1.375 -6.59375 C 1.570312 -7.175781 1.742188 -7.722656 1.890625 -8.234375 C 2.046875 -8.742188 2.15625 -9.164062 2.21875 -9.5 C 2.28125 -9.84375 2.285156 -10.066406 2.234375 -10.171875 C 2.222656 -10.222656 2.191406 -10.253906 2.140625 -10.265625 C 2.085938 -10.273438 2.046875 -10.265625 2.015625 -10.234375 C 1.910156 -10.109375 1.785156 -9.875 1.640625 -9.53125 C 1.503906 -9.195312 1.363281 -8.78125 1.21875 -8.28125 C 1.082031 -7.789062 0.972656 -7.242188 0.890625 -6.640625 Z M 0.734375 -4.796875 C 0.765625 -4.796875 0.804688 -4.835938 0.859375 -4.921875 C 0.910156 -5.015625 0.957031 -5.117188 1 -5.234375 C 1.039062 -5.359375 1.070312 -5.46875 1.09375 -5.5625 C 1.113281 -5.664062 1.113281 -5.734375 1.09375 -5.765625 C 0.976562 -5.816406 0.875 -5.804688 0.78125 -5.734375 C 0.75 -5.703125 0.722656 -5.632812 0.703125 -5.53125 C 0.691406 -5.4375 0.679688 -5.332031 0.671875 -5.21875 C 0.660156 -5.101562 0.660156 -5.003906 0.671875 -4.921875 C 0.691406 -4.835938 0.710938 -4.796875 0.734375 -4.796875 Z M 0.734375 -4.796875 "/></g></g></g><g fill="#a65519" fill-opacity="1"><g transform="translate(25.859187, 12.901062)"><g><path d="M 9.328125 -2.84375 C 9.390625 -2.78125 9.414062 -2.703125 9.40625 -2.609375 C 9.40625 -2.523438 9.375 -2.457031 9.3125 -2.40625 C 9.28125 -2.375 9.164062 -2.28125 8.96875 -2.125 C 8.78125 -1.96875 8.519531 -1.78125 8.1875 -1.5625 C 7.863281 -1.34375 7.5 -1.128906 7.09375 -0.921875 C 6.695312 -0.710938 6.28125 -0.550781 5.84375 -0.4375 C 5.40625 -0.332031 4.976562 -0.3125 4.5625 -0.375 C 4.195312 -0.4375 3.863281 -0.570312 3.5625 -0.78125 C 3.269531 -0.988281 3.035156 -1.253906 2.859375 -1.578125 C 2.722656 -1.816406 2.523438 -1.945312 2.265625 -1.96875 C 2.148438 -1.976562 1.988281 -1.941406 1.78125 -1.859375 C 1.570312 -1.773438 1.3125 -1.59375 1 -1.3125 C 0.695312 -1.03125 0.34375 -0.597656 -0.0625 -0.015625 C -0.144531 0.109375 -0.257812 0.144531 -0.40625 0.09375 C -0.5625 0.0390625 -0.628906 -0.0625 -0.609375 -0.21875 C -0.585938 -0.519531 -0.546875 -0.867188 -0.484375 -1.265625 C -0.421875 -1.660156 -0.347656 -2.078125 -0.265625 -2.515625 C -0.335938 -2.640625 -0.332031 -2.757812 -0.25 -2.875 L -0.171875 -3 C -0.078125 -3.476562 0.03125 -3.96875 0.15625 -4.46875 C 0.28125 -4.976562 0.414062 -5.46875 0.5625 -5.9375 C 0.78125 -6.726562 0.984375 -7.378906 1.171875 -7.890625 C 1.359375 -8.410156 1.53125 -8.820312 1.6875 -9.125 C 1.84375 -9.425781 1.984375 -9.648438 2.109375 -9.796875 C 2.234375 -9.941406 2.335938 -10.035156 2.421875 -10.078125 C 2.503906 -10.128906 2.566406 -10.164062 2.609375 -10.1875 C 2.742188 -10.226562 2.875 -10.222656 3 -10.171875 C 3.125 -10.128906 3.234375 -10.054688 3.328125 -9.953125 C 3.515625 -9.722656 3.601562 -9.421875 3.59375 -9.046875 C 3.582031 -8.671875 3.492188 -8.253906 3.328125 -7.796875 C 3.171875 -7.335938 2.96875 -6.863281 2.71875 -6.375 C 2.46875 -5.894531 2.203125 -5.425781 1.921875 -4.96875 C 1.640625 -4.519531 1.367188 -4.109375 1.109375 -3.734375 C 0.859375 -3.359375 0.648438 -3.054688 0.484375 -2.828125 C 0.472656 -2.828125 0.453125 -2.796875 0.421875 -2.734375 C 0.398438 -2.679688 0.390625 -2.664062 0.390625 -2.6875 C 0.378906 -2.613281 0.359375 -2.507812 0.328125 -2.375 C 0.304688 -2.25 0.28125 -2.117188 0.25 -1.984375 C 0.226562 -1.859375 0.210938 -1.753906 0.203125 -1.671875 C 0.191406 -1.617188 0.210938 -1.582031 0.265625 -1.5625 C 0.316406 -1.539062 0.363281 -1.546875 0.40625 -1.578125 C 1.09375 -2.296875 1.726562 -2.632812 2.3125 -2.59375 C 2.800781 -2.550781 3.160156 -2.3125 3.390625 -1.875 C 3.671875 -1.375 4.09375 -1.082031 4.65625 -1 C 5.007812 -0.9375 5.378906 -0.957031 5.765625 -1.0625 C 6.160156 -1.175781 6.539062 -1.328125 6.90625 -1.515625 C 7.28125 -1.710938 7.613281 -1.910156 7.90625 -2.109375 C 8.195312 -2.316406 8.429688 -2.488281 8.609375 -2.625 C 8.796875 -2.769531 8.890625 -2.847656 8.890625 -2.859375 C 8.953125 -2.910156 9.023438 -2.9375 9.109375 -2.9375 C 9.203125 -2.9375 9.273438 -2.90625 9.328125 -2.84375 Z M 2.796875 -9.59375 C 2.722656 -9.59375 2.628906 -9.5 2.515625 -9.3125 C 2.398438 -9.132812 2.269531 -8.894531 2.125 -8.59375 C 1.988281 -8.289062 1.847656 -7.953125 1.703125 -7.578125 C 1.554688 -7.210938 1.414062 -6.84375 1.28125 -6.46875 C 1.15625 -6.101562 1.046875 -5.765625 0.953125 -5.453125 C 0.859375 -5.140625 0.789062 -4.878906 0.75 -4.671875 C 0.71875 -4.472656 0.722656 -4.363281 0.765625 -4.34375 C 0.804688 -4.320312 0.882812 -4.382812 1 -4.53125 C 1.113281 -4.6875 1.242188 -4.898438 1.390625 -5.171875 C 1.546875 -5.453125 1.707031 -5.765625 1.875 -6.109375 C 2.050781 -6.460938 2.210938 -6.816406 2.359375 -7.171875 C 2.503906 -7.535156 2.628906 -7.878906 2.734375 -8.203125 C 2.835938 -8.535156 2.898438 -8.820312 2.921875 -9.0625 C 2.953125 -9.300781 2.925781 -9.46875 2.84375 -9.5625 C 2.832031 -9.5625 2.820312 -9.566406 2.8125 -9.578125 C 2.8125 -9.585938 2.804688 -9.59375 2.796875 -9.59375 Z M 2.796875 -9.59375 "/></g></g></g><g fill="#a65519" fill-opacity="1"><g transform="translate(34.79972, 12.901062)"><g><path d="M 9.921875 -3.046875 C 9.972656 -2.972656 10 -2.894531 10 -2.8125 C 9.988281 -2.726562 9.945312 -2.660156 9.875 -2.609375 C 9.84375 -2.578125 9.703125 -2.46875 9.453125 -2.28125 C 9.203125 -2.101562 8.863281 -1.882812 8.4375 -1.625 C 8.007812 -1.363281 7.515625 -1.109375 6.953125 -0.859375 C 6.390625 -0.609375 5.789062 -0.398438 5.15625 -0.234375 C 4.519531 -0.0664062 3.863281 0.015625 3.1875 0.015625 C 2.375 0.0234375 1.597656 -0.117188 0.859375 -0.421875 C 0.453125 -0.585938 0.164062 -0.78125 0 -1 C -0.164062 -1.226562 -0.257812 -1.445312 -0.28125 -1.65625 C -0.300781 -1.863281 -0.296875 -2.046875 -0.265625 -2.203125 C -0.203125 -2.492188 -0.0664062 -2.773438 0.140625 -3.046875 C 0.347656 -3.316406 0.585938 -3.5625 0.859375 -3.78125 C 1.140625 -4 1.421875 -4.164062 1.703125 -4.28125 C 1.992188 -4.394531 2.257812 -4.445312 2.5 -4.4375 C 2.707031 -4.4375 2.890625 -4.359375 3.046875 -4.203125 C 3.203125 -4.054688 3.285156 -3.875 3.296875 -3.65625 C 3.304688 -3.53125 3.273438 -3.375 3.203125 -3.1875 C 3.128906 -3 2.945312 -2.8125 2.65625 -2.625 C 1.988281 -2.207031 1.257812 -2.019531 0.46875 -2.0625 C 0.425781 -2.070312 0.390625 -2.066406 0.359375 -2.046875 C 0.328125 -2.023438 0.3125 -1.992188 0.3125 -1.953125 C 0.3125 -1.878906 0.320312 -1.785156 0.34375 -1.671875 C 0.363281 -1.566406 0.425781 -1.453125 0.53125 -1.328125 C 0.644531 -1.210938 0.832031 -1.101562 1.09375 -1 C 1.632812 -0.769531 2.1875 -0.640625 2.75 -0.609375 C 3.3125 -0.578125 3.863281 -0.613281 4.40625 -0.71875 C 4.957031 -0.820312 5.484375 -0.96875 5.984375 -1.15625 C 6.484375 -1.34375 6.941406 -1.546875 7.359375 -1.765625 C 7.785156 -1.984375 8.15625 -2.191406 8.46875 -2.390625 C 8.78125 -2.585938 9.023438 -2.753906 9.203125 -2.890625 C 9.390625 -3.023438 9.484375 -3.09375 9.484375 -3.09375 C 9.554688 -3.144531 9.632812 -3.164062 9.71875 -3.15625 C 9.800781 -3.144531 9.867188 -3.109375 9.921875 -3.046875 Z M 0.734375 -2.796875 C 0.648438 -2.671875 0.660156 -2.601562 0.765625 -2.59375 C 0.867188 -2.582031 1.019531 -2.601562 1.21875 -2.65625 C 1.414062 -2.71875 1.617188 -2.796875 1.828125 -2.890625 C 2.035156 -2.984375 2.203125 -3.066406 2.328125 -3.140625 C 2.578125 -3.304688 2.691406 -3.457031 2.671875 -3.59375 C 2.660156 -3.675781 2.640625 -3.734375 2.609375 -3.765625 C 2.578125 -3.796875 2.523438 -3.816406 2.453125 -3.828125 C 2.203125 -3.835938 1.910156 -3.742188 1.578125 -3.546875 C 1.253906 -3.359375 0.972656 -3.109375 0.734375 -2.796875 Z M 0.734375 -2.796875 "/></g></g></g><g fill="#a65519" fill-opacity="1"><g transform="translate(44.272432, 12.901062)"><g><path d="M 8.125 -3.21875 C 8.1875 -3.164062 8.21875 -3.09375 8.21875 -3 C 8.21875 -2.914062 8.1875 -2.84375 8.125 -2.78125 C 8.101562 -2.757812 7.988281 -2.648438 7.78125 -2.453125 C 7.570312 -2.265625 7.296875 -2.03125 6.953125 -1.75 C 6.617188 -1.476562 6.238281 -1.210938 5.8125 -0.953125 C 5.382812 -0.691406 4.9375 -0.46875 4.46875 -0.28125 C 4 -0.101562 3.523438 -0.015625 3.046875 -0.015625 C 2.722656 -0.015625 2.40625 -0.0703125 2.09375 -0.1875 C 1.382812 -0.457031 0.859375 -1.050781 0.515625 -1.96875 C 0.179688 -2.894531 0.0546875 -4.0625 0.140625 -5.46875 C 0.128906 -5.539062 0.101562 -5.59375 0.0625 -5.625 C 0.0078125 -5.664062 -0.046875 -5.679688 -0.109375 -5.671875 C -0.703125 -5.628906 -1.242188 -5.585938 -1.734375 -5.546875 C -2.222656 -5.515625 -2.613281 -5.488281 -2.90625 -5.46875 C -3.195312 -5.445312 -3.351562 -5.4375 -3.375 -5.4375 L -3.390625 -5.4375 C -3.484375 -5.425781 -3.5625 -5.453125 -3.625 -5.515625 C -3.6875 -5.578125 -3.71875 -5.648438 -3.71875 -5.734375 C -3.71875 -5.816406 -3.6875 -5.890625 -3.625 -5.953125 C -3.570312 -6.023438 -3.503906 -6.0625 -3.421875 -6.0625 C -3.398438 -6.0625 -3.234375 -6.070312 -2.921875 -6.09375 C -2.617188 -6.113281 -2.210938 -6.144531 -1.703125 -6.1875 C -1.191406 -6.226562 -0.625 -6.265625 0 -6.296875 C 0.0703125 -6.304688 0.128906 -6.34375 0.171875 -6.40625 C 0.210938 -6.46875 0.242188 -6.546875 0.265625 -6.640625 C 0.328125 -7.097656 0.414062 -7.566406 0.53125 -8.046875 C 0.644531 -8.535156 0.773438 -8.988281 0.921875 -9.40625 C 1.078125 -9.832031 1.25 -10.179688 1.4375 -10.453125 C 1.632812 -10.722656 1.835938 -10.878906 2.046875 -10.921875 C 2.128906 -10.941406 2.242188 -10.929688 2.390625 -10.890625 C 2.535156 -10.847656 2.671875 -10.703125 2.796875 -10.453125 C 2.878906 -10.285156 2.894531 -10.003906 2.84375 -9.609375 C 2.800781 -9.222656 2.707031 -8.773438 2.5625 -8.265625 C 2.425781 -7.753906 2.257812 -7.226562 2.0625 -6.6875 C 2.03125 -6.582031 2.03125 -6.515625 2.0625 -6.484375 C 2.101562 -6.460938 2.132812 -6.453125 2.15625 -6.453125 C 2.914062 -6.492188 3.640625 -6.53125 4.328125 -6.5625 C 5.023438 -6.59375 5.601562 -6.609375 6.0625 -6.609375 C 6.144531 -6.609375 6.210938 -6.578125 6.265625 -6.515625 C 6.328125 -6.453125 6.359375 -6.378906 6.359375 -6.296875 C 6.359375 -6.210938 6.328125 -6.140625 6.265625 -6.078125 C 6.210938 -6.015625 6.144531 -5.984375 6.0625 -5.984375 C 5.582031 -5.984375 4.972656 -5.96875 4.234375 -5.9375 C 3.503906 -5.914062 2.738281 -5.875 1.9375 -5.8125 C 1.863281 -5.8125 1.8125 -5.800781 1.78125 -5.78125 C 1.757812 -5.769531 1.738281 -5.734375 1.71875 -5.671875 C 1.550781 -5.179688 1.382812 -4.726562 1.21875 -4.3125 C 1.0625 -3.90625 0.929688 -3.578125 0.828125 -3.328125 C 0.878906 -2.953125 0.957031 -2.59375 1.0625 -2.25 C 1.175781 -1.90625 1.332031 -1.601562 1.53125 -1.34375 C 1.738281 -1.082031 2 -0.890625 2.3125 -0.765625 C 2.664062 -0.628906 3.046875 -0.59375 3.453125 -0.65625 C 3.859375 -0.71875 4.257812 -0.84375 4.65625 -1.03125 C 5.050781 -1.21875 5.425781 -1.429688 5.78125 -1.671875 C 6.144531 -1.910156 6.46875 -2.148438 6.75 -2.390625 C 7.039062 -2.628906 7.265625 -2.820312 7.421875 -2.96875 C 7.585938 -3.125 7.675781 -3.207031 7.6875 -3.21875 C 7.738281 -3.28125 7.804688 -3.3125 7.890625 -3.3125 C 7.984375 -3.3125 8.0625 -3.28125 8.125 -3.21875 Z M 0.890625 -6.640625 C 0.878906 -6.597656 0.875 -6.539062 0.875 -6.46875 C 0.875 -6.40625 0.90625 -6.375 0.96875 -6.375 C 1.03125 -6.375 1.09375 -6.378906 1.15625 -6.390625 C 1.28125 -6.398438 1.351562 -6.46875 1.375 -6.59375 C 1.570312 -7.175781 1.742188 -7.722656 1.890625 -8.234375 C 2.046875 -8.742188 2.15625 -9.164062 2.21875 -9.5 C 2.28125 -9.84375 2.285156 -10.066406 2.234375 -10.171875 C 2.222656 -10.222656 2.191406 -10.253906 2.140625 -10.265625 C 2.085938 -10.273438 2.046875 -10.265625 2.015625 -10.234375 C 1.910156 -10.109375 1.785156 -9.875 1.640625 -9.53125 C 1.503906 -9.195312 1.363281 -8.78125 1.21875 -8.28125 C 1.082031 -7.789062 0.972656 -7.242188 0.890625 -6.640625 Z M 0.734375 -4.796875 C 0.765625 -4.796875 0.804688 -4.835938 0.859375 -4.921875 C 0.910156 -5.015625 0.957031 -5.117188 1 -5.234375 C 1.039062 -5.359375 1.070312 -5.46875 1.09375 -5.5625 C 1.113281 -5.664062 1.113281 -5.734375 1.09375 -5.765625 C 0.976562 -5.816406 0.875 -5.804688 0.78125 -5.734375 C 0.75 -5.703125 0.722656 -5.632812 0.703125 -5.53125 C 0.691406 -5.4375 0.679688 -5.332031 0.671875 -5.21875 C 0.660156 -5.101562 0.660156 -5.003906 0.671875 -4.921875 C 0.691406 -4.835938 0.710938 -4.796875 0.734375 -4.796875 Z M 0.734375 -4.796875 "/></g></g></g><g fill="#a65519" fill-opacity="1"><g transform="translate(51.829309, 12.901062)"><g><path d="M 7.671875 -3.1875 C 7.734375 -3.132812 7.765625 -3.066406 7.765625 -2.984375 C 7.765625 -2.890625 7.734375 -2.8125 7.671875 -2.75 C 7.640625 -2.726562 7.519531 -2.617188 7.3125 -2.421875 C 7.101562 -2.222656 6.828125 -1.988281 6.484375 -1.71875 C 6.140625 -1.445312 5.75 -1.175781 5.3125 -0.90625 C 4.875 -0.644531 4.398438 -0.421875 3.890625 -0.234375 C 3.390625 -0.0546875 2.890625 0.03125 2.390625 0.03125 C 1.660156 0.03125 1.007812 -0.179688 0.4375 -0.609375 C 0.195312 -0.785156 0.0351562 -0.988281 -0.046875 -1.21875 C -0.128906 -1.457031 -0.164062 -1.703125 -0.15625 -1.953125 C -0.144531 -2.210938 -0.109375 -2.453125 -0.046875 -2.671875 C 0.015625 -2.890625 0.0703125 -3.070312 0.125 -3.21875 C 0.1875 -3.363281 0.222656 -3.441406 0.234375 -3.453125 C 0.285156 -3.523438 0.347656 -3.570312 0.421875 -3.59375 C 0.503906 -3.613281 0.582031 -3.609375 0.65625 -3.578125 C 0.726562 -3.535156 0.78125 -3.472656 0.8125 -3.390625 C 0.84375 -3.316406 0.835938 -3.242188 0.796875 -3.171875 C 0.796875 -3.160156 0.769531 -3.101562 0.71875 -3 C 0.675781 -2.894531 0.628906 -2.757812 0.578125 -2.59375 C 0.523438 -2.4375 0.488281 -2.265625 0.46875 -2.078125 C 0.445312 -1.890625 0.457031 -1.707031 0.5 -1.53125 C 0.550781 -1.363281 0.648438 -1.222656 0.796875 -1.109375 C 1.160156 -0.835938 1.546875 -0.675781 1.953125 -0.625 C 2.359375 -0.570312 2.765625 -0.59375 3.171875 -0.6875 C 3.585938 -0.789062 3.992188 -0.9375 4.390625 -1.125 C 4.785156 -1.320312 5.148438 -1.535156 5.484375 -1.765625 C 5.828125 -2.003906 6.128906 -2.226562 6.390625 -2.4375 C 6.648438 -2.644531 6.851562 -2.820312 7 -2.96875 C 7.144531 -3.113281 7.222656 -3.1875 7.234375 -3.1875 C 7.296875 -3.25 7.363281 -3.28125 7.4375 -3.28125 C 7.519531 -3.28125 7.597656 -3.25 7.671875 -3.1875 Z M 0.109375 -4.125 C -0.046875 -4.125 -0.144531 -4.203125 -0.1875 -4.359375 C -0.226562 -4.515625 -0.175781 -4.632812 -0.03125 -4.71875 C 0.1875 -4.832031 0.382812 -4.976562 0.5625 -5.15625 C 0.625 -5.21875 0.695312 -5.25 0.78125 -5.25 C 0.863281 -5.25 0.9375 -5.222656 1 -5.171875 C 1.0625 -5.109375 1.09375 -5.035156 1.09375 -4.953125 C 1.09375 -4.867188 1.0625 -4.796875 1 -4.734375 C 0.78125 -4.503906 0.535156 -4.316406 0.265625 -4.171875 C 0.210938 -4.140625 0.160156 -4.125 0.109375 -4.125 Z M 0.109375 -4.125 "/></g></g></g><g fill="#a65519" fill-opacity="1"><g transform="translate(59.090537, 12.901062)"><g><path d="M 9.96875 -2.953125 C 10.03125 -2.890625 10.054688 -2.816406 10.046875 -2.734375 C 10.046875 -2.648438 10.015625 -2.578125 9.953125 -2.515625 C 8.984375 -1.710938 7.90625 -1.09375 6.71875 -0.65625 C 5.539062 -0.226562 4.320312 -0.0078125 3.0625 0 C 2.445312 0 1.835938 -0.0546875 1.234375 -0.171875 C 0.722656 -0.253906 0.34375 -0.382812 0.09375 -0.5625 C -0.144531 -0.75 -0.304688 -0.941406 -0.390625 -1.140625 C -0.472656 -1.335938 -0.515625 -1.515625 -0.515625 -1.671875 C -0.515625 -1.972656 -0.425781 -2.28125 -0.25 -2.59375 C -0.0703125 -2.90625 0.148438 -3.195312 0.421875 -3.46875 C 0.691406 -3.738281 0.976562 -3.960938 1.28125 -4.140625 C 1.582031 -4.316406 1.863281 -4.429688 2.125 -4.484375 C 2.601562 -4.617188 3.035156 -4.535156 3.421875 -4.234375 C 3.742188 -3.921875 3.90625 -3.539062 3.90625 -3.09375 C 3.894531 -3.007812 3.859375 -2.9375 3.796875 -2.875 C 3.742188 -2.820312 3.671875 -2.796875 3.578125 -2.796875 C 3.492188 -2.796875 3.421875 -2.828125 3.359375 -2.890625 C 3.304688 -2.953125 3.28125 -3.023438 3.28125 -3.109375 C 3.28125 -3.359375 3.191406 -3.578125 3.015625 -3.765625 C 2.773438 -3.921875 2.515625 -3.957031 2.234375 -3.875 C 2.023438 -3.832031 1.796875 -3.734375 1.546875 -3.578125 C 1.304688 -3.421875 1.078125 -3.234375 0.859375 -3.015625 C 0.640625 -2.804688 0.457031 -2.578125 0.3125 -2.328125 C 0.175781 -2.085938 0.109375 -1.867188 0.109375 -1.671875 C 0.117188 -1.222656 0.53125 -0.921875 1.34375 -0.765625 C 2.125 -0.628906 2.867188 -0.582031 3.578125 -0.625 C 4.296875 -0.675781 4.957031 -0.785156 5.5625 -0.953125 C 6.175781 -1.117188 6.722656 -1.3125 7.203125 -1.53125 C 7.691406 -1.757812 8.109375 -1.984375 8.453125 -2.203125 C 8.796875 -2.421875 9.054688 -2.601562 9.234375 -2.75 C 9.421875 -2.894531 9.519531 -2.972656 9.53125 -2.984375 C 9.59375 -3.035156 9.664062 -3.054688 9.75 -3.046875 C 9.84375 -3.046875 9.914062 -3.015625 9.96875 -2.953125 Z M 9.96875 -2.953125 "/></g></g></g><g fill="#a65519" fill-opacity="1"><g transform="translate(68.563248, 12.901062)"><g><path d="M 8.125 -3.28125 C 8.175781 -3.21875 8.203125 -3.144531 8.203125 -3.0625 C 8.203125 -2.976562 8.175781 -2.90625 8.125 -2.84375 C 7.800781 -2.519531 7.414062 -2.203125 6.96875 -1.890625 C 6.519531 -1.585938 6.035156 -1.316406 5.515625 -1.078125 C 4.992188 -0.835938 4.460938 -0.644531 3.921875 -0.5 C 3.390625 -0.363281 2.875 -0.296875 2.375 -0.296875 C 2.164062 -0.296875 1.96875 -0.304688 1.78125 -0.328125 C 1.382812 -0.359375 1.019531 -0.476562 0.6875 -0.6875 C 0.363281 -0.894531 0.101562 -1.171875 -0.09375 -1.515625 C -0.132812 -1.585938 -0.144531 -1.660156 -0.125 -1.734375 C -0.101562 -1.816406 -0.0546875 -1.878906 0.015625 -1.921875 C 0.0859375 -1.972656 0.160156 -1.988281 0.234375 -1.96875 C 0.316406 -1.945312 0.382812 -1.898438 0.4375 -1.828125 C 0.613281 -1.597656 0.828125 -1.425781 1.078125 -1.3125 C 1.328125 -1.195312 1.585938 -1.140625 1.859375 -1.140625 C 2.140625 -1.140625 2.40625 -1.210938 2.65625 -1.359375 C 2.820312 -1.453125 2.921875 -1.59375 2.953125 -1.78125 C 2.992188 -1.96875 2.945312 -2.128906 2.8125 -2.265625 C 2.675781 -2.410156 2.523438 -2.535156 2.359375 -2.640625 C 2.035156 -2.835938 1.757812 -3.085938 1.53125 -3.390625 C 1.5 -3.453125 1.453125 -3.484375 1.390625 -3.484375 C 1.328125 -3.492188 1.273438 -3.476562 1.234375 -3.4375 L 0.34375 -2.59375 C 0.257812 -2.507812 0.15625 -2.484375 0.03125 -2.515625 C -0.0820312 -2.546875 -0.148438 -2.625 -0.171875 -2.75 C -0.203125 -2.863281 -0.171875 -2.960938 -0.078125 -3.046875 L 1.734375 -4.75 C 1.929688 -5 2.160156 -5.21875 2.421875 -5.40625 C 2.484375 -5.445312 2.554688 -5.460938 2.640625 -5.453125 C 2.722656 -5.453125 2.789062 -5.421875 2.84375 -5.359375 C 2.90625 -5.296875 2.929688 -5.222656 2.921875 -5.140625 C 2.910156 -5.054688 2.878906 -4.988281 2.828125 -4.9375 L 2.171875 -4.328125 C 2.066406 -4.210938 2.015625 -4.078125 2.015625 -3.921875 C 2.015625 -3.773438 2.085938 -3.640625 2.234375 -3.515625 C 2.390625 -3.390625 2.550781 -3.265625 2.71875 -3.140625 C 2.96875 -3.003906 3.175781 -2.828125 3.34375 -2.609375 C 3.476562 -2.410156 3.554688 -2.195312 3.578125 -1.96875 C 3.597656 -1.738281 3.550781 -1.519531 3.4375 -1.3125 C 3.40625 -1.25 3.414062 -1.191406 3.46875 -1.140625 C 3.507812 -1.078125 3.5625 -1.054688 3.625 -1.078125 C 5.175781 -1.441406 6.53125 -2.175781 7.6875 -3.28125 C 7.738281 -3.34375 7.8125 -3.375 7.90625 -3.375 C 7.988281 -3.375 8.0625 -3.34375 8.125 -3.28125 Z M 8.125 -3.28125 "/></g></g></g></g></g><g transform="matrix(1, 0, 0, 1, 41, 120)"><g clip-path="url(#d676a9fc1c)"><g fill="#a65519" fill-opacity="1"><g transform="translate(0.698059, 7.605009)"><g><path d="M 0.546875 0 L 0.546875 -0.109375 C 0.640625 -0.140625 0.71875 -0.1875 0.78125 -0.25 C 0.84375 -0.3125 0.882812 -0.421875 0.90625 -0.578125 C 0.9375 -0.734375 0.953125 -0.96875 0.953125 -1.28125 L 0.953125 -5.75 C 0.953125 -6.050781 0.9375 -6.28125 0.90625 -6.4375 C 0.882812 -6.601562 0.84375 -6.71875 0.78125 -6.78125 C 0.71875 -6.84375 0.640625 -6.882812 0.546875 -6.90625 L 0.546875 -7.015625 L 2.765625 -7.015625 C 3.472656 -7.015625 4 -6.894531 4.34375 -6.65625 C 4.6875 -6.425781 4.859375 -6.109375 4.859375 -5.703125 C 4.859375 -5.359375 4.738281 -5.046875 4.5 -4.765625 C 4.269531 -4.484375 3.90625 -4.289062 3.40625 -4.1875 C 3.945312 -4.15625 4.375 -4.046875 4.6875 -3.859375 C 5.007812 -3.671875 5.242188 -3.4375 5.390625 -3.15625 C 5.546875 -2.875 5.625 -2.570312 5.625 -2.25 C 5.625 -1.988281 5.570312 -1.722656 5.46875 -1.453125 C 5.363281 -1.179688 5.1875 -0.9375 4.9375 -0.71875 C 4.695312 -0.507812 4.375 -0.335938 3.96875 -0.203125 C 3.5625 -0.0664062 3.054688 0 2.453125 0 Z M 1.515625 -1.015625 C 1.515625 -0.648438 1.546875 -0.410156 1.609375 -0.296875 C 1.679688 -0.191406 1.820312 -0.140625 2.03125 -0.140625 L 2.546875 -0.140625 C 3.160156 -0.140625 3.644531 -0.222656 4 -0.390625 C 4.363281 -0.566406 4.617188 -0.800781 4.765625 -1.09375 C 4.921875 -1.394531 5 -1.738281 5 -2.125 C 5 -2.488281 4.925781 -2.816406 4.78125 -3.109375 C 4.632812 -3.398438 4.40625 -3.628906 4.09375 -3.796875 C 3.78125 -3.972656 3.375 -4.0625 2.875 -4.0625 L 1.515625 -4.0625 Z M 1.515625 -4.1875 L 2.5 -4.1875 C 2.925781 -4.1875 3.265625 -4.25 3.515625 -4.375 C 3.773438 -4.5 3.960938 -4.664062 4.078125 -4.875 C 4.191406 -5.082031 4.25 -5.3125 4.25 -5.5625 C 4.25 -5.957031 4.113281 -6.273438 3.84375 -6.515625 C 3.582031 -6.765625 3.1875 -6.890625 2.65625 -6.890625 L 1.515625 -6.890625 Z M 1.515625 -4.1875 "/></g></g></g><g fill="#a65519" fill-opacity="1"><g transform="translate(8.327859, 7.605009)"><g><path d="M 0.546875 0 L 0.546875 -0.109375 C 0.640625 -0.140625 0.71875 -0.1875 0.78125 -0.25 C 0.84375 -0.3125 0.882812 -0.421875 0.90625 -0.578125 C 0.9375 -0.734375 0.953125 -0.96875 0.953125 -1.28125 L 0.953125 -5.75 C 0.953125 -6.050781 0.9375 -6.28125 0.90625 -6.4375 C 0.882812 -6.601562 0.84375 -6.71875 0.78125 -6.78125 C 0.71875 -6.84375 0.640625 -6.882812 0.546875 -6.90625 L 0.546875 -7.015625 L 5.0625 -7.015625 L 5.171875 -5.828125 L 5.078125 -5.8125 C 4.929688 -6.207031 4.710938 -6.484375 4.421875 -6.640625 C 4.140625 -6.804688 3.773438 -6.890625 3.328125 -6.890625 L 1.515625 -6.890625 L 1.515625 -3.796875 L 3.15625 -3.796875 C 3.507812 -3.796875 3.773438 -3.820312 3.953125 -3.875 C 4.140625 -3.925781 4.269531 -3.992188 4.34375 -4.078125 C 4.425781 -4.171875 4.476562 -4.28125 4.5 -4.40625 L 4.609375 -4.40625 L 4.609375 -3.0625 L 4.5 -3.0625 C 4.476562 -3.195312 4.425781 -3.304688 4.34375 -3.390625 C 4.269531 -3.472656 4.140625 -3.539062 3.953125 -3.59375 C 3.773438 -3.644531 3.507812 -3.671875 3.15625 -3.671875 L 1.515625 -3.671875 L 1.515625 -0.53125 C 1.515625 -0.257812 1.648438 -0.125 1.921875 -0.125 L 3.59375 -0.125 C 4.039062 -0.125 4.40625 -0.195312 4.6875 -0.34375 C 4.96875 -0.5 5.191406 -0.789062 5.359375 -1.21875 L 5.453125 -1.1875 L 5.359375 0 Z M 0.546875 0 "/></g></g></g><g fill="#a65519" fill-opacity="1"><g transform="translate(15.877447, 7.605009)"><g><path d="M -0.125 0 L -0.125 -0.109375 C -0.03125 -0.140625 0.0546875 -0.179688 0.140625 -0.234375 C 0.222656 -0.296875 0.3125 -0.394531 0.40625 -0.53125 C 0.5 -0.675781 0.601562 -0.894531 0.71875 -1.1875 L 2.8125 -6.34375 C 2.863281 -6.476562 2.851562 -6.609375 2.78125 -6.734375 L 2.734375 -6.875 L 3.234375 -7.09375 L 5.671875 -1.171875 C 5.796875 -0.890625 5.898438 -0.675781 5.984375 -0.53125 C 6.078125 -0.394531 6.160156 -0.296875 6.234375 -0.234375 C 6.304688 -0.179688 6.375 -0.140625 6.4375 -0.109375 L 6.4375 0 L 5.171875 0 L 5.171875 -0.109375 C 5.265625 -0.140625 5.320312 -0.179688 5.34375 -0.234375 C 5.375 -0.296875 5.367188 -0.394531 5.328125 -0.53125 C 5.296875 -0.675781 5.21875 -0.890625 5.09375 -1.171875 L 4.46875 -2.671875 L 1.484375 -2.671875 L 0.875 -1.1875 C 0.75 -0.875 0.691406 -0.625 0.703125 -0.4375 C 0.710938 -0.25 0.800781 -0.140625 0.96875 -0.109375 L 0.96875 0 Z M 1.546875 -2.8125 L 4.40625 -2.8125 L 2.953125 -6.34375 Z M 1.546875 -2.8125 "/></g></g></g><g fill="#a65519" fill-opacity="1"><g transform="translate(23.978468, 7.605009)"><g><path d="M 3.53125 0.09375 C 3.175781 0.09375 2.835938 0.0507812 2.515625 -0.03125 C 2.191406 -0.125 1.898438 -0.269531 1.640625 -0.46875 C 1.378906 -0.664062 1.171875 -0.925781 1.015625 -1.25 C 0.867188 -1.570312 0.796875 -1.960938 0.796875 -2.421875 L 0.796875 -5.75 C 0.796875 -6.050781 0.78125 -6.28125 0.75 -6.4375 C 0.726562 -6.601562 0.6875 -6.71875 0.625 -6.78125 C 0.570312 -6.84375 0.5 -6.882812 0.40625 -6.90625 L 0.40625 -7.015625 L 1.765625 -7.015625 L 1.765625 -6.90625 C 1.671875 -6.882812 1.59375 -6.84375 1.53125 -6.78125 C 1.46875 -6.71875 1.421875 -6.601562 1.390625 -6.4375 C 1.367188 -6.28125 1.359375 -6.050781 1.359375 -5.75 L 1.359375 -2.640625 C 1.359375 -2.003906 1.472656 -1.5 1.703125 -1.125 C 1.941406 -0.75 2.242188 -0.476562 2.609375 -0.3125 C 2.972656 -0.144531 3.359375 -0.0625 3.765625 -0.0625 C 3.984375 -0.0625 4.210938 -0.0976562 4.453125 -0.171875 C 4.703125 -0.253906 4.929688 -0.390625 5.140625 -0.578125 C 5.359375 -0.765625 5.535156 -1.019531 5.671875 -1.34375 C 5.804688 -1.664062 5.875 -2.082031 5.875 -2.59375 L 5.875 -5.5625 C 5.875 -5.914062 5.847656 -6.179688 5.796875 -6.359375 C 5.742188 -6.546875 5.671875 -6.675781 5.578125 -6.75 C 5.492188 -6.832031 5.390625 -6.882812 5.265625 -6.90625 L 5.265625 -7.015625 L 6.421875 -7.015625 L 6.421875 -6.90625 C 6.328125 -6.882812 6.25 -6.84375 6.1875 -6.78125 C 6.125 -6.71875 6.078125 -6.601562 6.046875 -6.4375 C 6.023438 -6.28125 6.015625 -6.050781 6.015625 -5.75 L 6.015625 -2.625 C 6.015625 -1.957031 5.898438 -1.421875 5.671875 -1.015625 C 5.441406 -0.617188 5.132812 -0.332031 4.75 -0.15625 C 4.375 0.0078125 3.96875 0.09375 3.53125 0.09375 Z M 3.53125 0.09375 "/></g></g></g><g fill="#a65519" fill-opacity="1"><g transform="translate(32.400318, 7.605009)"><g><path d="M 2.109375 0 L 2.109375 -0.109375 C 2.203125 -0.140625 2.28125 -0.1875 2.34375 -0.25 C 2.40625 -0.3125 2.445312 -0.421875 2.46875 -0.578125 C 2.5 -0.734375 2.515625 -0.96875 2.515625 -1.28125 L 2.515625 -6.890625 L 1.828125 -6.890625 C 1.523438 -6.890625 1.273438 -6.859375 1.078125 -6.796875 C 0.890625 -6.742188 0.734375 -6.648438 0.609375 -6.515625 C 0.492188 -6.390625 0.382812 -6.222656 0.28125 -6.015625 L 0.1875 -6.03125 L 0.25 -7.015625 L 5.34375 -7.015625 L 5.390625 -6.03125 L 5.3125 -6.015625 C 5.207031 -6.222656 5.09375 -6.390625 4.96875 -6.515625 C 4.84375 -6.648438 4.6875 -6.742188 4.5 -6.796875 C 4.3125 -6.859375 4.066406 -6.890625 3.765625 -6.890625 L 3.09375 -6.890625 L 3.09375 -1.28125 C 3.09375 -0.96875 3.101562 -0.734375 3.125 -0.578125 C 3.15625 -0.421875 3.195312 -0.3125 3.25 -0.25 C 3.3125 -0.1875 3.390625 -0.140625 3.484375 -0.109375 L 3.484375 0 Z M 2.109375 0 "/></g></g></g><g fill="#a65519" fill-opacity="1"><g transform="translate(39.70928, 7.605009)"><g><path d="M 1.953125 0 L 1.953125 -0.109375 C 2.046875 -0.140625 2.117188 -0.1875 2.171875 -0.25 C 2.234375 -0.3125 2.273438 -0.421875 2.296875 -0.578125 C 2.328125 -0.734375 2.34375 -0.96875 2.34375 -1.28125 L 2.34375 -3.109375 L 0.796875 -5.90625 C 0.648438 -6.175781 0.519531 -6.375 0.40625 -6.5 C 0.289062 -6.632812 0.191406 -6.726562 0.109375 -6.78125 C 0.0351562 -6.84375 -0.03125 -6.882812 -0.09375 -6.90625 L -0.09375 -7.015625 L 1.171875 -7.015625 L 1.171875 -6.90625 C 1.078125 -6.882812 1.019531 -6.84375 1 -6.78125 C 0.988281 -6.726562 1.015625 -6.632812 1.078125 -6.5 C 1.140625 -6.375 1.242188 -6.175781 1.390625 -5.90625 L 2.84375 -3.328125 L 4.3125 -5.90625 C 4.488281 -6.207031 4.585938 -6.441406 4.609375 -6.609375 C 4.628906 -6.773438 4.550781 -6.875 4.375 -6.90625 L 4.375 -7.015625 L 5.46875 -7.015625 L 5.46875 -6.90625 C 5.382812 -6.882812 5.296875 -6.84375 5.203125 -6.78125 C 5.109375 -6.726562 5.003906 -6.632812 4.890625 -6.5 C 4.773438 -6.375 4.640625 -6.175781 4.484375 -5.90625 L 2.921875 -3.125 L 2.921875 -1.28125 C 2.921875 -0.96875 2.929688 -0.734375 2.953125 -0.578125 C 2.984375 -0.421875 3.03125 -0.3125 3.09375 -0.25 C 3.15625 -0.1875 3.234375 -0.140625 3.328125 -0.109375 L 3.328125 0 Z M 1.953125 0 "/></g></g></g><g fill="#a65519" fill-opacity="1"><g transform="translate(46.777616, 7.605009)"><g/></g></g><g fill="#a65519" fill-opacity="1"><g transform="translate(50.687754, 7.605009)"><g><path d="M 6.234375 0.0625 C 6.097656 0.0625 5.921875 0 5.703125 -0.125 C 5.492188 -0.257812 5.257812 -0.4375 5 -0.65625 C 4.75 -0.882812 4.492188 -1.128906 4.234375 -1.390625 C 3.960938 -0.847656 3.648438 -0.460938 3.296875 -0.234375 C 2.941406 -0.015625 2.578125 0.09375 2.203125 0.09375 C 1.859375 0.09375 1.539062 0.0195312 1.25 -0.125 C 0.957031 -0.269531 0.71875 -0.484375 0.53125 -0.765625 C 0.351562 -1.046875 0.265625 -1.382812 0.265625 -1.78125 C 0.265625 -2.0625 0.320312 -2.335938 0.4375 -2.609375 C 0.550781 -2.890625 0.738281 -3.144531 1 -3.375 C 1.257812 -3.613281 1.617188 -3.804688 2.078125 -3.953125 C 1.898438 -4.203125 1.757812 -4.441406 1.65625 -4.671875 C 1.550781 -4.910156 1.5 -5.160156 1.5 -5.421875 C 1.5 -5.722656 1.570312 -6 1.71875 -6.25 C 1.875 -6.5 2.101562 -6.703125 2.40625 -6.859375 C 2.71875 -7.015625 3.101562 -7.09375 3.5625 -7.09375 C 3.757812 -7.09375 3.972656 -7.066406 4.203125 -7.015625 C 4.429688 -6.972656 4.65625 -6.890625 4.875 -6.765625 L 4.984375 -5.734375 L 4.921875 -5.703125 C 4.773438 -6.035156 4.609375 -6.285156 4.421875 -6.453125 C 4.242188 -6.628906 4.050781 -6.75 3.84375 -6.8125 C 3.632812 -6.875 3.421875 -6.90625 3.203125 -6.90625 C 2.929688 -6.90625 2.703125 -6.847656 2.515625 -6.734375 C 2.328125 -6.617188 2.179688 -6.46875 2.078125 -6.28125 C 1.984375 -6.101562 1.9375 -5.910156 1.9375 -5.703125 C 1.9375 -5.492188 1.984375 -5.269531 2.078125 -5.03125 C 2.179688 -4.800781 2.304688 -4.578125 2.453125 -4.359375 C 2.609375 -4.148438 2.765625 -3.945312 2.921875 -3.75 C 3.085938 -3.5625 3.226562 -3.398438 3.34375 -3.265625 C 3.644531 -2.910156 3.957031 -2.554688 4.28125 -2.203125 C 4.601562 -1.847656 4.914062 -1.523438 5.21875 -1.234375 C 5.53125 -0.953125 5.8125 -0.722656 6.0625 -0.546875 C 6.320312 -0.378906 6.535156 -0.296875 6.703125 -0.296875 C 6.859375 -0.296875 6.976562 -0.347656 7.0625 -0.453125 C 7.15625 -0.566406 7.222656 -0.710938 7.265625 -0.890625 C 7.304688 -1.066406 7.332031 -1.25 7.34375 -1.4375 C 7.351562 -1.632812 7.359375 -1.8125 7.359375 -1.96875 C 7.359375 -2.175781 7.332031 -2.398438 7.28125 -2.640625 C 7.226562 -2.890625 7.160156 -3.109375 7.078125 -3.296875 C 6.992188 -3.484375 6.898438 -3.59375 6.796875 -3.625 L 4.703125 -3.625 L 4.765625 -3.75 L 8.28125 -3.75 L 8.21875 -3.625 L 7.046875 -3.625 C 7.328125 -3.5 7.539062 -3.300781 7.6875 -3.03125 C 7.84375 -2.769531 7.921875 -2.484375 7.921875 -2.171875 C 7.921875 -1.816406 7.859375 -1.5 7.734375 -1.21875 C 7.617188 -0.9375 7.472656 -0.703125 7.296875 -0.515625 C 7.117188 -0.328125 6.929688 -0.179688 6.734375 -0.078125 C 6.546875 0.015625 6.378906 0.0625 6.234375 0.0625 Z M 0.796875 -2.09375 C 0.796875 -1.789062 0.863281 -1.503906 1 -1.234375 C 1.144531 -0.972656 1.34375 -0.757812 1.59375 -0.59375 C 1.84375 -0.425781 2.140625 -0.34375 2.484375 -0.34375 C 2.597656 -0.34375 2.75 -0.367188 2.9375 -0.421875 C 3.132812 -0.484375 3.34375 -0.59375 3.5625 -0.75 C 3.78125 -0.914062 3.976562 -1.15625 4.15625 -1.46875 C 3.9375 -1.695312 3.710938 -1.9375 3.484375 -2.1875 C 3.265625 -2.4375 3.070312 -2.671875 2.90625 -2.890625 C 2.75 -3.078125 2.609375 -3.25 2.484375 -3.40625 C 2.359375 -3.570312 2.238281 -3.726562 2.125 -3.875 C 1.75 -3.738281 1.460938 -3.5625 1.265625 -3.34375 C 1.078125 -3.125 0.953125 -2.898438 0.890625 -2.671875 C 0.828125 -2.453125 0.796875 -2.257812 0.796875 -2.09375 Z M 0.796875 -2.09375 "/></g></g></g><g fill="#a65519" fill-opacity="1"><g transform="translate(60.944369, 7.605009)"><g/></g></g><g fill="#a65519" fill-opacity="1"><g transform="translate(64.854507, 7.605009)"><g><path d="M 0.546875 0 L 0.546875 -0.109375 C 0.640625 -0.140625 0.71875 -0.1875 0.78125 -0.25 C 0.84375 -0.3125 0.882812 -0.421875 0.90625 -0.578125 C 0.9375 -0.734375 0.953125 -0.96875 0.953125 -1.28125 L 0.953125 -5.75 C 0.953125 -6.050781 0.9375 -6.28125 0.90625 -6.4375 C 0.882812 -6.601562 0.84375 -6.71875 0.78125 -6.78125 C 0.71875 -6.84375 0.640625 -6.882812 0.546875 -6.90625 L 0.546875 -7.015625 L 1.921875 -7.015625 L 1.921875 -6.90625 C 1.828125 -6.882812 1.75 -6.84375 1.6875 -6.78125 C 1.625 -6.71875 1.578125 -6.601562 1.546875 -6.4375 C 1.523438 -6.28125 1.515625 -6.050781 1.515625 -5.75 L 1.515625 -1.28125 C 1.515625 -0.96875 1.523438 -0.734375 1.546875 -0.578125 C 1.578125 -0.421875 1.625 -0.3125 1.6875 -0.25 C 1.75 -0.1875 1.828125 -0.140625 1.921875 -0.109375 L 1.921875 0 Z M 0.546875 0 "/></g></g></g><g fill="#a65519" fill-opacity="1"><g transform="translate(69.025321, 7.605009)"><g><path d="M 5.859375 0.078125 L 1.125 -6.296875 L 1.125 -1.453125 C 1.125 -1.109375 1.148438 -0.84375 1.203125 -0.65625 C 1.253906 -0.46875 1.320312 -0.335938 1.40625 -0.265625 C 1.5 -0.191406 1.601562 -0.140625 1.71875 -0.109375 L 1.71875 0 L 0.578125 0 L 0.578125 -0.109375 C 0.671875 -0.140625 0.742188 -0.1875 0.796875 -0.25 C 0.859375 -0.3125 0.898438 -0.421875 0.921875 -0.578125 C 0.953125 -0.734375 0.96875 -0.96875 0.96875 -1.28125 L 0.96875 -5.75 C 0.96875 -6.050781 0.945312 -6.28125 0.90625 -6.4375 C 0.875 -6.601562 0.816406 -6.71875 0.734375 -6.78125 C 0.660156 -6.84375 0.566406 -6.882812 0.453125 -6.90625 L 0.453125 -7.015625 L 1.28125 -7.015625 L 5.84375 -0.90625 L 5.84375 -5.5625 C 5.84375 -5.914062 5.816406 -6.179688 5.765625 -6.359375 C 5.710938 -6.546875 5.640625 -6.675781 5.546875 -6.75 C 5.460938 -6.832031 5.359375 -6.882812 5.234375 -6.90625 L 5.234375 -7.015625 L 6.390625 -7.015625 L 6.390625 -6.90625 C 6.296875 -6.882812 6.21875 -6.84375 6.15625 -6.78125 C 6.09375 -6.71875 6.046875 -6.601562 6.015625 -6.4375 C 5.992188 -6.28125 5.984375 -6.050781 5.984375 -5.75 L 5.984375 0.078125 Z M 5.859375 0.078125 "/></g></g></g><g fill="#a65519" fill-opacity="1"><g transform="translate(77.567483, 7.605009)"><g><path d="M -0.484375 1.203125 C -0.585938 1.203125 -0.664062 1.191406 -0.71875 1.171875 C -0.769531 1.148438 -0.796875 1.109375 -0.796875 1.046875 C -0.796875 0.953125 -0.753906 0.863281 -0.671875 0.78125 C -0.585938 0.695312 -0.472656 0.65625 -0.328125 0.65625 C -0.171875 0.65625 -0.0234375 0.664062 0.109375 0.6875 C 0.242188 0.707031 0.390625 0.734375 0.546875 0.765625 C 0.648438 0.710938 0.75 0.632812 0.84375 0.53125 C 0.9375 0.425781 1.015625 0.273438 1.078125 0.078125 C 1.140625 -0.117188 1.171875 -0.394531 1.171875 -0.75 L 1.171875 -5.75 C 1.171875 -6.050781 1.15625 -6.28125 1.125 -6.4375 C 1.101562 -6.601562 1.0625 -6.71875 1 -6.78125 C 0.9375 -6.84375 0.859375 -6.882812 0.765625 -6.90625 L 0.765625 -7.015625 L 2.125 -7.015625 L 2.125 -6.90625 C 2.03125 -6.882812 1.953125 -6.84375 1.890625 -6.78125 C 1.835938 -6.71875 1.796875 -6.601562 1.765625 -6.4375 C 1.734375 -6.28125 1.71875 -6.050781 1.71875 -5.75 L 1.71875 -1.453125 C 1.71875 -0.878906 1.613281 -0.394531 1.40625 0 C 1.195312 0.394531 0.925781 0.691406 0.59375 0.890625 C 0.257812 1.097656 -0.0976562 1.203125 -0.484375 1.203125 Z M -0.484375 1.203125 "/></g></g></g><g fill="#a65519" fill-opacity="1"><g transform="translate(81.948843, 7.605009)"><g><path d="M 0.546875 0 L 0.546875 -0.109375 C 0.640625 -0.140625 0.71875 -0.1875 0.78125 -0.25 C 0.84375 -0.3125 0.882812 -0.421875 0.90625 -0.578125 C 0.9375 -0.734375 0.953125 -0.96875 0.953125 -1.28125 L 0.953125 -5.75 C 0.953125 -6.050781 0.9375 -6.28125 0.90625 -6.4375 C 0.882812 -6.601562 0.84375 -6.71875 0.78125 -6.78125 C 0.71875 -6.84375 0.640625 -6.882812 0.546875 -6.90625 L 0.546875 -7.015625 L 5.0625 -7.015625 L 5.171875 -5.828125 L 5.078125 -5.8125 C 4.929688 -6.207031 4.710938 -6.484375 4.421875 -6.640625 C 4.140625 -6.804688 3.773438 -6.890625 3.328125 -6.890625 L 1.515625 -6.890625 L 1.515625 -3.796875 L 3.15625 -3.796875 C 3.507812 -3.796875 3.773438 -3.820312 3.953125 -3.875 C 4.140625 -3.925781 4.269531 -3.992188 4.34375 -4.078125 C 4.425781 -4.171875 4.476562 -4.28125 4.5 -4.40625 L 4.609375 -4.40625 L 4.609375 -3.0625 L 4.5 -3.0625 C 4.476562 -3.195312 4.425781 -3.304688 4.34375 -3.390625 C 4.269531 -3.472656 4.140625 -3.539062 3.953125 -3.59375 C 3.773438 -3.644531 3.507812 -3.671875 3.15625 -3.671875 L 1.515625 -3.671875 L 1.515625 -0.53125 C 1.515625 -0.257812 1.648438 -0.125 1.921875 -0.125 L 3.59375 -0.125 C 4.039062 -0.125 4.40625 -0.195312 4.6875 -0.34375 C 4.96875 -0.5 5.191406 -0.789062 5.359375 -1.21875 L 5.453125 -1.1875 L 5.359375 0 Z M 0.546875 0 "/></g></g></g><g fill="#a65519" fill-opacity="1"><g transform="translate(89.498431, 7.605009)"><g><path d="M 4.1875 0.09375 C 3.445312 0.09375 2.800781 -0.046875 2.25 -0.328125 C 1.695312 -0.609375 1.265625 -1.003906 0.953125 -1.515625 C 0.648438 -2.035156 0.5 -2.644531 0.5 -3.34375 C 0.5 -3.90625 0.597656 -4.414062 0.796875 -4.875 C 1.003906 -5.34375 1.285156 -5.738281 1.640625 -6.0625 C 1.992188 -6.394531 2.410156 -6.648438 2.890625 -6.828125 C 3.378906 -7.003906 3.90625 -7.09375 4.46875 -7.09375 C 4.789062 -7.09375 5.101562 -7.054688 5.40625 -6.984375 C 5.71875 -6.921875 5.984375 -6.847656 6.203125 -6.765625 C 6.429688 -6.691406 6.585938 -6.628906 6.671875 -6.578125 L 6.703125 -5.53125 L 6.625 -5.515625 C 6.4375 -5.910156 6.128906 -6.238281 5.703125 -6.5 C 5.273438 -6.757812 4.71875 -6.890625 4.03125 -6.890625 C 3.5 -6.890625 3.015625 -6.769531 2.578125 -6.53125 C 2.140625 -6.300781 1.785156 -5.953125 1.515625 -5.484375 C 1.242188 -5.015625 1.101562 -4.429688 1.09375 -3.734375 C 1.09375 -3.273438 1.160156 -2.828125 1.296875 -2.390625 C 1.429688 -1.960938 1.640625 -1.570312 1.921875 -1.21875 C 2.210938 -0.875 2.566406 -0.597656 2.984375 -0.390625 C 3.398438 -0.179688 3.890625 -0.078125 4.453125 -0.078125 C 4.972656 -0.078125 5.445312 -0.203125 5.875 -0.453125 C 6.300781 -0.703125 6.617188 -1.109375 6.828125 -1.671875 L 6.9375 -1.671875 L 6.765625 -0.5 C 6.628906 -0.40625 6.421875 -0.3125 6.140625 -0.21875 C 5.867188 -0.125 5.554688 -0.0507812 5.203125 0 C 4.859375 0.0625 4.519531 0.09375 4.1875 0.09375 Z M 4.1875 0.09375 "/></g></g></g><g fill="#a65519" fill-opacity="1"><g transform="translate(98.531875, 7.605009)"><g><path d="M 2.109375 0 L 2.109375 -0.109375 C 2.203125 -0.140625 2.28125 -0.1875 2.34375 -0.25 C 2.40625 -0.3125 2.445312 -0.421875 2.46875 -0.578125 C 2.5 -0.734375 2.515625 -0.96875 2.515625 -1.28125 L 2.515625 -6.890625 L 1.828125 -6.890625 C 1.523438 -6.890625 1.273438 -6.859375 1.078125 -6.796875 C 0.890625 -6.742188 0.734375 -6.648438 0.609375 -6.515625 C 0.492188 -6.390625 0.382812 -6.222656 0.28125 -6.015625 L 0.1875 -6.03125 L 0.25 -7.015625 L 5.34375 -7.015625 L 5.390625 -6.03125 L 5.3125 -6.015625 C 5.207031 -6.222656 5.09375 -6.390625 4.96875 -6.515625 C 4.84375 -6.648438 4.6875 -6.742188 4.5 -6.796875 C 4.3125 -6.859375 4.066406 -6.890625 3.765625 -6.890625 L 3.09375 -6.890625 L 3.09375 -1.28125 C 3.09375 -0.96875 3.101562 -0.734375 3.125 -0.578125 C 3.15625 -0.421875 3.195312 -0.3125 3.25 -0.25 C 3.3125 -0.1875 3.390625 -0.140625 3.484375 -0.109375 L 3.484375 0 Z M 2.109375 0 "/></g></g></g><g fill="#a65519" fill-opacity="1"><g transform="translate(105.840838, 7.605009)"><g><path d="M 0.546875 0 L 0.546875 -0.109375 C 0.640625 -0.140625 0.71875 -0.1875 0.78125 -0.25 C 0.84375 -0.3125 0.882812 -0.421875 0.90625 -0.578125 C 0.9375 -0.734375 0.953125 -0.96875 0.953125 -1.28125 L 0.953125 -5.75 C 0.953125 -6.050781 0.9375 -6.28125 0.90625 -6.4375 C 0.882812 -6.601562 0.84375 -6.71875 0.78125 -6.78125 C 0.71875 -6.84375 0.640625 -6.882812 0.546875 -6.90625 L 0.546875 -7.015625 L 1.921875 -7.015625 L 1.921875 -6.90625 C 1.828125 -6.882812 1.75 -6.84375 1.6875 -6.78125 C 1.625 -6.71875 1.578125 -6.601562 1.546875 -6.4375 C 1.523438 -6.28125 1.515625 -6.050781 1.515625 -5.75 L 1.515625 -1.28125 C 1.515625 -0.96875 1.523438 -0.734375 1.546875 -0.578125 C 1.578125 -0.421875 1.625 -0.3125 1.6875 -0.25 C 1.75 -0.1875 1.828125 -0.140625 1.921875 -0.109375 L 1.921875 0 Z M 0.546875 0 "/></g></g></g><g fill="#a65519" fill-opacity="1"><g transform="translate(110.011652, 7.605009)"><g><path d="M 4.046875 0.09375 C 3.617188 0.09375 3.191406 0.0234375 2.765625 -0.109375 C 2.347656 -0.253906 1.96875 -0.472656 1.625 -0.765625 C 1.28125 -1.066406 1.003906 -1.441406 0.796875 -1.890625 C 0.597656 -2.347656 0.5 -2.882812 0.5 -3.5 C 0.5 -4.207031 0.644531 -4.832031 0.9375 -5.375 C 1.238281 -5.914062 1.65625 -6.335938 2.1875 -6.640625 C 2.71875 -6.953125 3.335938 -7.109375 4.046875 -7.109375 C 4.460938 -7.109375 4.878906 -7.03125 5.296875 -6.875 C 5.710938 -6.726562 6.09375 -6.503906 6.4375 -6.203125 C 6.789062 -5.910156 7.066406 -5.535156 7.265625 -5.078125 C 7.472656 -4.628906 7.578125 -4.097656 7.578125 -3.484375 C 7.578125 -2.847656 7.472656 -2.304688 7.265625 -1.859375 C 7.054688 -1.410156 6.78125 -1.039062 6.4375 -0.75 C 6.09375 -0.457031 5.710938 -0.242188 5.296875 -0.109375 C 4.878906 0.0234375 4.460938 0.09375 4.046875 0.09375 Z M 1.046875 -4.046875 C 1.046875 -3.535156 1.125 -3.039062 1.28125 -2.5625 C 1.445312 -2.09375 1.675781 -1.671875 1.96875 -1.296875 C 2.257812 -0.929688 2.601562 -0.640625 3 -0.421875 C 3.394531 -0.203125 3.828125 -0.09375 4.296875 -0.09375 C 4.859375 -0.09375 5.34375 -0.210938 5.75 -0.453125 C 6.164062 -0.691406 6.484375 -1.023438 6.703125 -1.453125 C 6.929688 -1.890625 7.046875 -2.390625 7.046875 -2.953125 C 7.046875 -3.472656 6.960938 -3.96875 6.796875 -4.4375 C 6.628906 -4.90625 6.394531 -5.328125 6.09375 -5.703125 C 5.800781 -6.078125 5.453125 -6.367188 5.046875 -6.578125 C 4.648438 -6.796875 4.21875 -6.90625 3.75 -6.90625 C 3.1875 -6.90625 2.703125 -6.78125 2.296875 -6.53125 C 1.890625 -6.289062 1.578125 -5.953125 1.359375 -5.515625 C 1.148438 -5.085938 1.046875 -4.597656 1.046875 -4.046875 Z M 1.046875 -4.046875 "/></g></g></g><g fill="#a65519" fill-opacity="1"><g transform="translate(119.787015, 7.605009)"><g><path d="M 5.859375 0.078125 L 1.125 -6.296875 L 1.125 -1.453125 C 1.125 -1.109375 1.148438 -0.84375 1.203125 -0.65625 C 1.253906 -0.46875 1.320312 -0.335938 1.40625 -0.265625 C 1.5 -0.191406 1.601562 -0.140625 1.71875 -0.109375 L 1.71875 0 L 0.578125 0 L 0.578125 -0.109375 C 0.671875 -0.140625 0.742188 -0.1875 0.796875 -0.25 C 0.859375 -0.3125 0.898438 -0.421875 0.921875 -0.578125 C 0.953125 -0.734375 0.96875 -0.96875 0.96875 -1.28125 L 0.96875 -5.75 C 0.96875 -6.050781 0.945312 -6.28125 0.90625 -6.4375 C 0.875 -6.601562 0.816406 -6.71875 0.734375 -6.78125 C 0.660156 -6.84375 0.566406 -6.882812 0.453125 -6.90625 L 0.453125 -7.015625 L 1.28125 -7.015625 L 5.84375 -0.90625 L 5.84375 -5.5625 C 5.84375 -5.914062 5.816406 -6.179688 5.765625 -6.359375 C 5.710938 -6.546875 5.640625 -6.675781 5.546875 -6.75 C 5.460938 -6.832031 5.359375 -6.882812 5.234375 -6.90625 L 5.234375 -7.015625 L 6.390625 -7.015625 L 6.390625 -6.90625 C 6.296875 -6.882812 6.21875 -6.84375 6.15625 -6.78125 C 6.09375 -6.71875 6.046875 -6.601562 6.015625 -6.4375 C 5.992188 -6.28125 5.984375 -6.050781 5.984375 -5.75 L 5.984375 0.078125 Z M 5.859375 0.078125 "/></g></g></g><g fill="#a65519" fill-opacity="1"><g transform="translate(128.329178, 7.605009)"><g><path d="M 2.84375 0.09375 C 2.488281 0.09375 2.160156 0.0546875 1.859375 -0.015625 C 1.566406 -0.0859375 1.304688 -0.179688 1.078125 -0.296875 C 0.847656 -0.410156 0.660156 -0.515625 0.515625 -0.609375 L 0.453125 -1.890625 L 0.546875 -1.90625 C 0.660156 -1.582031 0.8125 -1.28125 1 -1 C 1.195312 -0.71875 1.453125 -0.488281 1.765625 -0.3125 C 2.085938 -0.132812 2.492188 -0.046875 2.984375 -0.046875 C 3.296875 -0.046875 3.570312 -0.109375 3.8125 -0.234375 C 4.0625 -0.359375 4.257812 -0.523438 4.40625 -0.734375 C 4.5625 -0.941406 4.640625 -1.179688 4.640625 -1.453125 C 4.640625 -1.703125 4.578125 -1.925781 4.453125 -2.125 C 4.328125 -2.320312 4.160156 -2.488281 3.953125 -2.625 C 3.753906 -2.769531 3.53125 -2.894531 3.28125 -3 C 3.039062 -3.113281 2.8125 -3.210938 2.59375 -3.296875 C 1.914062 -3.566406 1.414062 -3.84375 1.09375 -4.125 C 0.78125 -4.414062 0.625 -4.800781 0.625 -5.28125 C 0.625 -5.644531 0.71875 -5.960938 0.90625 -6.234375 C 1.101562 -6.503906 1.375 -6.710938 1.71875 -6.859375 C 2.0625 -7.015625 2.460938 -7.09375 2.921875 -7.09375 C 3.472656 -7.09375 3.910156 -7.023438 4.234375 -6.890625 C 4.554688 -6.765625 4.78125 -6.664062 4.90625 -6.59375 L 4.953125 -5.578125 L 4.859375 -5.5625 C 4.753906 -5.789062 4.613281 -6.007812 4.4375 -6.21875 C 4.269531 -6.4375 4.039062 -6.609375 3.75 -6.734375 C 3.46875 -6.867188 3.101562 -6.9375 2.65625 -6.9375 C 2.382812 -6.9375 2.128906 -6.882812 1.890625 -6.78125 C 1.648438 -6.675781 1.453125 -6.519531 1.296875 -6.3125 C 1.148438 -6.113281 1.078125 -5.859375 1.078125 -5.546875 C 1.078125 -5.296875 1.132812 -5.082031 1.25 -4.90625 C 1.375 -4.726562 1.53125 -4.570312 1.71875 -4.4375 C 1.914062 -4.300781 2.128906 -4.175781 2.359375 -4.0625 C 2.597656 -3.957031 2.832031 -3.859375 3.0625 -3.765625 C 3.457031 -3.609375 3.8125 -3.441406 4.125 -3.265625 C 4.4375 -3.097656 4.679688 -2.894531 4.859375 -2.65625 C 5.035156 -2.425781 5.125 -2.132812 5.125 -1.78125 C 5.125 -1.414062 5.019531 -1.085938 4.8125 -0.796875 C 4.601562 -0.515625 4.320312 -0.296875 3.96875 -0.140625 C 3.625 0.015625 3.25 0.09375 2.84375 0.09375 Z M 2.84375 0.09375 "/></g></g></g><g fill="#a65519" fill-opacity="1"><g transform="translate(135.527857, 7.605009)"><g/></g></g><g fill="#a65519" fill-opacity="1"><g transform="translate(139.437995, 7.605009)"><g><path d="M 0.546875 0 L 0.546875 -0.109375 C 0.640625 -0.140625 0.71875 -0.1875 0.78125 -0.25 C 0.84375 -0.3125 0.882812 -0.421875 0.90625 -0.578125 C 0.9375 -0.734375 0.953125 -0.96875 0.953125 -1.28125 L 0.953125 -5.75 C 0.953125 -6.050781 0.9375 -6.28125 0.90625 -6.4375 C 0.882812 -6.601562 0.84375 -6.71875 0.78125 -6.78125 C 0.71875 -6.84375 0.640625 -6.882812 0.546875 -6.90625 L 0.546875 -7.015625 L 2.765625 -7.015625 C 3.472656 -7.015625 4 -6.894531 4.34375 -6.65625 C 4.6875 -6.425781 4.859375 -6.109375 4.859375 -5.703125 C 4.859375 -5.359375 4.738281 -5.046875 4.5 -4.765625 C 4.269531 -4.484375 3.90625 -4.289062 3.40625 -4.1875 C 3.945312 -4.15625 4.375 -4.046875 4.6875 -3.859375 C 5.007812 -3.671875 5.242188 -3.4375 5.390625 -3.15625 C 5.546875 -2.875 5.625 -2.570312 5.625 -2.25 C 5.625 -1.988281 5.570312 -1.722656 5.46875 -1.453125 C 5.363281 -1.179688 5.1875 -0.9375 4.9375 -0.71875 C 4.695312 -0.507812 4.375 -0.335938 3.96875 -0.203125 C 3.5625 -0.0664062 3.054688 0 2.453125 0 Z M 1.515625 -1.015625 C 1.515625 -0.648438 1.546875 -0.410156 1.609375 -0.296875 C 1.679688 -0.191406 1.820312 -0.140625 2.03125 -0.140625 L 2.546875 -0.140625 C 3.160156 -0.140625 3.644531 -0.222656 4 -0.390625 C 4.363281 -0.566406 4.617188 -0.800781 4.765625 -1.09375 C 4.921875 -1.394531 5 -1.738281 5 -2.125 C 5 -2.488281 4.925781 -2.816406 4.78125 -3.109375 C 4.632812 -3.398438 4.40625 -3.628906 4.09375 -3.796875 C 3.78125 -3.972656 3.375 -4.0625 2.875 -4.0625 L 1.515625 -4.0625 Z M 1.515625 -4.1875 L 2.5 -4.1875 C 2.925781 -4.1875 3.265625 -4.25 3.515625 -4.375 C 3.773438 -4.5 3.960938 -4.664062 4.078125 -4.875 C 4.191406 -5.082031 4.25 -5.3125 4.25 -5.5625 C 4.25 -5.957031 4.113281 -6.273438 3.84375 -6.515625 C 3.582031 -6.765625 3.1875 -6.890625 2.65625 -6.890625 L 1.515625 -6.890625 Z M 1.515625 -4.1875 "/></g></g></g><g fill="#a65519" fill-opacity="1"><g transform="translate(147.067794, 7.605009)"><g><path d="M -0.125 0 L -0.125 -0.109375 C -0.03125 -0.140625 0.0546875 -0.179688 0.140625 -0.234375 C 0.222656 -0.296875 0.3125 -0.394531 0.40625 -0.53125 C 0.5 -0.675781 0.601562 -0.894531 0.71875 -1.1875 L 2.8125 -6.34375 C 2.863281 -6.476562 2.851562 -6.609375 2.78125 -6.734375 L 2.734375 -6.875 L 3.234375 -7.09375 L 5.671875 -1.171875 C 5.796875 -0.890625 5.898438 -0.675781 5.984375 -0.53125 C 6.078125 -0.394531 6.160156 -0.296875 6.234375 -0.234375 C 6.304688 -0.179688 6.375 -0.140625 6.4375 -0.109375 L 6.4375 0 L 5.171875 0 L 5.171875 -0.109375 C 5.265625 -0.140625 5.320312 -0.179688 5.34375 -0.234375 C 5.375 -0.296875 5.367188 -0.394531 5.328125 -0.53125 C 5.296875 -0.675781 5.21875 -0.890625 5.09375 -1.171875 L 4.46875 -2.671875 L 1.484375 -2.671875 L 0.875 -1.1875 C 0.75 -0.875 0.691406 -0.625 0.703125 -0.4375 C 0.710938 -0.25 0.800781 -0.140625 0.96875 -0.109375 L 0.96875 0 Z M 1.546875 -2.8125 L 4.40625 -2.8125 L 2.953125 -6.34375 Z M 1.546875 -2.8125 "/></g></g></g><g fill="#a65519" fill-opacity="1"><g transform="translate(155.168816, 7.605009)"><g><path d="M 5.671875 0.0625 C 5.429688 0.0625 5.242188 0.00390625 5.109375 -0.109375 C 4.984375 -0.234375 4.875 -0.40625 4.78125 -0.625 C 4.6875 -0.851562 4.570312 -1.117188 4.4375 -1.421875 C 4.300781 -1.742188 4.175781 -2.039062 4.0625 -2.3125 C 3.957031 -2.59375 3.832031 -2.832031 3.6875 -3.03125 C 3.550781 -3.226562 3.363281 -3.378906 3.125 -3.484375 C 2.894531 -3.597656 2.585938 -3.65625 2.203125 -3.65625 L 1.515625 -3.65625 L 1.515625 -1.28125 C 1.515625 -0.96875 1.523438 -0.734375 1.546875 -0.578125 C 1.578125 -0.421875 1.625 -0.3125 1.6875 -0.25 C 1.75 -0.1875 1.828125 -0.140625 1.921875 -0.109375 L 1.921875 0 L 0.546875 0 L 0.546875 -0.109375 C 0.640625 -0.140625 0.71875 -0.1875 0.78125 -0.25 C 0.84375 -0.3125 0.882812 -0.421875 0.90625 -0.578125 C 0.9375 -0.734375 0.953125 -0.96875 0.953125 -1.28125 L 0.953125 -5.75 C 0.953125 -6.050781 0.9375 -6.28125 0.90625 -6.4375 C 0.882812 -6.601562 0.84375 -6.71875 0.78125 -6.78125 C 0.71875 -6.84375 0.640625 -6.882812 0.546875 -6.90625 L 0.546875 -7.015625 L 2.390625 -7.015625 C 3.328125 -7.015625 4 -6.882812 4.40625 -6.625 C 4.820312 -6.363281 5.03125 -5.988281 5.03125 -5.5 C 5.03125 -5.019531 4.851562 -4.609375 4.5 -4.265625 C 4.144531 -3.929688 3.648438 -3.734375 3.015625 -3.671875 C 3.347656 -3.617188 3.617188 -3.535156 3.828125 -3.421875 C 4.035156 -3.304688 4.203125 -3.15625 4.328125 -2.96875 C 4.453125 -2.789062 4.5625 -2.582031 4.65625 -2.34375 C 4.75 -2.113281 4.847656 -1.859375 4.953125 -1.578125 C 5.171875 -1.054688 5.359375 -0.675781 5.515625 -0.4375 C 5.671875 -0.195312 5.828125 -0.078125 5.984375 -0.078125 C 6.015625 -0.078125 6.046875 -0.078125 6.078125 -0.078125 C 6.109375 -0.0859375 6.132812 -0.09375 6.15625 -0.09375 L 6.15625 0 C 6.125 0.0078125 6.0625 0.0195312 5.96875 0.03125 C 5.882812 0.0507812 5.785156 0.0625 5.671875 0.0625 Z M 1.515625 -3.796875 L 2.578125 -3.796875 C 3.160156 -3.796875 3.609375 -3.925781 3.921875 -4.1875 C 4.242188 -4.445312 4.40625 -4.8125 4.40625 -5.28125 C 4.40625 -5.769531 4.222656 -6.160156 3.859375 -6.453125 C 3.503906 -6.742188 2.890625 -6.890625 2.015625 -6.890625 C 1.929688 -6.890625 1.847656 -6.882812 1.765625 -6.875 C 1.691406 -6.875 1.609375 -6.875 1.515625 -6.875 Z M 1.515625 -3.796875 "/></g></g></g></g></g></svg>